<svg width="120" height="120" viewBox="0 0 120 120" fill="none" xmlns="http://www.w3.org/2000/svg">
<g style="mix-blend-mode:luminosity" opacity="0.7">
<path opacity="0.999" fill-rule="evenodd" clip-rule="evenodd" d="M50.7921 43.2363C50.8109 43.4168 50.833 43.5928 50.8581 43.7643C50.8782 44.5951 50.9112 45.4202 50.9571 46.2396C50.9924 46.7412 51.031 47.2472 51.0726 47.7577C51.0997 48.2937 51.0944 48.8273 51.0561 49.3584C51.0782 49.3804 51.1 49.4024 51.1221 49.4244C51.0782 51.2066 51.0782 52.9887 51.1221 54.7709C51.1 54.7929 51.0782 54.8149 51.0561 54.8369C51.0944 55.3681 51.0997 55.9016 51.0726 56.4376C51.0198 56.9192 50.9868 57.4033 50.9736 57.8897C50.9393 59.1221 50.8951 60.3544 50.8416 61.5861C50.7356 62.396 50.6584 63.2099 50.6106 64.0284C50.5703 64.1095 50.5485 64.1977 50.5446 64.2924C50.502 64.8977 50.4581 65.5026 50.4125 66.1076C50.2997 66.6637 50.2116 67.2247 50.1485 67.7907C50.1363 67.8211 50.1198 67.8485 50.099 67.8732C50.1099 67.9501 50.1211 68.0274 50.132 68.1043C50.0937 68.4703 50.0386 68.8333 49.967 69.1934C49.8726 69.7541 49.768 70.3204 49.6535 70.893C49.5861 71.6521 49.5752 72.4112 49.6205 73.1703C49.7224 74.0468 50.1132 74.7617 50.7921 75.3155C50.9683 75.4036 51.1333 75.5079 51.2871 75.629C51.7419 75.8482 52.1984 76.0627 52.6568 76.2726C52.6937 76.267 52.732 76.2561 52.7723 76.2396C53.3076 76.4224 53.8578 76.4828 54.4224 76.4211C54.9119 76.295 55.4069 76.1521 55.9076 75.992C56.4766 75.6544 57.0376 75.3026 57.5908 74.9359C57.896 74.6505 58.204 74.3647 58.5149 74.0779C58.5587 74.067 58.603 74.0557 58.6469 74.0449C58.7056 73.9313 58.7769 73.8267 58.8614 73.7313C59.0832 73.5204 59.2924 73.3006 59.4884 73.0713C59.5894 72.9686 59.6667 72.8475 59.7195 72.7082C59.7964 72.6422 59.8736 72.5762 59.9505 72.5102C60.1762 72.0524 60.4185 71.6016 60.6766 71.1571C60.8432 70.6868 60.9809 70.2082 61.0891 69.7214C61.0657 69.6508 61.0769 69.5792 61.1221 69.5069C61.1178 69.4435 61.1069 69.3828 61.0891 69.3254C61.1195 69.1696 61.1637 69.0211 61.2211 68.8798C61.2993 68.7284 61.3323 68.5633 61.3201 68.3848C61.4135 67.934 61.5125 67.4831 61.6172 67.0317C61.7525 66.5633 61.9063 66.1013 62.0792 65.6455C62.0908 65.5194 62.1403 65.3983 62.2277 65.2825C62.331 64.9284 62.4851 64.5983 62.6898 64.2924C62.9178 63.7125 63.2591 63.2062 63.7129 62.7742C63.7376 62.6666 63.7927 62.5788 63.8779 62.5102C63.8888 62.5211 63.9 62.5323 63.9109 62.5432C64.001 62.4069 64.1053 62.2802 64.2244 62.1637C64.4554 61.9762 64.703 61.8168 64.967 61.6851C65.0726 61.6686 65.1716 61.6356 65.264 61.5861C65.302 61.6178 65.335 61.6066 65.363 61.5531C65.396 61.564 65.429 61.5752 65.462 61.5861C65.7927 61.4455 66.134 61.3356 66.4851 61.2561C66.8086 61.2465 67.133 61.263 67.4587 61.3056C67.7452 61.3663 68.031 61.4323 68.3168 61.5036C68.3772 61.5125 68.4267 61.5402 68.4653 61.5861C68.4984 61.5752 68.5314 61.564 68.5644 61.5531C69.8208 61.9419 70.9594 62.5416 71.9802 63.3518C72.6069 63.6927 73.234 64.0336 73.8614 64.3749C74.0073 64.4419 74.1558 64.5023 74.3069 64.5564C74.3449 64.5247 74.3779 64.5359 74.4059 64.5894C74.4297 64.5709 74.4574 64.56 74.4884 64.5564C74.8634 64.6996 75.2485 64.8095 75.6436 64.8864C75.7366 64.8973 75.8135 64.8699 75.8746 64.8039C76.1198 64.726 76.3617 64.6379 76.6007 64.5399C76.7017 64.5049 76.7842 64.4445 76.8482 64.3584C76.9512 64.0095 77.0502 63.6574 77.1452 63.3023C77.2208 63.2191 77.2647 63.1201 77.2772 63.0052C77.5135 62.6148 77.8601 62.3947 78.3168 62.3452C78.5719 62.3851 78.8139 62.4676 79.0429 62.5927C79.102 62.6851 79.1736 62.7676 79.2574 62.8402C79.3782 63.0696 79.4993 63.3006 79.6205 63.5333C79.696 63.9277 79.762 64.3237 79.8185 64.7214C79.8733 64.928 79.9281 65.1373 79.9835 65.3485C80 65.3871 80.0274 65.4145 80.066 65.431C80.0551 65.4419 80.0439 65.4531 80.033 65.464C80.1023 65.6257 80.1792 65.7854 80.264 65.9425C80.2571 65.962 80.2462 65.9785 80.231 65.992C80.2749 66.0359 80.3191 66.0802 80.363 66.1241C80.3521 66.135 80.3409 66.1462 80.33 66.1571C80.4644 66.4944 80.6238 66.8188 80.8086 67.1307C80.8389 67.2165 80.8611 67.3046 80.8746 67.3947C81.034 67.6376 81.1716 67.8907 81.2871 68.1538C81.2409 68.198 81.2518 68.2257 81.3201 68.2363C81.3092 68.2472 81.298 68.2584 81.2871 68.2693C81.4063 68.4392 81.4944 68.6264 81.5512 68.8303C81.568 68.8689 81.5954 68.8963 81.6337 68.9128C81.7115 69.2449 81.8601 69.5419 82.0792 69.8039C82.0723 69.8234 82.0614 69.8399 82.0462 69.8534C82.2482 70.2056 82.4185 70.5739 82.5578 70.959C82.6155 71.0637 82.6815 71.1627 82.7558 71.2561C83.0838 71.9534 83.4248 72.6465 83.7789 73.3353C83.8759 73.493 83.9802 73.6472 84.0924 73.7973C84.2063 74.0706 84.366 74.3125 84.571 74.5234C84.6521 74.4871 84.7346 74.4541 84.8185 74.4244C84.9218 74.2287 85.0155 74.0307 85.099 73.8303C85.2102 73.7079 85.2762 73.565 85.297 73.4013C85.366 73.2967 85.4264 73.1864 85.4785 73.0713C85.4723 73.0194 85.4723 72.9699 85.4785 72.9227C85.538 72.9122 85.5488 72.8904 85.5116 72.8567C85.5541 72.8102 85.5924 72.7607 85.6271 72.7082C85.6752 72.5458 85.7412 72.3917 85.8251 72.2462C86.1297 71.5346 86.4049 70.8085 86.6502 70.068C86.9409 69.4996 87.1719 68.9056 87.3432 68.2858C87.3977 68.2399 87.4142 68.1904 87.3927 68.1373C87.4785 68.0927 87.5003 68.0323 87.4587 67.9557C87.5759 67.6432 87.7023 67.335 87.8383 67.0317C87.8782 66.8656 87.9221 66.7006 87.9703 66.5366C87.9924 66.5145 88.0142 66.4927 88.0363 66.4706C88.1172 66.0891 88.1719 65.7039 88.2013 65.3155C88.2749 64.995 88.3353 64.6815 88.3828 64.3749C88.4785 64.1571 88.5832 63.9425 88.6964 63.7313C89.3726 63.164 89.9667 63.2409 90.4785 63.9623C90.5878 64.2132 90.7086 64.4554 90.8416 64.6884C90.9063 64.7198 90.9611 64.764 91.0066 64.8204C91.0201 64.8053 91.0366 64.7944 91.0561 64.7874C91.1145 64.835 91.1805 64.868 91.2541 64.8864C91.5175 64.8297 91.7597 64.7254 91.9802 64.5729C92.0224 64.5505 92.0611 64.5557 92.0957 64.5894C92.1449 64.5214 92.2109 64.4775 92.2937 64.4574C92.3046 64.4683 92.3158 64.4795 92.3267 64.4904C92.4617 64.4145 92.5993 64.3485 92.7393 64.2924C92.7346 64.2343 92.7455 64.1792 92.7723 64.1274C92.8389 64.0551 92.8997 63.9782 92.9538 63.8963C92.9997 63.5713 93.1043 63.2686 93.2673 62.9887C93.4198 62.9416 93.563 62.8755 93.6964 62.7907C93.932 62.7043 94.1739 62.6713 94.4224 62.6917C94.6181 62.7848 94.8053 62.9168 94.9835 63.0878C94.9726 63.0986 94.9614 63.1099 94.9505 63.1208C95.0082 63.3026 95.069 63.4841 95.132 63.6653C95.1822 64.2419 95.2591 64.8138 95.363 65.3815C95.4307 66.3218 95.5241 67.2567 95.6436 68.1868C95.638 68.3412 95.6436 68.4953 95.6601 68.6488C95.667 68.7003 95.6835 68.7442 95.7096 68.7808C95.7924 69.0848 95.8475 69.3983 95.8746 69.7214C95.8346 69.8062 95.8455 69.8775 95.9076 69.9359C95.9007 69.9554 95.8898 69.9719 95.8746 69.9854C95.9076 70.0623 95.9406 70.1396 95.9736 70.2165C95.9558 70.2739 95.9449 70.3346 95.9406 70.398C95.9749 70.435 95.997 70.4792 96.0066 70.53C96.1792 71.7538 96.4871 72.9363 96.9307 74.0779C96.9198 74.0887 96.9086 74.1 96.8977 74.1109C97.0092 74.2841 97.1247 74.4548 97.2442 74.6224C97.3861 74.7277 97.5016 74.7056 97.5908 74.5564C97.7561 74.5208 97.8825 74.4326 97.9703 74.2924C97.9812 74.3033 97.9924 74.3145 98.0033 74.3254C98.2412 74.0046 98.5 73.6963 98.7789 73.4013C98.8254 73.3581 98.8805 73.3307 98.9439 73.3188C99.0132 73.2247 99.0901 73.1366 99.1749 73.0548C99.164 73.0439 99.1528 73.0326 99.1419 73.0218C99.2135 72.9722 99.2848 72.9227 99.3564 72.8732C99.4429 72.7422 99.531 72.6102 99.6205 72.4772C99.7878 72.4089 99.8977 72.2881 99.9505 72.1142C100.13 72.0003 100.262 71.8462 100.347 71.6521C100.653 71.326 100.945 70.9851 101.221 70.629C101.39 70.499 101.527 70.3449 101.634 70.167C101.691 70.1188 101.752 70.0749 101.815 70.035C101.973 69.7831 102.144 69.5412 102.327 69.3089C102.404 69.2429 102.481 69.1769 102.558 69.1109C102.592 68.999 102.658 68.9112 102.756 68.8468C102.793 68.694 102.876 68.5732 103.003 68.4838C102.999 68.3924 103.049 68.3264 103.152 68.2858C103.276 68.1105 103.386 67.9234 103.482 67.7247C103.52 67.6838 103.564 67.6508 103.614 67.6257C103.638 67.5142 103.704 67.4373 103.812 67.3947C103.823 67.3508 103.834 67.3066 103.845 67.2627C103.972 67.0732 104.099 66.8864 104.224 66.7016C104.478 66.4482 104.693 66.162 104.868 65.8435C104.975 65.7508 105.074 65.6518 105.165 65.5465C105.208 65.393 105.296 65.2719 105.429 65.1835C105.487 65.064 105.558 64.9541 105.644 64.8534C105.776 64.7769 105.869 64.6666 105.924 64.5234C106.004 64.4313 106.097 64.3541 106.205 64.2924C106.377 63.9986 106.597 63.7455 106.865 63.5333C106.931 63.4389 106.992 63.3399 107.046 63.2363C107.233 63.1373 107.376 62.9944 107.475 62.8072C107.585 62.7851 107.651 62.7191 107.673 62.6092C107.695 62.5653 107.717 62.5653 107.739 62.6092C107.822 62.5435 107.872 62.4722 107.888 62.3947C107.998 62.3287 108.086 62.2406 108.152 62.1307C108.253 62.1046 108.325 62.0442 108.366 61.9491C108.377 61.96 108.388 61.9713 108.399 61.9821C108.538 61.8495 108.692 61.7722 108.861 61.7511C108.992 61.6851 109.124 61.6191 109.257 61.5531C109.29 61.564 109.323 61.5752 109.356 61.5861C109.629 61.4247 109.921 61.3864 110.231 61.4706C110.518 61.5449 110.793 61.6218 111.056 61.7016C111.64 62.3178 112.08 63.0439 112.376 63.8798C112.372 63.9053 112.36 63.9274 112.343 63.9458C112.392 64.0251 112.436 64.1076 112.475 64.1934C112.429 64.2376 112.44 64.2653 112.508 64.2759C112.497 64.2868 112.486 64.298 112.475 64.3089C112.521 64.4303 112.549 64.5567 112.558 64.6884C112.657 65.0736 112.756 65.4584 112.855 65.8435C112.905 66.1947 112.949 66.5468 112.987 66.8996C113.098 67.4313 113.164 67.9706 113.185 68.5168C113.304 69.3029 113.376 70.0897 113.399 70.8765C113.404 70.9729 113.448 71.061 113.531 71.1406C113.557 71.7673 113.683 72.3779 113.911 72.9722C114.179 73.5465 114.58 74.0029 115.116 74.3419C115.176 74.4617 115.275 74.5277 115.413 74.5399C115.471 74.6188 115.548 74.6739 115.644 74.7049C115.864 74.7821 116.084 74.859 116.304 74.9359C116.579 74.9623 116.848 75.0118 117.112 75.0845C117.456 75.0221 117.803 74.9614 118.152 74.9029C118.513 74.7825 118.876 74.667 119.241 74.5564C119.447 74.6119 119.656 74.6501 119.868 74.6719C119.895 74.6993 119.923 74.727 119.95 74.7544C120.016 75.0953 120.016 75.4366 119.95 75.7775C119.785 76.23 119.576 76.659 119.323 77.0647C119.149 77.2208 118.978 77.3802 118.812 77.5432C118.343 77.8973 117.825 78.1505 117.261 78.3023C116.654 78.3736 116.049 78.3627 115.446 78.2693C115.1 78.198 114.759 78.1102 114.422 78.0052C114.124 77.6967 113.761 77.5647 113.333 77.6092C112.579 77.7076 111.908 77.9716 111.32 78.4013C110.97 78.527 110.629 78.6808 110.297 78.8633C110.234 78.9 110.174 78.9056 110.116 78.8798C109.89 78.9953 109.664 79.1109 109.439 79.2264C109.338 79.2544 109.239 79.2874 109.142 79.3254C108.654 79.3587 108.159 79.3864 107.657 79.4079C107.305 79.3815 106.964 79.3432 106.634 79.2924C106.274 79.1699 105.916 79.0435 105.561 78.9128C105.527 78.9501 105.506 78.9392 105.495 78.8798C105.458 78.8854 105.42 78.8963 105.38 78.9128C105.296 78.8567 105.208 78.8072 105.116 78.7643C104.825 78.5805 104.539 78.3878 104.257 78.1868C103.798 77.6779 103.424 77.1112 103.135 76.4871C103.115 76.4165 103.098 76.3452 103.086 76.2726C103.069 76.234 103.042 76.2066 103.003 76.1901C103.041 76.1564 103.03 76.1346 102.97 76.1241C102.987 76.1056 102.999 76.0835 103.003 76.0581C102.914 75.7749 102.82 75.4944 102.723 75.2165C102.662 74.7528 102.602 74.2907 102.541 73.8303C102.489 73.8036 102.434 73.7927 102.376 73.7973C102.214 74.059 102.016 74.2957 101.782 74.5069C101.81 74.5584 101.788 74.5914 101.716 74.6059C101.727 74.6168 101.738 74.628 101.749 74.6389C101.707 74.6491 101.669 74.6656 101.634 74.6884C101.622 74.7452 101.606 74.8 101.584 74.8534C101.32 75.1614 101.045 75.4584 100.759 75.7445C100.122 76.5633 99.4178 77.328 98.6469 78.0382C98.2769 78.2732 97.936 78.5485 97.6238 78.8633C97.5746 78.9086 97.5251 78.9138 97.4752 78.8798C97.4479 78.9072 97.4201 78.935 97.3927 78.9623C97.134 79.067 96.87 79.166 96.6007 79.2594C96.5023 79.2759 96.4033 79.2812 96.3036 79.2759C96.3089 79.2307 96.3033 79.1864 96.2871 79.1439C96.2736 79.159 96.2571 79.1699 96.2376 79.1769C96.1719 79.1165 96.095 79.0835 96.0066 79.0779C96.0066 79.0449 96.0066 79.0118 96.0066 78.9788C95.9182 78.9732 95.8413 78.9402 95.7756 78.8798C95.5541 78.663 95.367 78.4211 95.2145 78.1538C95.2548 78.1109 95.2436 78.0779 95.1815 78.0548C95.0828 77.7914 94.9673 77.5382 94.835 77.2957C94.6584 76.799 94.5155 76.2927 94.4059 75.7775C93.9987 73.494 93.6356 71.1729 93.3168 68.8138C93.3003 68.7973 93.2838 68.7808 93.2673 68.7643C93.2782 68.6653 93.2894 68.5663 93.3003 68.4673C93.2782 68.4452 93.2564 68.4234 93.2343 68.4013C93.2525 68.3551 93.2634 68.3112 93.2673 68.2693C93.2452 68.2472 93.2234 68.2254 93.2013 68.2033C93.2297 67.6643 93.1802 67.1307 93.0528 66.6026C93.0271 66.4468 93.0327 66.2927 93.0693 66.1406C93.0584 66.1076 93.0363 66.0854 93.0033 66.0746C92.8548 66.1241 92.7228 66.2013 92.6073 66.3056C92.4271 66.534 92.2181 66.732 91.9802 66.8996C91.671 67.0983 91.3518 67.2798 91.0231 67.4442C90.9878 67.533 90.9109 67.599 90.7921 67.6422C90.5271 67.9072 90.2851 68.1934 90.066 68.5003C90.066 68.5442 90.066 68.5884 90.066 68.6323C90.0274 68.6709 89.9891 68.7092 89.9505 68.7478C89.7284 69.3845 89.4865 70.0006 89.2244 70.596C89.169 70.8983 89.0644 71.1788 88.9109 71.4376C88.9281 71.4561 88.9393 71.4782 88.9439 71.5036C88.8386 71.7198 88.7561 71.9452 88.6964 72.1802C88.5842 72.3858 88.4851 72.5947 88.3993 72.8072C88.3521 73.0699 88.2475 73.3066 88.0858 73.5168C88.101 73.5303 88.1119 73.5468 88.1188 73.5663C87.9782 73.8069 87.8904 74.0544 87.8548 74.3089C87.432 75.1577 87.0472 76.027 86.6997 76.9161C86.5723 77.1105 86.4677 77.3142 86.3861 77.5267C86.2947 77.6109 86.2452 77.7046 86.2376 77.8072C86.1406 77.9029 86.0802 78.0184 86.0561 78.1538C85.9376 78.3142 85.8274 78.4792 85.7261 78.6488C85.4409 78.9564 85.0888 79.1326 84.67 79.1769C84.6314 79.166 84.5931 79.1548 84.5545 79.1439C84.4323 79.0442 84.3003 78.9564 84.1584 78.8798C84.1419 78.8468 84.1254 78.8138 84.1089 78.7808C83.9578 78.6779 83.8201 78.5567 83.6964 78.4178C83.434 78.0184 83.2086 77.6003 83.0198 77.1637C82.8964 76.964 82.77 76.766 82.6403 76.5696C82.6713 76.5046 82.6495 76.4551 82.5743 76.4211C82.5743 76.3881 82.5743 76.3551 82.5743 76.3221C82.4657 76.2772 82.4162 76.1947 82.4257 76.0746C82.2092 75.7072 82.0112 75.333 81.8317 74.9524C81.7172 74.8531 81.6568 74.7376 81.6502 74.6059C81.3059 74.0693 80.998 73.5138 80.7261 72.9392C80.6442 72.9089 80.6221 72.8594 80.6601 72.7907C80.5884 72.6868 80.5172 72.5825 80.4455 72.4772C80.404 72.3465 80.3597 72.2145 80.3135 72.0812C80.2086 71.9333 80.1096 71.7792 80.0165 71.6191C79.9284 71.3323 79.7911 71.0739 79.604 70.8435C79.6149 70.8326 79.6261 70.8214 79.637 70.8105C79.4528 70.5356 79.2825 70.2551 79.1254 69.9689C79.0677 69.8795 79.0347 69.7805 79.0264 69.6719C78.8769 69.431 78.7393 69.1835 78.6139 68.9293C78.629 68.9158 78.6399 68.8993 78.6469 68.8798C78.5716 68.7333 78.4779 68.6013 78.3663 68.4838C78.3574 68.431 78.3409 68.3815 78.3168 68.3353C78.2096 68.3511 78.0997 68.3732 77.9868 68.4013C77.4964 68.729 76.9683 68.9765 76.4026 69.1439C76.1089 69.1062 75.8172 69.1062 75.5281 69.1439C75.2426 69.0237 74.9512 68.9191 74.6535 68.8303C74.3677 68.7947 74.1092 68.6904 73.8779 68.5168C73.8208 68.5488 73.7931 68.5983 73.7954 68.6653C73.8238 69.0445 73.8182 69.4241 73.7789 69.8039C73.5888 70.7897 73.4238 71.7686 73.2838 72.7412C73.1465 73.0683 73.0475 73.4095 72.9868 73.7643C72.7581 74.2184 72.5601 74.6914 72.3927 75.1835C72.1317 75.6927 71.8399 76.1825 71.5182 76.6521C71.529 76.663 71.5403 76.6742 71.5512 76.6851C71.4541 76.7739 71.3607 76.8676 71.2706 76.9656C71.0347 77.3112 70.7871 77.6468 70.5281 77.9722C70.3023 78.1132 70.0931 78.2782 69.901 78.4673C69.7366 78.5653 69.5716 78.6643 69.4059 78.7643C68.9502 78.9317 68.4993 79.1079 68.0528 79.2924C67.6898 79.3145 67.3267 79.3145 66.9637 79.2924C66.6944 79.2023 66.4195 79.1363 66.1386 79.0944C66 79.0336 65.8627 78.9732 65.7261 78.9128C65.6442 78.8815 65.5673 78.8815 65.495 78.9128C64.9551 78.6505 64.4436 78.3425 63.9604 77.9887C63.8251 77.8769 63.704 77.7505 63.5974 77.6092C63.4947 77.5887 63.434 77.528 63.4158 77.4277C63.2894 77.2914 63.1518 77.165 63.0033 77.0482C63.0142 77.0373 63.0254 77.026 63.0363 77.0151C62.6261 76.5914 62.2795 76.1346 61.9967 75.6455C61.9261 75.5798 61.8436 75.5359 61.7492 75.5135C61.7066 75.4211 61.635 75.3772 61.5347 75.3815C61.4333 75.3907 61.3399 75.4237 61.2541 75.4805C60.7558 75.9184 60.2828 76.3858 59.835 76.8831C59.5581 77.0719 59.3271 77.3029 59.1419 77.5762C58.6871 77.9323 58.2363 78.2897 57.7888 78.6488C57.2234 78.9934 56.6515 79.3508 56.0726 79.7214C55.8772 79.7755 55.6845 79.8359 55.4951 79.9029C55.4333 79.8835 55.3782 79.9056 55.33 79.9689C55.3165 79.9538 55.3 79.9429 55.2805 79.9359C54.3442 80.1614 53.4092 80.1561 52.4753 79.9194C51.9386 79.6732 51.4215 79.3927 50.9241 79.0779C50.6624 78.8369 50.3875 78.6115 50.099 78.4013C49.8941 78.2019 49.696 77.9983 49.505 77.7907C49.2957 77.6973 49.0977 77.5818 48.9109 77.4442C48.4521 77.2868 47.9957 77.292 47.5413 77.4607C47.1653 77.6944 46.797 77.9089 46.4356 78.1043C46.3053 78.2029 46.1733 78.3019 46.0396 78.4013C45.1914 78.8914 44.3333 79.3643 43.4654 79.8204C42.9535 80.0709 42.4363 80.3128 41.9142 80.5465C41.896 80.5769 41.8743 80.6046 41.8482 80.629C41.538 80.7755 41.23 80.9241 40.9241 81.0746C40.4089 81.2772 39.903 81.4973 39.4059 81.7346C39.296 81.7594 39.1914 81.798 39.0924 81.8501C39.0815 81.8392 39.0703 81.828 39.0594 81.8171C38.6132 81.9911 38.1789 82.1838 37.7558 82.3947C37.1944 82.593 36.6333 82.7689 36.0726 82.9227C35.7954 83.0389 35.5205 83.1597 35.2475 83.2858C34.8234 83.3769 34.4056 83.4871 33.9934 83.6158C33.8607 83.6528 33.734 83.7023 33.6139 83.7643C33.5885 83.7597 33.5663 83.7485 33.5479 83.7313C33.4848 83.7548 33.4188 83.7878 33.3498 83.8303C33.2795 83.8333 33.2079 83.8333 33.1353 83.8303C32.4152 84.0425 31.6891 84.2241 30.9571 84.3749C30.5525 84.4237 30.1564 84.501 29.769 84.6059C29.3541 84.6376 28.9415 84.6871 28.5314 84.7544C28.4668 84.7491 28.4008 84.7383 28.3333 84.7214C28.2893 84.7435 28.2453 84.7653 28.2013 84.7874C28.1683 84.7765 28.1353 84.7653 28.1023 84.7544C28.0056 84.8062 27.9011 84.8336 27.7888 84.8369C27.0924 84.8858 26.3993 84.9518 25.7096 85.035C22.821 85.2831 19.9497 85.2118 17.0957 84.8204C17.0229 84.8491 16.9624 84.8274 16.9142 84.7544C16.8592 84.7653 16.8042 84.7765 16.7492 84.7874C16.7052 84.7653 16.6612 84.7435 16.6172 84.7214C16.5548 84.7412 16.4943 84.7521 16.4356 84.7544C16.1536 84.6887 15.8676 84.6449 15.5776 84.6224C15.1319 84.53 14.6919 84.4145 14.2574 84.2759C13.8952 84.2317 13.5431 84.1548 13.2013 84.0449C12.9042 84.0095 12.6237 83.927 12.3597 83.7973C12.3488 83.8082 12.3377 83.8194 12.3267 83.8303C11.9856 83.6805 11.6281 83.5759 11.2541 83.5168C10.8424 83.3379 10.4353 83.1399 10.033 82.9227C9.93562 82.9194 9.8476 82.892 9.76898 82.8402C9.74964 82.8472 9.73314 82.8581 9.71948 82.8732C9.68096 82.8346 9.64248 82.7963 9.60397 82.7577C9.36773 82.6125 9.11469 82.4914 8.84489 82.3947C8.48509 82.1653 8.12205 81.9455 7.75578 81.7346C7.62403 81.6359 7.50304 81.5257 7.39275 81.4046C7.00945 81.1911 6.66291 80.9323 6.35314 80.629C6.34215 80.6399 6.33113 80.6511 6.32014 80.662C6.1678 80.5201 6.00826 80.3934 5.84159 80.2825C5.78545 80.1825 5.70842 80.1052 5.61057 80.0515C5.62156 80.0406 5.63258 80.0293 5.64357 80.0184C5.39354 79.7858 5.14054 79.5604 4.8845 79.3419C4.80892 79.1769 4.68793 79.034 4.52146 78.9128C4.21486 78.5125 3.90133 78.1165 3.58087 77.7247C3.25945 77.2297 2.93493 76.7399 2.60727 76.2561C2.64469 76.2224 2.6337 76.2006 2.57427 76.1901C2.58526 76.1792 2.59628 76.168 2.60727 76.1571C2.38872 75.927 2.24021 75.6577 2.16172 75.3485C1.53271 74.0821 1.02116 72.7567 0.627071 71.3716C0.638061 71.3386 0.649084 71.3056 0.660074 71.2726C0.597434 71.2515 0.586411 71.2076 0.627071 71.1406C0.520404 70.6297 0.404893 70.1181 0.280536 69.6059C0.201262 68.8788 0.113243 68.1528 0.0165099 67.4277C-0.0055033 66.4597 -0.0055033 65.4914 0.0165099 64.5234C0.125025 63.6346 0.213012 62.7435 0.280536 61.8501C0.378721 61.5033 0.455718 61.1511 0.511559 60.794C0.569315 60.659 0.61882 60.5214 0.660074 60.3815C0.627764 60.3227 0.638754 60.2676 0.693078 60.2165C0.667104 60.1052 0.667104 60.0006 0.693078 59.9029C0.79519 59.6267 0.866675 59.3406 0.907599 59.0449C1.05582 58.6168 1.19882 58.1878 1.33664 57.7577C1.51024 57.3907 1.64225 57.0165 1.73268 56.6356C1.92621 56.1979 2.11324 55.7579 2.29374 55.3155C2.40988 55.0821 2.5309 54.8511 2.65677 54.6224C2.66697 54.5806 2.68347 54.5421 2.70628 54.5069C2.69529 54.4959 2.68427 54.4849 2.67328 54.4739C2.86582 54.1662 3.06384 53.8637 3.26733 53.5663C3.31344 53.4844 3.34097 53.3964 3.34984 53.3023C3.49796 53.1205 3.63549 52.928 3.76238 52.7247C3.75139 52.7137 3.74037 52.7027 3.72938 52.6917C3.78988 52.6532 3.8504 52.6147 3.9109 52.5762C3.99918 52.417 4.09268 52.263 4.19143 52.1142C4.33476 51.9763 4.46677 51.8278 4.58747 51.6686C4.57648 51.6576 4.56545 51.6466 4.55446 51.6356C4.83634 51.3318 5.10585 51.0183 5.36304 50.695C5.41806 50.651 5.47304 50.607 5.52806 50.563C5.62707 50.3662 5.77559 50.2177 5.9736 50.1175C5.94222 50.0938 5.93674 50.0663 5.9571 50.035C6.17162 49.8534 6.38615 49.6719 6.60067 49.4904C6.58968 49.4794 6.57865 49.4684 6.56766 49.4574C6.73615 49.3329 6.88466 49.1844 7.01321 49.0119C7.0242 49.0228 7.03522 49.0339 7.04621 49.0449C7.52529 48.6693 7.99285 48.2898 8.44885 47.9062C8.53836 47.8249 8.65938 47.7589 8.81189 47.7082C8.8009 47.6972 8.78988 47.6862 8.77888 47.6752C8.81189 47.6642 8.84489 47.6532 8.87789 47.6422C8.86691 47.6312 8.85588 47.6202 8.84489 47.6092C8.88667 47.599 8.92519 47.5825 8.9604 47.5597C8.97139 47.5707 8.98242 47.5817 8.99341 47.5927C9.34743 47.2337 9.75997 46.9587 10.231 46.7676C10.3737 46.685 10.5057 46.586 10.6271 46.4706C10.9385 46.3406 11.23 46.1756 11.5017 45.9755C11.5126 45.9865 11.5237 45.9976 11.5347 46.0086C11.6652 45.9406 11.7917 45.8691 11.9142 45.794C12.0255 45.7588 12.1355 45.7203 12.2442 45.6785C12.2672 45.6163 12.3002 45.6053 12.3432 45.6455C12.5212 45.5148 12.7082 45.3992 12.9043 45.299C13.1968 45.2148 13.4828 45.1158 13.7624 45.002C14.5677 44.6153 15.3983 44.2907 16.2541 44.0284C16.292 44.06 16.325 44.049 16.3531 43.9954C16.4082 43.9954 16.4631 43.9954 16.5182 43.9954C17.7757 43.5905 19.0408 43.2715 20.3135 43.0383C20.3991 43.0416 20.4871 43.0526 20.5776 43.0713C20.6106 43.0492 20.6436 43.0273 20.6766 43.0053C20.7756 43.0162 20.8746 43.0273 20.9736 43.0383C21.0299 42.9966 21.0849 42.9855 21.1386 43.0053C21.3868 42.9224 21.6454 42.8729 21.9142 42.8567C23.8464 42.6869 25.7826 42.6319 27.7228 42.6917C27.8968 42.7453 28.0728 42.8003 28.2508 42.8567C28.3333 42.9613 28.4268 43.0548 28.5314 43.1373C28.5489 43.2285 28.5764 43.3165 28.6139 43.4013C28.5753 43.4477 28.5863 43.4862 28.6469 43.5168C28.6359 43.5278 28.6249 43.5388 28.6139 43.5498C28.6549 43.5879 28.6879 43.6319 28.7129 43.6818C28.7507 43.9683 28.7507 44.2543 28.7129 44.5399C28.6253 44.682 28.5538 44.8305 28.4984 44.9854C28.3665 45.0377 28.2399 45.1037 28.1188 45.1835C27.9351 45.2317 27.7481 45.2592 27.5578 45.266C26.8084 45.2704 26.0603 45.3034 25.3135 45.365C24.4067 45.485 23.4991 45.6005 22.5908 45.7115C22.5306 45.6872 22.4646 45.6761 22.3927 45.6785C22.3414 45.7328 22.2864 45.7438 22.2277 45.7115C22.1221 45.722 22.0176 45.7605 21.9142 45.827C21.5849 45.8764 21.2549 45.9205 20.9241 45.959C20.0247 46.2088 19.1116 46.4453 18.1848 46.6686C17.2303 47.0001 16.2732 47.3576 15.3135 47.7412C15.1777 47.8306 15.0347 47.9076 14.8845 47.9722C14.8664 48.0028 14.8445 48.0303 14.8185 48.0548C14.5156 48.1548 14.2405 48.3033 13.9934 48.5003C13.8447 48.539 13.7072 48.5995 13.5809 48.6818C13.5699 48.6708 13.5589 48.6598 13.5479 48.6488C13.0655 48.9932 12.5539 49.2902 12.0132 49.5399C11.8033 49.7003 11.5888 49.8543 11.3696 50.002C11.3587 49.991 11.3476 49.9799 11.3366 49.9689C11.3284 50.006 11.3119 50.039 11.2871 50.068C11.2198 50.0922 11.1538 50.1197 11.0891 50.1505C10.9461 50.2495 10.8251 50.3705 10.7261 50.5135C10.5515 50.6079 10.3865 50.7179 10.231 50.8435C10.0779 50.9747 9.93489 51.1177 9.80199 51.2726C9.57037 51.3997 9.36136 51.5592 9.17492 51.7511C9.12205 51.7165 9.09456 51.7385 9.09242 51.8171C8.91737 51.9731 8.74687 52.1326 8.58086 52.2957C8.44595 52.3535 8.34146 52.447 8.26733 52.5762C8.25634 52.5652 8.24532 52.5542 8.23433 52.5432C7.93697 52.8625 7.63994 53.1816 7.34324 53.5003C7.26489 53.6075 7.19341 53.7175 7.12872 53.8303C6.88446 54.0881 6.64793 54.3521 6.41915 54.6224C6.25126 54.9528 6.04773 55.2554 5.80859 55.53C5.84519 55.5898 5.82318 55.6173 5.74258 55.6125C5.72364 55.7269 5.66311 55.815 5.56106 55.8765C5.50879 56.0416 5.42628 56.1901 5.31354 56.3221C5.31354 56.3661 5.31354 56.4101 5.31354 56.4541C5.14245 56.6796 5.01044 56.9382 4.9175 57.2297C4.87872 57.2224 4.84572 57.2334 4.81849 57.2627C4.79776 57.3207 4.76476 57.3702 4.71948 57.4112C4.73456 57.4247 4.74558 57.4412 4.75248 57.4607C4.72783 57.4686 4.70034 57.4795 4.66997 57.4937C4.60367 57.6703 4.53766 57.8462 4.47195 58.0218C4.32842 58.3056 4.20743 58.6356 4.10892 59.0119C4.01014 59.2198 3.91113 59.4287 3.81189 59.6389C3.68232 60.1561 3.52281 60.6511 3.33334 61.1241C3.37199 61.1963 3.36097 61.268 3.30034 61.3386C3.31499 61.3891 3.32598 61.4386 3.33334 61.4871C3.31991 61.6003 3.28691 61.7049 3.23433 61.8006C3.25278 61.8244 3.26377 61.8521 3.26733 61.8831C3.19196 62.1805 3.12044 62.4775 3.05281 62.7742C3.02446 63.4904 2.98047 64.2056 2.9208 64.9194C2.88126 65.5449 2.90875 66.1663 3.00331 66.7841C2.9946 66.963 2.9946 67.1445 3.00331 67.3287C2.99027 67.5353 3.01229 67.7333 3.06931 67.9227C3.12615 68.2016 3.19215 68.4821 3.26733 68.7643C3.23502 68.8231 3.24601 68.8782 3.30034 68.9293C3.26073 68.9854 3.27172 69.035 3.33334 69.0779C3.31677 69.1181 3.30578 69.1564 3.30034 69.1934C3.3308 69.3861 3.39133 69.5676 3.48186 69.7379C3.48433 69.9072 3.52285 70.0666 3.59737 70.2165C3.58638 70.2274 3.57535 70.2386 3.56436 70.2495C3.59268 70.3445 3.64219 70.427 3.71288 70.497C3.72146 70.6264 3.75446 70.7475 3.81189 70.86C3.91984 71.1171 4.04087 71.3703 4.17493 71.6191C4.194 71.7313 4.23252 71.8359 4.29044 71.9326C4.27945 71.9435 4.26842 71.9548 4.25743 71.9656C4.63278 72.5498 4.99034 73.1495 5.33004 73.7643C5.89707 74.4937 6.50763 75.1924 7.16172 75.86C7.66648 76.2666 8.17252 76.6739 8.67988 77.0812C8.92185 77.2023 9.14189 77.3564 9.33994 77.5432C9.44384 77.5788 9.54285 77.6227 9.63697 77.6752C9.81799 77.7934 9.99403 77.9198 10.165 78.0548C10.5141 78.2168 10.8607 78.3818 11.2046 78.5498C11.3293 78.6627 11.4778 78.7343 11.6502 78.7643C11.6832 78.7973 11.7162 78.8303 11.7492 78.8633C11.9269 78.8967 12.081 78.9736 12.2112 79.0944C12.8089 79.2759 13.4029 79.4739 13.9934 79.6884C14.7288 79.8934 15.4714 80.0637 16.2211 80.2C16.2321 80.1891 16.2431 80.1779 16.2541 80.167C17.1565 80.3584 18.0641 80.529 18.9769 80.6785C20.1644 80.7772 21.3525 80.8762 22.5413 80.9755C23.8512 81.0062 25.1603 80.9897 26.4687 80.926C26.5215 80.9277 26.571 80.9386 26.6172 80.959C28.0811 80.8194 29.5497 80.693 31.0231 80.5795C31.0601 80.5452 31.1043 80.5231 31.1551 80.5135C31.5439 80.4973 31.9178 80.4204 32.2772 80.2825C32.8756 80.2095 33.4696 80.1105 34.0594 79.9854C34.1294 79.9587 34.1954 79.9257 34.2574 79.8864C34.8165 79.799 35.3554 79.6449 35.8746 79.4244C36.1165 79.3693 36.3587 79.3145 36.6007 79.2594C36.6564 79.2128 36.7168 79.1746 36.7822 79.1439C36.7931 79.1548 36.8043 79.166 36.8152 79.1769C36.9135 79.13 37.0182 79.1026 37.1287 79.0944C37.3314 78.9769 37.5512 78.9056 37.7888 78.8798C37.7842 78.8264 37.8063 78.7878 37.8548 78.7643C38.1571 78.6782 38.4541 78.5792 38.7459 78.4673C38.9498 78.3482 39.1644 78.2544 39.3894 78.1868C39.4003 78.1977 39.4116 78.2089 39.4224 78.2198C39.6409 78.1188 39.8554 78.0142 40.066 77.9062C40.2201 77.8623 40.3739 77.8181 40.5281 77.7742C41.2944 77.368 42.0647 76.9831 42.8383 76.6191C43.0079 76.5036 43.1786 76.3881 43.3498 76.2726C43.3607 76.2835 43.372 76.2947 43.3828 76.3056C43.4132 76.2353 43.4571 76.2132 43.5149 76.2396C43.7465 76.0881 43.9832 75.9505 44.2244 75.827C44.5984 75.5033 45.0056 75.2227 45.4455 74.9854C45.4779 74.9366 45.5165 74.8927 45.5611 74.8534C45.5719 74.8643 45.5832 74.8755 45.5941 74.8864C45.6106 74.8214 45.6158 74.7554 45.6106 74.6884C45.6766 74.6775 45.7426 74.6663 45.8086 74.6554C45.8116 74.5835 45.8333 74.5175 45.8746 74.4574C45.9591 74.3878 46.0195 74.3 46.0561 74.1934C46.0941 74.1524 46.1383 74.1194 46.1881 74.0944C46.3251 73.798 46.4571 73.501 46.5842 73.2033C46.6492 72.8802 46.7261 72.561 46.8152 72.2462C46.9073 71.4227 46.9238 70.5977 46.8647 69.7709C46.8703 69.5066 46.8647 69.2425 46.8482 68.9788C46.8413 68.9274 46.8248 68.8835 46.7987 68.8468C46.6832 67.2851 46.5842 65.7175 46.5017 64.1439C46.5023 64.031 46.5132 63.9211 46.5347 63.8138C46.5125 63.7917 46.4908 63.7699 46.4687 63.7478C46.5063 63.1287 46.5063 62.5234 46.4687 61.9326C46.2149 58.3346 46.0719 54.7316 46.0396 51.1241C46.0432 48.7094 46.0706 46.2561 46.1221 43.7643C46.1967 42.5332 46.3122 41.3066 46.4687 40.0845C46.4663 39.9935 46.4554 39.9055 46.4356 39.8204C46.4578 39.7984 46.4795 39.7764 46.5017 39.7544C46.5036 39.6172 46.4927 39.4852 46.4687 39.3584C46.4908 39.3364 46.5125 39.3144 46.5347 39.2924C46.5069 39.1742 46.496 39.0587 46.5017 38.9458C46.5264 38.8377 46.5429 38.7277 46.5512 38.6158C46.7155 37.8805 46.8693 37.1434 47.0132 36.4046C47.13 36.2246 47.2069 36.0265 47.2442 35.8105C47.3568 35.6723 47.4446 35.5183 47.5083 35.3485C47.5871 35.2505 47.6696 35.157 47.7558 35.068C47.7449 35.057 47.7337 35.0459 47.7228 35.035C47.8069 35.0167 47.8729 34.9727 47.9208 34.9029C48.0314 34.8947 48.136 34.8672 48.2343 34.8204C48.629 34.9619 48.9205 35.2205 49.1089 35.596C49.098 35.607 49.0868 35.618 49.0759 35.629C49.2663 35.8706 49.3927 36.1401 49.4554 36.4376C49.7997 37.1714 50.0416 37.9085 50.1815 38.6488C50.2327 38.9779 50.2766 39.308 50.3135 39.6389C50.3531 39.7244 50.3861 39.8124 50.4125 39.9029C50.4687 40.2645 50.5125 40.6275 50.5446 40.9921C50.5518 41.0542 50.5736 41.1092 50.6106 41.1571C50.6376 41.4725 50.665 41.786 50.6931 42.0977C50.6822 42.1087 50.671 42.1197 50.6601 42.1307C50.7043 42.4775 50.7591 42.8241 50.8251 43.1703C50.8132 43.1928 50.802 43.2148 50.7921 43.2363ZM104.587 73.7313C104.56 73.5016 104.549 73.2706 104.554 73.0383C104.673 72.5518 104.799 72.0346 104.934 71.4871C105.279 70.7716 105.598 70.0564 105.891 69.3419C106.12 68.9637 106.373 68.6006 106.65 68.2528C106.757 67.9808 106.905 67.7333 107.096 67.5102C107.085 67.4993 107.074 67.4881 107.063 67.4772C107.11 67.4617 107.149 67.4343 107.178 67.3947C107.402 66.9564 107.683 66.5604 108.02 66.2066C108.206 65.8498 108.448 65.5363 108.746 65.266C108.966 65.1122 109.186 64.9584 109.406 64.8039C109.568 64.7432 109.722 64.7541 109.868 64.8369C110.032 65.0161 110.158 65.2198 110.248 65.4475C110.382 65.8581 110.508 66.2706 110.627 66.6851C110.686 66.9274 110.741 67.1696 110.792 67.4112C110.781 67.4221 110.77 67.4333 110.759 67.4442C110.792 67.4772 110.825 67.5102 110.858 67.5432C110.813 67.6072 110.824 67.662 110.891 67.7082C110.871 67.7544 110.86 67.8039 110.858 67.8567C111.135 69.4567 111.146 71.0574 110.891 72.6587C110.896 72.6841 110.907 72.7062 110.924 72.7247C110.853 72.793 110.842 72.8703 110.891 72.9557C110.781 73.1887 110.698 73.4475 110.644 73.7313C110.529 73.9056 110.441 74.0927 110.38 74.2924C110.253 74.5059 110.121 74.7148 109.983 74.9194C109.954 74.959 109.915 74.9864 109.868 75.0019C109.868 75.035 109.868 75.068 109.868 75.101C109.7 75.2402 109.546 75.3944 109.406 75.563C109.215 75.6831 109.027 75.8095 108.845 75.9425C108.242 76.2878 107.593 76.3868 106.898 76.2396C106.857 76.2561 106.819 76.267 106.782 76.2726C105.59 75.8241 104.858 74.9769 104.587 73.7313ZM67.1617 75.5135C66.9498 75.5231 66.7406 75.5122 66.5347 75.4805C66.0406 75.4495 65.5898 75.2901 65.1815 75.0019C64.9373 74.8218 64.7007 74.629 64.4719 74.4244C64.3812 74.3227 64.304 74.2128 64.2409 74.0944C64.1858 74.0505 64.131 74.0062 64.0759 73.9623C63.9934 73.797 63.8944 73.6432 63.7789 73.5003C63.5931 73.1066 63.4063 72.7105 63.2178 72.3122C63.0059 71.227 62.9842 70.1379 63.1518 69.0449C63.2743 68.7085 63.3677 68.362 63.4323 68.0052C63.5878 67.6653 63.7307 67.3188 63.8614 66.9656C64.0614 66.6944 64.2538 66.4194 64.4389 66.1406C64.671 65.8957 64.9185 65.6703 65.1815 65.464C65.5449 65.2548 65.9079 65.0458 66.2706 64.8369C66.8795 64.7257 67.4683 64.7861 68.0363 65.0185C68.1842 65.1227 68.3436 65.2052 68.5149 65.266C68.9667 65.6419 69.3462 66.0762 69.6535 66.5696C69.7528 66.8227 69.8518 67.0759 69.9505 67.3287C69.9779 67.3782 70.0165 67.4168 70.066 67.4442C70.0366 67.5392 70.064 67.6217 70.1485 67.6917C70.4294 68.6287 70.6109 69.5858 70.6931 70.563C70.669 71.1155 70.6195 71.6653 70.5446 72.2132C70.4373 72.4432 70.3604 72.6851 70.3135 72.9392C70.1802 73.2389 70.0373 73.5359 69.8845 73.8303C69.7832 73.9333 69.7063 74.0544 69.6535 74.1934C69.4508 74.3521 69.2693 74.5336 69.1089 74.7379C69.065 74.76 69.0208 74.7818 68.9769 74.8039C68.9878 74.8148 68.999 74.826 69.0099 74.8369C68.7284 75.0307 68.4314 75.1957 68.1188 75.332C67.8148 75.4 67.5066 75.4439 67.1947 75.464C67.1762 75.4765 67.1653 75.493 67.1617 75.5135Z" fill="#010000"/>
<path opacity="0.529" fill-rule="evenodd" clip-rule="evenodd" d="M50.792 43.2363C50.8125 43.24 50.829 43.251 50.8415 43.2693C50.858 43.434 50.8636 43.599 50.858 43.7644C50.8329 43.5928 50.8108 43.4168 50.792 43.2363Z" fill="#380B26"/>
<path opacity="0.267" fill-rule="evenodd" clip-rule="evenodd" d="M50.8579 43.7644C50.9233 44.583 50.9563 45.4081 50.9569 46.2397C50.911 45.4203 50.878 44.5952 50.8579 43.7644Z" fill="#41132F"/>
<path opacity="0.988" fill-rule="evenodd" clip-rule="evenodd" d="M48.4819 45.9756C48.5499 46.5956 48.5885 47.2227 48.5974 47.8568C48.6195 50.255 48.6195 52.6532 48.5974 55.0515C48.5743 55.9548 48.5301 56.8568 48.4654 57.7578C48.4185 54.0475 48.402 50.3401 48.4159 46.6357C48.4393 46.4157 48.4611 46.1957 48.4819 45.9756Z" fill="#C8C0C8"/>
<path opacity="0.267" fill-rule="evenodd" clip-rule="evenodd" d="M92.6071 55.0184C92.384 54.9191 92.153 54.8971 91.9141 54.9524C91.9774 54.9073 92.0487 54.8743 92.1286 54.8534C92.2537 54.8808 92.3804 54.9083 92.5081 54.9359C92.5556 54.9483 92.5886 54.9758 92.6071 55.0184Z" fill="#755367"/>
<path fill-rule="evenodd" clip-rule="evenodd" d="M92.6072 55.0184C92.6967 55.0246 92.7736 55.0576 92.8382 55.1174C92.8633 55.1756 92.9075 55.2086 92.9703 55.2165C92.9703 55.2604 92.9924 55.2825 93.0363 55.2825C93.0363 55.3265 93.0584 55.3485 93.1023 55.3485C93.2835 55.5329 93.4372 55.7529 93.5643 56.0085C93.5835 56.1433 93.6273 56.2642 93.6963 56.3716C93.7264 56.5675 93.7815 56.7655 93.8613 56.9656C93.9036 57.02 93.9366 57.0805 93.9604 57.1471C93.9495 57.2241 93.9382 57.3012 93.9273 57.3782C93.9495 57.4112 93.9712 57.4442 93.9934 57.4772C93.9782 57.558 93.9673 57.6405 93.9604 57.7247C93.9818 58.0392 94.0039 58.3528 94.0264 58.6653C93.9957 58.6782 93.9739 58.7 93.9604 58.7313C93.992 58.8108 93.9811 58.8877 93.9273 58.9623C93.9402 59.0567 93.9402 59.1557 93.9273 59.2594C93.8745 59.3924 93.8085 59.5191 93.7293 59.6389C93.6947 59.6627 93.6726 59.6957 93.6633 59.7379C93.5983 59.8277 93.5488 59.9267 93.5148 60.0349C93.3534 60.2006 93.2049 60.3769 93.0693 60.563C92.9917 60.6297 92.9145 60.6957 92.8382 60.761C92.7666 60.7693 92.7115 60.8023 92.6732 60.86C92.6227 60.8577 92.5897 60.8795 92.5742 60.926C92.5508 60.9557 92.5178 60.967 92.4752 60.959C92.4033 60.9042 92.3429 60.9151 92.2937 60.992C92.2264 60.9254 92.1604 60.9145 92.0957 60.959C92.03 60.897 91.964 60.8858 91.8976 60.926C91.7637 60.8726 91.6369 60.8066 91.5181 60.728C91.3277 60.565 91.1518 60.3835 90.9901 60.1835C90.8112 59.7534 90.6349 59.3188 90.462 58.8798C90.4656 58.8488 90.4765 58.8211 90.495 58.7973C90.462 58.7643 90.429 58.7313 90.396 58.6983C90.4227 58.3874 90.4336 58.0851 90.429 57.7907C90.4613 57.6653 90.4726 57.5333 90.462 57.3947C90.462 57.3838 90.462 57.3727 90.462 57.3617C90.4937 57.3034 90.5046 57.2374 90.495 57.1637C90.495 57.1527 90.495 57.1416 90.495 57.1306C90.5531 57.02 90.5861 56.8989 90.594 56.7676C90.6023 56.6569 90.6353 56.5579 90.693 56.4706C90.7336 56.3772 90.7666 56.2782 90.792 56.1736C90.792 56.1626 90.792 56.1515 90.792 56.1405C90.8217 56.1171 90.833 56.0841 90.825 56.0415C90.8749 55.9088 90.9465 55.7877 91.0396 55.6785C91.2115 55.4969 91.393 55.3429 91.5841 55.2165C91.6306 55.2008 91.6524 55.1678 91.6501 55.1174C91.6458 55.0885 91.6567 55.0665 91.6831 55.0514C91.7544 55.0013 91.8316 54.9683 91.9141 54.9524C92.1531 54.8971 92.3841 54.9191 92.6072 55.0184Z" fill="#E20C91"/>
<path opacity="0.925" fill-rule="evenodd" clip-rule="evenodd" d="M97.3929 54.9854C97.3048 54.9854 97.217 54.9854 97.1289 54.9854C97.1385 54.9475 97.1659 54.9255 97.2114 54.9194C97.2811 54.9261 97.3414 54.948 97.3929 54.9854Z" fill="#836477"/>
<path opacity="0.267" fill-rule="evenodd" clip-rule="evenodd" d="M97.1287 54.9855C97.0706 55.0172 97.0046 55.0282 96.9307 55.0185C96.9947 54.9747 97.0607 54.9637 97.1287 54.9855Z" fill="#512740"/>
<path fill-rule="evenodd" clip-rule="evenodd" d="M97.129 54.9855C97.2171 54.9855 97.3049 54.9855 97.393 54.9855C97.5352 54.9871 97.6673 55.0256 97.789 55.101C98.2408 55.3975 98.5214 55.7991 98.6306 56.3056C98.6851 56.3435 98.7346 56.3875 98.7791 56.4376C98.7329 56.4819 98.7438 56.5094 98.8121 56.5201C98.8012 56.5311 98.79 56.5421 98.7791 56.5531C98.9283 56.8468 99.0108 57.1603 99.0267 57.4937C99.0814 58.2201 98.9933 58.9132 98.7626 59.5729C98.7405 59.5977 98.7131 59.6089 98.6801 59.6059C98.6247 59.6284 98.6029 59.6726 98.6141 59.7379C98.5319 59.9218 98.4442 60.1033 98.3501 60.2825C98.361 60.2934 98.3722 60.3046 98.3831 60.3155C98.3115 60.3947 98.2346 60.4716 98.1521 60.5465C98.194 60.5789 98.194 60.6063 98.1521 60.629C98.1412 60.5851 98.13 60.5851 98.1191 60.629C98.0781 60.7135 98.0121 60.7739 97.921 60.8106C97.9362 60.8241 97.9471 60.8406 97.9541 60.8601C97.9286 60.9 97.9009 60.9 97.8715 60.8601C97.8593 60.8904 97.8428 60.9178 97.822 60.9426C97.3795 61.0205 96.9613 60.9544 96.5679 60.7445C96.4857 60.6954 96.4144 60.635 96.3534 60.563C96.3425 60.5739 96.3313 60.5851 96.3204 60.596C96.2673 60.466 96.1791 60.367 96.0564 60.299C96.0405 60.2677 96.0349 60.2346 96.0399 60.2C96.0243 60.1535 95.9913 60.1317 95.9409 60.134C95.8643 59.8845 95.7709 59.6647 95.6603 59.4739C95.6006 58.8762 95.529 58.2931 95.4458 57.7247C95.4996 57.2897 95.5821 56.8496 95.6933 56.4046C95.7851 56.2248 95.8623 56.0378 95.9243 55.8436C96.0702 55.6424 96.2296 55.4499 96.4029 55.266C96.5577 55.1391 96.7339 55.0566 96.9309 55.0185C97.0049 55.0282 97.0709 55.0172 97.129 54.9855Z" fill="#E10C90"/>
<path opacity="0.925" fill-rule="evenodd" clip-rule="evenodd" d="M92.8384 55.1174C92.9011 55.1253 92.9453 55.1583 92.9704 55.2164C92.9077 55.2086 92.8635 55.1756 92.8384 55.1174Z" fill="#B1A0AE"/>
<path opacity="0.925" fill-rule="evenodd" clip-rule="evenodd" d="M91.6502 55.1174C91.6525 55.1678 91.6307 55.2008 91.5842 55.2164C91.5818 55.166 91.6036 55.133 91.6502 55.1174Z" fill="#826576"/>
<path opacity="0.988" fill-rule="evenodd" clip-rule="evenodd" d="M92.9702 55.2166C93.0032 55.2275 93.0253 55.2496 93.0362 55.2826C92.9923 55.2826 92.9702 55.2605 92.9702 55.2166Z" fill="#C5BCC5"/>
<path opacity="0.988" fill-rule="evenodd" clip-rule="evenodd" d="M93.0361 55.2825C93.0691 55.2935 93.0912 55.3155 93.1021 55.3485C93.0582 55.3485 93.0361 55.3265 93.0361 55.2825Z" fill="#C5BCC5"/>
<path opacity="0.925" fill-rule="evenodd" clip-rule="evenodd" d="M90.8253 56.0415C90.8332 56.0841 90.822 56.1171 90.7923 56.1405C90.7778 56.1427 90.7669 56.1372 90.7593 56.124C90.7781 56.0912 90.7999 56.0637 90.8253 56.0415Z" fill="#6A475C"/>
<path opacity="0.925" fill-rule="evenodd" clip-rule="evenodd" d="M93.5645 56.0085C93.5965 56.0663 93.6407 56.1158 93.6965 56.1571C93.7103 56.2259 93.7103 56.2974 93.6965 56.3716C93.6275 56.2643 93.5836 56.1433 93.5645 56.0085Z" fill="#967C8D"/>
<path opacity="0.925" fill-rule="evenodd" clip-rule="evenodd" d="M90.7923 56.1736C90.7669 56.2782 90.7339 56.3772 90.6933 56.4706C90.6814 56.3524 90.7144 56.2534 90.7923 56.1736Z" fill="#775669"/>
<path opacity="0.267" fill-rule="evenodd" clip-rule="evenodd" d="M93.6963 56.3716C93.7323 56.3755 93.754 56.3976 93.7623 56.4376C93.7897 56.6078 93.8336 56.7728 93.8943 56.9326C93.8903 56.9527 93.8791 56.9637 93.8613 56.9656C93.7814 56.7655 93.7263 56.5675 93.6963 56.3716Z" fill="#6C475D"/>
<path opacity="0.925" fill-rule="evenodd" clip-rule="evenodd" d="M90.5941 56.7676C90.5861 56.8989 90.5531 57.0199 90.4951 57.1306C90.4776 57.0624 90.4776 56.9964 90.4951 56.9326C90.5347 56.8783 90.5677 56.8233 90.5941 56.7676Z" fill="#816275"/>
<path opacity="0.925" fill-rule="evenodd" clip-rule="evenodd" d="M90.4952 57.1637C90.5048 57.2375 90.4939 57.3035 90.4622 57.3617C90.4474 57.3166 90.4361 57.2671 90.4292 57.2132C90.447 57.1895 90.4691 57.173 90.4952 57.1637Z" fill="#917687"/>
<path opacity="0.925" fill-rule="evenodd" clip-rule="evenodd" d="M90.462 57.3947C90.4726 57.5333 90.4613 57.6653 90.429 57.7907C90.4214 57.6857 90.4105 57.5811 90.396 57.4772C90.4148 57.4445 90.4366 57.4168 90.462 57.3947Z" fill="#947A8C"/>
<path opacity="0.267" fill-rule="evenodd" clip-rule="evenodd" d="M98.6797 59.606C98.6635 59.6555 98.6414 59.6994 98.6137 59.738C98.6025 59.6726 98.6243 59.6284 98.6797 59.606Z" fill="#3D142C"/>
<path opacity="0.267" fill-rule="evenodd" clip-rule="evenodd" d="M93.7291 59.6389C93.7585 59.6894 93.7364 59.7224 93.6631 59.7379C93.6723 59.6957 93.6944 59.6627 93.7291 59.6389Z" fill="#41132F"/>
<path opacity="0.267" fill-rule="evenodd" clip-rule="evenodd" d="M95.9404 60.134C95.9909 60.1316 96.0239 60.1534 96.0394 60.2C95.986 60.2326 95.953 60.2105 95.9404 60.134Z" fill="#5B183F"/>
<path fill-rule="evenodd" clip-rule="evenodd" d="M98.1187 60.629C98.1295 60.629 98.1408 60.629 98.1517 60.629C98.1454 60.6511 98.1345 60.6511 98.1187 60.629Z" fill="#E30B91"/>
<path opacity="0.267" fill-rule="evenodd" clip-rule="evenodd" d="M92.8384 60.761C92.8087 60.8346 92.7535 60.8676 92.6733 60.86C92.7116 60.8022 92.7667 60.7692 92.8384 60.761Z" fill="#785D6E"/>
<path opacity="0.267" fill-rule="evenodd" clip-rule="evenodd" d="M92.6732 60.86C92.6577 60.9066 92.6247 60.9283 92.5742 60.926C92.5897 60.8795 92.6227 60.8577 92.6732 60.86Z" fill="#4E263E"/>
<path opacity="0.988" fill-rule="evenodd" clip-rule="evenodd" d="M91.5184 60.728C91.6372 60.8066 91.7639 60.8726 91.8979 60.926C91.9643 60.8858 92.0303 60.897 92.0959 60.9591C92.1606 60.9145 92.2266 60.9254 92.294 60.9921C92.3431 60.9152 92.4035 60.9043 92.4755 60.9591C92.4798 60.9835 92.4742 61.0056 92.459 61.0251C92.2933 61.0043 92.1339 61.0043 91.9804 61.0251C91.9577 61.0076 91.9412 60.9858 91.9309 60.9591C91.92 60.9699 91.9088 60.9812 91.8979 60.9921C91.8012 60.9402 91.6966 60.9128 91.5844 60.9095C91.4973 60.863 91.4755 60.8026 91.5184 60.728Z" fill="#A18C9A"/>
<path opacity="0.529" fill-rule="evenodd" clip-rule="evenodd" d="M3.00315 67.3287C3.03579 67.5208 3.0578 67.7188 3.06916 67.9228C3.01213 67.7334 2.99011 67.5353 3.00315 67.3287Z" fill="#310520"/>
<path opacity="0.529" fill-rule="evenodd" clip-rule="evenodd" d="M95.6437 68.1868C95.6737 68.3792 95.6959 68.5772 95.7097 68.7808C95.6836 68.7442 95.6671 68.7003 95.6602 68.6488C95.6437 68.4953 95.6381 68.3412 95.6437 68.1868Z" fill="#340723"/>
<path opacity="0.267" fill-rule="evenodd" clip-rule="evenodd" d="M61.3202 68.3848C61.3324 68.5633 61.2994 68.7283 61.2212 68.8798C61.2466 68.7098 61.2796 68.5448 61.3202 68.3848Z" fill="#3F122D"/>
<path opacity="0.529" fill-rule="evenodd" clip-rule="evenodd" d="M46.7988 68.8468C46.8249 68.8834 46.8414 68.9273 46.8483 68.9788C46.8648 69.2425 46.8704 69.5065 46.8648 69.7709C46.8381 69.4679 46.816 69.16 46.7988 68.8468Z" fill="#310520"/>
<path opacity="0.267" fill-rule="evenodd" clip-rule="evenodd" d="M104.554 73.0383C104.549 73.2707 104.56 73.5017 104.587 73.7314C104.536 73.6093 104.514 73.4773 104.521 73.3354C104.521 73.2301 104.533 73.1311 104.554 73.0383Z" fill="#41132F"/>
<path opacity="0.529" fill-rule="evenodd" clip-rule="evenodd" d="M66.5347 75.4805C66.7406 75.5122 66.9498 75.523 67.1617 75.5135C67.0634 75.5353 66.9588 75.5465 66.8482 75.5465C66.73 75.5458 66.6258 75.524 66.5347 75.4805Z" fill="#380A26"/>
</g>
</svg>
