<svg width="372" height="70" viewBox="0 0 372 70" fill="none" xmlns="http://www.w3.org/2000/svg">
<g filter="url(#filter0_d_4_30)">
<path d="M10 6.00337V22.588H28.8677L16.6014 55.9966H36.1629C36.1629 51.236 39.3727 48.6568 39.3727 48.6568C39.3727 52.6251 42.1075 55.9966 42.1075 55.9966H61.531L50.0359 22.6655H68.0717V6.00337H10Z" fill="#9F5DE9"/>
<path d="M25.1966 32.588L16.6014 56H36.1629C36.1629 51.2394 39.3727 48.6602 39.3727 48.6602C39.3727 52.6285 42.1075 56 42.1075 56H61.531L50.0594 22.7363C41.0196 24.3446 32.6063 27.7599 25.2 32.588H25.1966Z" fill="#38A2F5"/>
<path d="M68.0683 21.9676C66.0509 21.7856 64.0132 21.6878 61.9486 21.6878C58.0316 21.6878 54.1954 22.025 50.4636 22.6655H68.0683V21.9676Z" fill="#38A2F5"/>
<path d="M36.0383 29.8031C36.0383 36.5293 37.0251 43.0229 38.854 49.1524C39.1638 48.8254 39.3727 48.6568 39.3727 48.6568C39.3727 52.6251 42.1075 55.9966 42.1075 55.9966H61.531L50.0359 22.6655H68.0717V6.00337H40.3561C37.5708 13.4073 36.0417 21.4248 36.0417 29.8031H36.0383Z" fill="#FF4979"/>
<path d="M61.9486 21.6878C58.0316 21.6878 54.1954 22.025 50.4636 22.6655H68.0683V21.9676C66.0509 21.7856 64.0132 21.6878 61.9486 21.6878Z" fill="#FBBF12"/>
<path d="M50.0561 22.7397C45.2061 23.6028 40.538 24.9852 36.1057 26.826C36.0619 27.8139 36.0383 28.8051 36.0383 29.8065C36.0383 36.5327 37.0251 43.0263 38.854 49.1558C39.1638 48.8287 39.3727 48.6601 39.3727 48.6601C39.3727 52.6285 42.1075 56 42.1075 56H61.531L50.0594 22.7397H50.0561Z" fill="#FBBF12"/>
<path d="M120.239 6.54619V16.1956H107.15V55.9966H95.1164V16.1956H82.0282V6.54619H120.239Z" fill="white"/>
<path d="M143.599 18.1342C145.711 16.8901 148.055 16.2664 150.635 16.2664V29.0175H147.328C144.323 29.0175 142.074 29.6649 140.571 30.9562C139.069 32.2475 138.318 34.5132 138.318 37.7532V56H126.284V16.6912H138.318V23.2421C139.726 21.0809 141.484 19.3783 143.596 18.1342H143.599Z" fill="white"/>
<path d="M195.181 16.2664V55.5752H183.147V50.2212C181.928 51.9609 180.274 53.3567 178.186 54.412C176.097 55.4673 173.787 55.9966 171.254 55.9966C168.25 55.9966 165.599 55.3291 163.302 53.9906C161.002 52.6521 159.22 50.7134 157.954 48.178C156.687 45.6426 156.054 42.6588 156.054 39.2299V16.2664H168.018V37.6116C168.018 40.2414 168.698 42.2846 170.059 43.7411C171.419 45.1976 173.248 45.9258 175.548 45.9258C177.849 45.9258 179.745 45.1976 181.109 43.7411C182.47 42.2846 183.15 40.2448 183.15 37.6116V16.2664H195.184H195.181Z" fill="white"/>
<path d="M240.643 38.6669H213.409C213.597 41.1079 214.382 42.9757 215.766 44.267C217.151 45.5583 218.851 46.2057 220.869 46.2057C223.87 46.2057 225.958 44.938 227.133 42.4026H239.942C239.285 44.9852 238.1 47.3115 236.389 49.3783C234.674 51.445 232.529 53.0668 229.949 54.2401C227.369 55.4134 224.483 56 221.293 56C217.447 56 214.022 55.1773 211.021 53.5354C208.016 51.8935 205.672 49.5435 203.985 46.4922C202.297 43.441 201.452 39.8705 201.452 35.7842C201.452 31.6979 202.284 28.1308 203.951 25.0762C205.615 22.025 207.949 19.675 210.953 18.033C213.954 16.3911 217.403 15.5684 221.297 15.5684C225.19 15.5684 228.474 16.3675 231.431 17.9622C234.385 19.5604 236.695 21.8361 238.362 24.7964C240.026 27.7566 240.861 31.2057 240.861 35.1504C240.861 36.2765 240.791 37.4531 240.649 38.6736L240.643 38.6669ZM228.538 31.9777C228.538 29.911 227.834 28.2691 226.426 27.0452C225.018 25.8247 223.26 25.2144 221.148 25.2144C219.037 25.2144 217.43 25.8011 216.046 26.9744C214.662 28.1477 213.806 29.8166 213.476 31.9744H228.534L228.538 31.9777Z" fill="white"/>
<path d="M264.498 18.1342C266.61 16.8901 268.954 16.2664 271.534 16.2664V29.0175H268.227C265.223 29.0175 262.973 29.6649 261.47 30.9562C259.968 32.2475 259.217 34.5132 259.217 37.7532V56H247.183V16.6912H259.217V23.2421C260.625 21.0809 262.383 19.3783 264.495 18.1342H264.498Z" fill="white"/>
<path d="M314.11 38.6669H286.876C287.064 41.1079 287.849 42.9757 289.233 44.267C290.617 45.5583 292.318 46.2057 294.336 46.2057C297.337 46.2057 299.425 44.938 300.6 42.4026H313.409C312.752 44.9852 311.567 47.3115 309.856 49.3783C308.141 51.445 305.996 53.0668 303.416 54.2401C300.836 55.4134 297.95 56 294.76 56C290.914 56 287.489 55.1773 284.488 53.5354C281.483 51.8935 279.139 49.5435 277.452 46.4922C275.764 43.441 274.919 39.8705 274.919 35.7842C274.919 31.6979 275.751 28.1308 277.418 25.0762C279.082 22.025 281.416 19.675 284.42 18.033C287.421 16.3911 290.87 15.5684 294.764 15.5684C298.657 15.5684 301.941 16.3675 304.898 17.9622C307.852 19.5604 310.162 21.8361 311.829 24.7964C313.493 27.7566 314.328 31.2057 314.328 35.1504C314.328 36.2765 314.258 37.4531 314.116 38.6736L314.11 38.6669ZM302.005 31.9777C302.005 29.911 301.301 28.2691 299.893 27.0452C298.485 25.8247 296.727 25.2144 294.615 25.2144C292.504 25.2144 290.897 25.8011 289.513 26.9744C288.128 28.1477 287.273 29.8166 286.943 31.9744H302.001L302.005 31.9777Z" fill="white"/>
<path d="M338.191 29.4693H332.331V55.9966H321.438V29.4693H317.488V20.4134H321.438V19.3918C321.438 15.0121 322.691 11.6878 325.197 9.412C327.703 7.13958 331.377 6 336.217 6C337.022 6 337.618 6.0236 338.002 6.06406V15.3122C335.921 15.1841 334.456 15.4808 333.607 16.2057C332.758 16.9305 332.334 18.2252 332.334 20.0964V20.4167H338.194V29.4727L338.191 29.4693Z" fill="white"/>
<path d="M361.491 29.4693H355.631V55.9966H344.739V29.4693H340.788V20.4134H344.739V19.3918C344.739 15.0121 345.991 11.6878 348.497 9.412C351.003 7.13958 354.678 6 359.517 6C360.322 6 360.919 6.0236 361.303 6.06406V15.3122C359.221 15.1841 357.756 15.4808 356.907 16.2057C356.058 16.9305 355.634 18.2252 355.634 20.0964V20.4167H361.494V29.4727L361.491 29.4693Z" fill="white"/>
</g>
<defs>
<filter id="filter0_d_4_30" x="0" y="0" width="371.494" height="70" filterUnits="userSpaceOnUse" color-interpolation-filters="sRGB">
<feFlood flood-opacity="0" result="BackgroundImageFix"/>
<feColorMatrix in="SourceAlpha" type="matrix" values="0 0 0 0 0 0 0 0 0 0 0 0 0 0 0 0 0 0 127 0" result="hardAlpha"/>
<feOffset dy="4"/>
<feGaussianBlur stdDeviation="5"/>
<feComposite in2="hardAlpha" operator="out"/>
<feColorMatrix type="matrix" values="0 0 0 0 0 0 0 0 0 0 0 0 0 0 0 0 0 0 0.1 0"/>
<feBlend mode="normal" in2="BackgroundImageFix" result="effect1_dropShadow_4_30"/>
<feBlend mode="normal" in="SourceGraphic" in2="effect1_dropShadow_4_30" result="shape"/>
</filter>
</defs>
</svg>
