<svg width="121" height="120" viewBox="0 0 121 120" fill="none" xmlns="http://www.w3.org/2000/svg">
<g style="mix-blend-mode:luminosity" opacity="0.7">
<path fill-rule="evenodd" clip-rule="evenodd" d="M64.5978 43.3336C68.4993 43.1866 71.955 44.327 74.965 46.7548C75.0051 46.8165 75.0279 46.8857 75.0341 46.9622C74.645 48.3829 74.242 49.7997 73.8246 51.2127C72.4264 49.0702 70.6412 47.3308 68.4682 45.9946C65.5439 44.335 62.572 44.2198 59.5524 45.649C57.0956 47.25 55.4483 49.4732 54.6107 52.3186C53.6291 55.9858 53.6521 59.6489 54.6798 63.3078C55.3957 66.0061 56.5707 68.4714 58.2046 70.7031C60.6805 73.5679 63.8251 74.7775 67.6388 74.3317C70.6128 73.8527 73.0892 72.4822 75.0687 70.2193C75.5988 69.5745 76.1282 68.929 76.6583 68.2841C77.6681 66.8362 78.7048 65.4082 79.7685 63.999C80.6262 62.9657 81.674 62.1937 82.9132 61.6836C84.4247 61.2378 85.9218 61.2842 87.4057 61.8219C88.1708 62.1128 88.9082 62.4356 89.6173 62.7895C87.8687 57.4743 86.1063 52.164 84.3301 46.8585C83.3846 49.8917 82.4052 52.9097 81.3927 55.9125C81.1155 55.8432 80.8391 55.7741 80.5633 55.7052C81.6532 52.2332 82.7591 48.7659 83.8808 45.3034C83.6825 44.8436 83.5214 44.3713 83.397 43.8866C84.7268 43.864 86.0517 43.887 87.3711 43.9557C90.7515 53.9634 94.1264 63.9734 97.4964 73.9861C98.3742 74.7021 99.2727 75.3933 100.192 76.0595C97.4273 76.1058 94.6627 76.1058 91.8981 76.0595C92.4511 75.3912 93.004 74.7235 93.5569 74.0552C92.7718 71.8152 91.9997 69.569 91.2416 67.3165C90.4039 66.0379 89.4017 64.8975 88.2351 63.8953C85.6356 61.9421 83.1012 62.0112 80.6324 64.1027C80.0111 64.6908 79.4471 65.3239 78.9391 66.0033C77.6757 68.0464 76.2934 70.0044 74.7922 71.8781C71.1139 76.0167 66.5406 77.4792 61.0729 76.2669C56.8788 75.1362 53.8032 72.6363 51.8461 68.7679C49.7361 64.1269 49.3905 59.3578 50.8093 54.4611C52.737 48.9393 56.5038 45.3569 62.1096 43.7138C62.9411 43.5328 63.7705 43.4061 64.5978 43.3336Z" fill="#1A1B18"/>
<path fill-rule="evenodd" clip-rule="evenodd" d="M108.762 43.3336C111.496 43.2973 114.215 43.4816 116.918 43.8865C117.377 45.6469 117.85 47.3978 118.335 49.1392C116.688 47.7685 115.04 46.3976 113.393 45.0269C111.336 44.3559 109.24 44.1946 107.104 44.5431C104.483 45.3244 103.169 47.0983 103.164 49.8649C103.221 51.4191 103.797 52.7438 104.892 53.839C105.756 54.6861 106.7 55.4348 107.726 56.0853C109.865 57.3045 112.053 58.4333 114.291 59.4719C114.966 59.8274 115.634 60.1962 116.296 60.5777C120.293 62.9138 121.549 66.2894 120.063 70.7031C118.985 72.8401 117.361 74.418 115.19 75.4374C113.28 76.2965 111.276 76.6995 109.177 76.647C106.834 76.6539 104.507 76.4693 102.196 76.094C101.658 74.1097 101.105 72.1289 100.538 70.1502C100.56 70.1273 100.584 70.1038 100.607 70.081C102.427 71.6361 104.247 73.1912 106.067 74.7463C108.379 75.539 110.729 75.6773 113.117 75.161C115.451 74.4159 116.822 72.838 117.229 70.4266C117.56 68.9413 117.261 67.6053 116.33 66.418C115.63 65.6715 114.858 65.0149 114.015 64.4482C112.074 63.2712 110.069 62.2116 108.002 61.2689C105.539 60.0046 103.616 58.173 102.231 55.7743C101.394 54.0704 101.095 52.2734 101.332 50.3833C102.166 46.2898 104.642 43.9399 108.762 43.3336Z" fill="#1A1B18"/>
<path fill-rule="evenodd" clip-rule="evenodd" d="M0.942963 43.8866C2.31897 43.8641 3.6898 43.8871 5.0553 43.9557C9.39592 53.6368 13.7502 63.3127 18.118 72.984C18.9256 66.3614 20.3079 59.8649 22.2649 53.4936C23.0413 51.1117 24.0781 48.854 25.3751 46.7203C25.9419 45.9235 26.5985 45.2208 27.3449 44.6123C28.3722 43.9415 29.501 43.6996 30.7315 43.8866C32.3212 43.918 33.9108 43.9526 35.5004 43.9903C34.7759 44.611 34.0618 45.2446 33.3578 45.8909C33.2657 55.2906 33.2657 64.6902 33.3578 74.0898C34.0848 74.7595 34.822 75.4161 35.5695 76.0596C32.7358 76.1059 29.9021 76.1059 27.0684 76.0596C27.8189 75.4009 28.5676 74.7443 29.3146 74.0898C29.3492 65.2894 29.3607 56.4886 29.3492 47.6879C28.3569 47.5901 27.4814 47.855 26.7228 48.4827C25.6723 49.4884 24.8313 50.6518 24.2001 51.973C22.7634 55.1776 21.6575 58.4951 20.8826 61.9256C19.9688 65.973 19.22 70.0507 18.6364 74.1589C18.926 74.7975 19.2025 75.4424 19.4658 76.0941C18.0897 76.1169 16.7189 76.0934 15.3534 76.025C11.5676 67.5557 7.76626 59.1004 3.94946 50.6599C3.90336 58.4698 3.90336 66.2798 3.94946 74.0898C4.70171 74.7505 5.45043 75.4071 6.19569 76.0596C4.35261 76.1059 2.50959 76.1059 0.666504 76.0596C1.38917 75.441 2.1034 74.8072 2.80907 74.1589C2.88972 65.4968 2.9012 56.8342 2.84362 48.1717C2.16305 46.7634 1.52947 45.335 0.942963 43.8866Z" fill="#1A1B18"/>
<path fill-rule="evenodd" clip-rule="evenodd" d="M35.5693 43.8866C35.6615 43.9327 35.6615 43.9327 35.5693 43.8866V43.8866Z" fill="#1A1B18"/>
<path fill-rule="evenodd" clip-rule="evenodd" d="M38.6797 43.9557C41.5248 43.8752 44.3815 43.8637 47.2499 43.9211C46.4891 44.571 45.7403 45.2276 45.0037 45.8909C44.9576 55.2905 44.9576 64.6902 45.0037 74.0898C45.7432 74.754 46.4919 75.4106 47.2499 76.0596C44.3932 76.1059 41.5364 76.1059 38.6797 76.0596C39.4377 75.4106 40.1865 74.754 40.9259 74.0898C40.972 64.6902 40.972 55.2905 40.9259 45.8909C40.1922 45.2202 39.4434 44.5752 38.6797 43.9557Z" fill="#1A1B18"/>
</g>
</svg>
