<svg width="121" height="120" viewBox="0 0 121 120" fill="none" xmlns="http://www.w3.org/2000/svg">
<g style="mix-blend-mode:luminosity" opacity="0.7">
<g clip-path="url(#clip0_2_12487)">
<path d="M111.701 56.2128C113.816 55.499 116.169 55.0363 118.363 55.7369C119.619 56.1599 120.293 57.495 120.28 58.764C120.307 61.3681 120.333 63.9722 120.24 66.5763C119.487 66.5763 118.733 66.5763 117.993 66.5631C117.901 66.1533 117.821 65.7435 117.729 65.3337C116.328 66.4441 114.464 67.2373 112.666 66.5763C110.63 65.77 110.379 62.7164 111.913 61.302C113.459 59.8744 115.68 59.8612 117.623 59.425C117.504 58.764 117.398 57.918 116.618 57.733C115.059 57.2703 113.486 57.9709 111.992 58.3939C111.873 57.6801 111.78 56.953 111.701 56.2128ZM114.186 62.2538C113.459 62.8354 113.42 64.2498 114.371 64.6199C115.521 65.0562 116.632 64.2762 117.531 63.655C117.531 62.809 117.531 61.963 117.517 61.117C116.381 61.3152 115.098 61.4474 114.186 62.2538ZM53.0626 51.0046C54.3184 50.9253 55.5874 50.9253 56.8564 50.9517C58.3501 54.7455 59.3151 58.7508 60.9278 62.5049C62.2629 58.6715 63.4922 54.8116 64.8009 50.9782C66.0567 50.9385 67.3125 50.9385 68.5682 50.9782C68.9384 56.1864 69.4671 61.3946 69.6918 66.6027H66.7837C66.44 62.8883 66.2814 59.1474 65.9113 55.4329C64.4176 59.0813 63.3601 62.9147 61.9985 66.616C61.0864 66.6556 60.1743 66.6424 59.2622 66.6027C57.9536 62.9015 56.8961 59.0945 55.3363 55.4858C55.019 59.187 54.8736 62.9147 54.5299 66.616C53.6575 66.616 52.785 66.616 51.9126 66.6027C52.1638 61.3813 52.7057 56.1996 53.0626 51.0046ZM96.2484 52.1811C97.1208 51.996 98.0197 51.877 98.9053 51.7977C98.9318 53.0535 98.9318 54.3093 98.9318 55.5783C99.6588 55.5915 100.399 55.6312 101.139 55.6444C101.285 56.3582 101.404 57.0852 101.509 57.8123C100.65 57.8519 99.8042 57.8916 98.9582 57.9048C98.9714 59.8083 98.826 61.725 99.0243 63.6285C99.3019 64.5538 100.505 64.2895 101.232 64.4613C101.377 65.1883 101.483 65.9286 101.562 66.6688C100.174 66.8142 98.6145 66.9993 97.3719 66.2062C96.5524 65.6642 96.3012 64.6464 96.2616 63.7343C96.1558 61.8043 96.288 59.8744 96.2087 57.9445C95.7064 57.8916 95.1908 57.8387 94.6885 57.7858C94.7018 57.0852 94.7282 56.3979 94.7546 55.6973C95.2437 55.6576 95.7328 55.6047 96.2351 55.5651C96.2087 54.4283 96.2219 53.3047 96.2484 52.1811ZM71.3442 55.8691C72.2827 55.684 73.2345 55.5783 74.1862 55.5254C75.0454 58.037 75.7989 60.5882 76.6846 63.0866C77.5834 60.6543 78.284 58.1427 79.0772 55.6708C79.9893 55.618 80.8881 55.5915 81.8002 55.6047C80.7824 58.9359 79.4605 62.1612 78.3369 65.4659C77.7421 66.9861 77.372 68.7045 76.1294 69.8546C75.1115 70.7799 73.6443 70.8195 72.362 70.5948C72.2431 69.8678 72.1241 69.1408 72.0051 68.4269C72.6396 68.4137 73.2741 68.4534 73.8954 68.3476C74.7414 68.0568 75.4817 67.039 75.0983 66.1401C73.869 62.7032 72.5207 59.3192 71.3442 55.8691ZM83.5716 55.618C84.3382 55.618 85.1049 55.6312 85.8584 55.6444C85.9641 56.1203 86.0567 56.5961 86.1624 57.072C87.3389 56.107 88.7401 55.1685 90.3528 55.4329C91.754 55.4858 92.8643 56.7548 92.8908 58.1163C92.9569 60.9319 92.9172 63.7607 92.904 66.5763C92.0316 66.5895 91.1591 66.6028 90.2999 66.616C90.0487 64.0515 90.3528 61.4739 90.1677 58.9226C90.0487 57.8651 88.7401 57.6008 87.9205 58.0238C87.2199 58.3675 86.2814 58.8566 86.3343 59.7686C86.2814 62.0423 86.3607 64.3159 86.3211 66.5895C85.3957 66.6028 84.4836 66.6027 83.5583 66.5763C83.5715 62.9147 83.5583 59.2663 83.5716 55.618ZM103.611 55.618C104.391 55.618 105.171 55.618 105.951 55.6312C106.043 56.2657 106.149 56.9002 106.255 57.5479C107.22 56.5433 108.277 55.499 109.758 55.38C109.996 56.2525 110.128 57.1513 110.154 58.0502C108.7 58.3807 107.048 58.9887 106.4 60.4296C106.268 62.4785 106.427 64.5406 106.347 66.5895C105.435 66.6028 104.523 66.6027 103.611 66.5763V55.618Z" fill="#231F20"/>
<path d="M10.4585 46.7217C11.3838 45.6113 12.3884 44.4217 13.816 43.9722C15.4155 43.5492 16.777 44.805 17.7817 45.8757C20.4122 48.8896 22.3289 52.4454 24.1135 56.0145C25.0784 53.8466 26.2813 51.7845 27.5239 49.7753C28.7136 47.9511 29.9429 46.1004 31.6614 44.7125C32.4545 44.1044 33.5517 43.5228 34.5431 44.0383C35.9443 44.7786 37.0018 46.0079 37.9932 47.2108C40.0949 49.9207 41.7473 52.9478 43.241 56.0277C45.1049 59.9934 46.7176 64.1308 47.3917 68.4798C47.59 70.4891 47.7751 72.7495 46.5589 74.5076C45.6204 75.8823 43.8359 76.3582 42.2496 76.0806C40.8749 75.5915 39.6719 74.6926 38.7731 73.5558C36.6316 70.9121 35.3626 67.7131 34.1862 64.5538C34.0143 63.9987 33.8028 63.4567 33.6178 62.9147C33.4988 63.4699 33.3402 64.0251 33.1551 64.5671C31.9522 67.766 30.67 71.031 28.4624 73.688C27.5768 74.772 26.4135 75.6047 25.0916 76.0806C23.1881 76.4772 21.3507 75.4858 20.1214 74.0846C17.7156 71.4673 16.3805 68.0833 15.1511 64.7918C14.9132 64.1176 14.6753 63.4435 14.5034 62.7429C14.3051 63.4435 14.0672 64.1441 13.816 64.8182C12.7057 67.8453 11.4367 70.8989 9.4274 73.4501C8.33024 74.7587 6.90262 76.041 5.11808 76.1335C3.46573 76.2789 1.86626 75.2082 1.23176 73.7012C0.332886 71.6127 0.597261 69.2597 0.993824 67.0786C1.85304 62.9147 3.4393 58.9359 5.31636 55.1421C6.75721 52.1943 8.39634 49.3126 10.4585 46.7217ZM11.397 47.647C9.36131 50.2379 7.7354 53.146 6.28133 56.0938C4.47036 59.9141 2.83123 63.8929 2.13064 68.0833C1.87948 69.2465 1.87948 70.4494 1.99845 71.6259C2.14386 72.7363 2.58008 73.9259 3.59792 74.4944C4.57611 75.0628 5.83189 74.838 6.71755 74.2035C8.3038 73.0932 9.36131 71.4012 10.2734 69.7224C12.2298 65.9815 13.512 61.9233 14.477 57.8387C15.508 62.0291 16.8035 66.2062 18.8656 70.0264C19.6852 71.4408 20.5444 72.9081 21.8795 73.8863C22.5536 74.4944 23.4393 74.9174 24.3646 74.8116C25.3957 74.7059 26.2549 74.0449 26.9819 73.3443C28.2113 72.0753 29.1101 70.5155 29.9033 68.9557C31.5953 65.4924 32.7585 61.7911 33.6706 58.0634C34.8074 62.5842 36.2218 67.1183 38.6541 71.1368C39.5662 72.538 40.6369 73.992 42.2364 74.653C43.36 75.1156 44.7876 74.7059 45.4353 73.6616C46.2152 72.4058 46.2813 70.846 46.1624 69.4183C46.0037 67.1051 45.3296 64.8579 44.5893 62.6636C43.1088 58.4335 41.1657 54.3622 38.7995 50.5684C37.7024 48.8764 36.5655 47.1712 35.0322 45.8228C34.4902 45.347 33.6838 44.8843 32.9965 45.3602C31.6746 46.1665 30.7625 47.4488 29.8372 48.6649C27.59 51.8638 25.7394 55.3536 24.2192 58.9491C24.1795 59.002 24.0738 59.1077 24.0341 59.1606C23.902 58.7508 23.7698 58.3542 23.5979 57.9577C22.0381 54.5869 20.3064 51.269 18.0989 48.2815C17.3454 47.2901 16.5655 46.2855 15.5477 45.5585C15.1115 45.2544 14.5298 44.9768 14.0143 45.2412C12.9172 45.7435 12.1505 46.7349 11.397 47.647Z" fill="#FEFEFE"/>
<path d="M11.3972 47.6471C12.1507 46.735 12.9306 45.7568 14.0277 45.2545C14.5433 44.9901 15.1249 45.2545 15.5611 45.5717C16.5789 46.2987 17.3588 47.3166 18.1123 48.2948C20.3066 51.2954 22.0515 54.6001 23.6113 57.9709C23.7964 58.3543 23.9286 58.764 24.0475 59.1738C22.0119 55.7237 20.1612 52.1414 17.6232 49.0218C16.883 48.1494 16.1031 47.2241 15.0323 46.7614C14.4243 46.497 13.803 46.8407 13.3007 47.1712C11.4765 48.7046 10.1282 50.7006 8.85918 52.6834C5.87174 57.4422 3.62455 62.6636 2.14404 68.0833C2.84464 63.8929 4.47055 59.9141 6.29474 56.0938C7.73558 53.1461 9.36149 50.2379 11.3972 47.6471ZM32.9967 45.347C33.684 44.8711 34.4904 45.3338 35.0323 45.8096C36.5657 47.1447 37.7025 48.85 38.7997 50.5552C41.1659 54.3622 43.1222 58.4204 44.5895 62.6504C45.3298 64.8447 46.0039 67.0786 46.1626 69.4052C45.9114 67.7925 45.4884 66.2062 44.9464 64.6728C43.5452 60.456 41.6021 56.4111 39.2491 52.6438C38.2181 51.0311 37.1209 49.4316 35.799 48.0568C35.2703 47.5281 34.7019 46.9729 33.9748 46.735C33.4064 46.5631 32.8909 46.9597 32.4282 47.2373C31.1989 48.2022 30.2472 49.4448 29.3351 50.7006C27.7224 52.9874 26.2815 55.3933 24.9861 57.8652C24.7746 58.2617 24.5102 58.6319 24.2194 58.9623C25.7395 55.3536 27.5902 51.8771 29.8374 48.6781C30.7627 47.4488 31.688 46.1533 32.9967 45.347Z" fill="#9E242E"/>
<path d="M13.3009 47.1711C13.8032 46.8406 14.4245 46.497 15.0325 46.7613C16.1032 47.224 16.8832 48.1493 17.6234 49.0217C20.1614 52.1414 22.012 55.7237 24.0345 59.1738C22.7655 62.7825 21.2586 66.4044 21.166 70.2775C21.0999 71.5201 21.4304 72.7362 21.8931 73.8863C20.558 72.9081 19.6855 71.4408 18.8792 70.0264C16.8303 66.2062 15.5216 62.0422 14.4906 57.8387C13.7503 54.3489 13.0629 50.7798 13.3009 47.1711Z" fill="#FF912E"/>
<path d="M32.4412 47.224C32.9039 46.9464 33.4194 46.5498 33.9878 46.7217C34.7148 46.9596 35.2832 47.5148 35.812 48.0435C37.1339 49.4315 38.231 51.0178 39.2621 52.6305C41.615 56.3978 43.5582 60.4428 44.9594 64.6595C45.5146 66.1929 45.9243 67.7792 46.1755 69.3919C46.2945 70.8195 46.2284 72.3793 45.4485 73.6351C44.8008 74.6926 43.3863 75.0892 42.2495 74.6265C40.6501 73.9788 39.5793 72.5115 38.6672 71.1103C36.235 67.105 34.8206 62.571 33.6838 58.0369C32.9171 54.5075 32.2033 50.8856 32.4412 47.224ZM8.85891 52.6833C10.1279 50.7005 11.4762 48.7045 13.3004 47.1711C13.0625 50.7666 13.7499 54.3489 14.5033 57.8387C13.5384 61.9365 12.2429 65.9814 10.2998 69.7223C9.38766 71.4011 8.33016 73.0931 6.74391 74.2035C5.85825 74.838 4.60247 75.0627 3.62428 74.4943C2.60643 73.9259 2.17021 72.723 2.02481 71.6258C1.89262 70.4494 1.90584 69.2465 2.15699 68.0832C3.61106 62.6635 5.87147 57.4421 8.85891 52.6833Z" fill="#F41CB2"/>
<path d="M29.348 50.6873C30.2601 49.4315 31.2119 48.189 32.4412 47.224C32.2033 50.8724 32.9171 54.5075 33.697 58.0502C32.7849 61.7911 31.6084 65.4791 29.9297 68.9424C29.1365 70.5155 28.2377 72.0621 27.0083 73.3311C26.2945 74.0317 25.4221 74.6926 24.391 74.7984C23.4657 74.9041 22.58 74.4811 21.9059 73.873C21.4432 72.723 21.1127 71.5069 21.1788 70.2643C21.2714 66.3912 22.7783 62.7561 24.0473 59.1605C24.087 59.1077 24.1927 59.0019 24.2324 58.949C24.5232 58.6054 24.7876 58.2485 24.9991 57.8519C26.3077 55.38 27.7353 52.9742 29.348 50.6873Z" fill="#F25511"/>
</g>
</g>
<defs>
<clipPath id="clip0_2_12487">
<rect width="120" height="33.216" fill="white" transform="translate(0.333008 43.392)"/>
</clipPath>
</defs>
</svg>
