<svg width="22" height="22" viewBox="0 0 22 22" fill="none" xmlns="http://www.w3.org/2000/svg">
<g clip-path="url(#clip0_829_5535)">
<path d="M21.3125 11C21.3125 11.88 20.2314 12.6053 20.0148 13.4166C19.7914 14.2553 20.3569 15.4241 19.9323 16.158C19.5009 16.9039 18.2033 16.9933 17.5983 17.5983C16.9933 18.2033 16.9039 19.5009 16.158 19.9323C15.4241 20.3569 14.2553 19.7914 13.4166 20.0148C12.6053 20.2314 11.88 21.3125 11 21.3125C10.12 21.3125 9.39469 20.2314 8.58344 20.0148C7.74469 19.7914 6.57594 20.3569 5.84203 19.9323C5.09609 19.5009 5.00672 18.2033 4.40172 17.5983C3.79672 16.9933 2.49906 16.9039 2.06766 16.158C1.64312 15.4241 2.20859 14.2553 1.98516 13.4166C1.76859 12.6053 0.6875 11.88 0.6875 11C0.6875 10.12 1.76859 9.39469 1.98516 8.58344C2.20859 7.74469 1.64312 6.57594 2.06766 5.84203C2.49906 5.09609 3.79672 5.00672 4.40172 4.40172C5.00672 3.79672 5.09609 2.49906 5.84203 2.06766C6.57594 1.64312 7.74469 2.20859 8.58344 1.98516C9.39469 1.76859 10.12 0.6875 11 0.6875C11.88 0.6875 12.6053 1.76859 13.4166 1.98516C14.2553 2.20859 15.4241 1.64312 16.158 2.06766C16.9039 2.49906 16.9933 3.79672 17.5983 4.40172C18.2033 5.00672 19.5009 5.09609 19.9323 5.84203C20.3569 6.57594 19.7914 7.74469 20.0148 8.58344C20.2314 9.39469 21.3125 10.12 21.3125 11Z" fill="#FF4979"/>
<path d="M10.1832 14.0834L15.3807 8.88588C15.6465 8.61088 15.6465 8.18005 15.3807 7.91422C15.1148 7.64839 14.6748 7.64839 14.409 7.91422L9.69734 12.6259L7.58901 10.5176C7.32318 10.2517 6.88318 10.2517 6.61734 10.5176C6.35151 10.7834 6.35151 11.2234 6.61734 11.4892L9.21151 14.0834C9.33984 14.2117 9.51401 14.2851 9.69734 14.2851C9.88068 14.2851 10.0548 14.2117 10.1832 14.0834Z" fill="white"/>
</g>
<defs>
<clipPath id="clip0_829_5535">
<rect width="22" height="22" fill="white"/>
</clipPath>
</defs>
</svg>
