<svg width="40" height="40" viewBox="0 0 40 40" fill="none" xmlns="http://www.w3.org/2000/svg">
<rect width="40" height="40" rx="8" fill="white"/>
<mask id="mask0_832_5815" style="mask-type:alpha" maskUnits="userSpaceOnUse" x="10" y="8" width="20" height="24">
<path d="M10 8H29.681V32H10V8Z" fill="white"/>
</mask>
<g mask="url(#mask0_832_5815)">
<path fill-rule="evenodd" clip-rule="evenodd" d="M27.7356 14.098C28.0186 12.231 27.7336 10.961 26.7566 9.81C25.6806 8.543 23.7376 8 21.2506 8H14.0326C13.5246 8 13.0916 8.382 13.0126 8.901L10.0076 28.597C9.94862 28.986 10.2396 29.337 10.6196 29.337H15.0756L14.7676 31.352C14.7156 31.692 14.9696 31.999 15.3026 31.999H19.0586C19.5036 31.999 19.8816 31.665 19.9506 31.211L19.9876 31.013L20.6946 26.376L20.7406 26.12C20.8096 25.666 21.1886 25.332 21.6326 25.332H22.1946C25.8336 25.332 28.6826 23.804 29.5146 19.386C29.8626 17.54 29.6826 15.999 28.7626 14.915C28.4846 14.587 28.1386 14.316 27.7346 14.095L27.7356 14.098Z" fill="#009CDE"/>
</g>
<mask id="mask1_832_5815" style="mask-type:alpha" maskUnits="userSpaceOnUse" x="10" y="8" width="18" height="22">
<path d="M10 8H27.84V29.337H10V8Z" fill="white"/>
</mask>
<g mask="url(#mask1_832_5815)">
<path fill-rule="evenodd" clip-rule="evenodd" d="M27.7356 14.098C28.0186 12.231 27.7336 10.961 26.7566 9.81C25.6806 8.543 23.7376 8 21.2506 8H14.0326C13.5246 8 13.0916 8.382 13.0126 8.901L10.0076 28.597C9.94862 28.986 10.2396 29.337 10.6196 29.337H15.0756L16.1946 22.002L16.1596 22.232C16.2386 21.713 16.6676 21.331 17.1756 21.331H19.2936C23.4526 21.331 26.7096 19.585 27.6616 14.534C27.6896 14.384 27.7136 14.241 27.7356 14.098Z" fill="#012169"/>
</g>
<mask id="mask2_832_5815" style="mask-type:alpha" maskUnits="userSpaceOnUse" x="10" y="8" width="18" height="22">
<path d="M10 8H27.84V29.337H10V8Z" fill="white"/>
</mask>
<g mask="url(#mask2_832_5815)">
<path fill-rule="evenodd" clip-rule="evenodd" d="M17.3966 14.122C17.4181 13.974 17.475 13.8334 17.5624 13.7121C17.6497 13.5907 17.7651 13.4923 17.8986 13.425C18.0176 13.366 18.1496 13.334 18.2886 13.334H23.9466C24.6166 13.334 25.2416 13.379 25.8136 13.475L26.2896 13.569L26.7386 13.688L26.9526 13.757C27.2225 13.8483 27.4841 13.9623 27.7346 14.098C28.0176 12.231 27.7326 10.96 26.7556 9.81C25.6806 8.543 23.7376 8 21.2506 8H14.0326C13.5246 8 13.0916 8.382 13.0126 8.901L10.0076 28.597C9.94864 28.986 10.2386 29.337 10.6196 29.337H15.0756L16.1946 22.002L17.3966 14.122Z" fill="#003087"/>
</g>
</svg>
