<svg width="40" height="40" viewBox="0 0 40 40" fill="none" xmlns="http://www.w3.org/2000/svg">
<rect width="40" height="40" rx="8" fill="white"/>
<g clip-path="url(#clip0_832_5839)">
<path d="M7.94796 18.7271C7.94796 18.4269 8.19434 18.3113 8.60248 18.3113C9.18759 18.3113 9.92672 18.4885 10.5119 18.8041V16.9947C9.87286 16.7406 9.24151 16.6405 8.60248 16.6405C7.03943 16.6405 6 17.4567 6 18.8196C6 20.9446 8.92579 20.6058 8.92579 21.5221C8.92579 21.8762 8.61786 21.9917 8.18665 21.9917C7.54762 21.9917 6.73145 21.7299 6.08467 21.3758V23.2082C6.80074 23.5162 7.5245 23.6471 8.18665 23.6471C9.78813 23.6471 10.8892 22.8541 10.8892 21.4758C10.8815 19.1814 7.94796 19.5895 7.94796 18.7271ZM13.1528 15.1007L11.2741 15.501L11.2665 21.6683C11.2665 22.8079 12.1211 23.6471 13.2606 23.6471C13.892 23.6471 14.3539 23.5316 14.608 23.393V21.83C14.3617 21.9301 13.1451 22.2843 13.1451 21.1448V18.4114H14.608V16.7715H13.1451L13.1528 15.1007ZM17.0026 17.3412L16.8794 16.7715H15.2163V23.5085H17.1412V18.9427C17.5954 18.3499 18.3654 18.4577 18.6041 18.5423V16.7715C18.3577 16.679 17.4569 16.5096 17.0026 17.3412ZM19.0737 16.7715H21.0063V23.5085H19.0737V16.7715ZM19.0737 16.1863L21.0063 15.7705V14.2075L19.0737 14.6156V16.1863ZM25.0255 16.6405C24.2709 16.6405 23.7858 16.9947 23.5164 17.2411L23.4162 16.7638H21.7224V25.7413L23.6472 25.3333L23.655 23.1543C23.9322 23.3545 24.3402 23.6394 25.0178 23.6394C26.396 23.6394 27.651 22.5307 27.651 20.0899C27.6433 17.8571 26.3729 16.6405 25.0255 16.6405ZM24.5635 21.9455C24.1092 21.9455 23.8397 21.7838 23.655 21.5836L23.6472 18.7271C23.8474 18.5038 24.1246 18.3499 24.5635 18.3499C25.2641 18.3499 25.7492 19.1352 25.7492 20.1438C25.7492 21.1756 25.2718 21.9455 24.5635 21.9455ZM33.7182 20.1669C33.7182 18.1959 32.7634 16.6405 30.9387 16.6405C29.1061 16.6405 27.9974 18.1959 27.9974 20.1515C27.9974 22.4691 29.3064 23.6394 31.185 23.6394C32.1013 23.6394 32.7943 23.4315 33.3178 23.1389V21.599C32.7943 21.8608 32.1937 22.0225 31.4314 22.0225C30.6846 22.0225 30.0224 21.7607 29.9377 20.8522H33.7028C33.7028 20.752 33.7182 20.3517 33.7182 20.1669ZM29.9147 19.4355C29.9147 18.5654 30.4459 18.2035 30.931 18.2035C31.4006 18.2035 31.9012 18.5654 31.9012 19.4355H29.9147Z" fill="#6772E5"/>
</g>
<defs>
<clipPath id="clip0_832_5839">
<rect width="28" height="11.5862" fill="white" transform="translate(6 14.207)"/>
</clipPath>
</defs>
</svg>
