<svg width="44" height="44" viewBox="0 0 44 44" fill="none" xmlns="http://www.w3.org/2000/svg">
<rect width="44" height="44" rx="22" fill="#FAFAFA"/>
<path d="M21.9998 17.07C19.2776 17.07 17.0703 19.2777 17.0703 22C17.0703 24.7228 19.2776 26.9296 21.9998 26.9296C24.7227 26.9296 26.9303 24.7228 26.9303 22C26.9303 19.2777 24.7227 17.07 21.9998 17.07ZM21.9998 25.2002C20.2328 25.2002 18.7997 23.7675 18.7997 22C18.7997 20.2325 20.2328 18.7998 21.9998 18.7998C23.7673 18.7998 25.2004 20.2325 25.2004 22C25.2004 23.7674 23.7673 25.2002 21.9998 25.2002ZM28.2768 16.8755C28.2768 17.5112 27.7609 18.0271 27.1247 18.0271C26.4887 18.0271 25.9727 17.5112 25.9727 16.8755C25.9727 16.2395 26.4886 15.7235 27.1247 15.7235C27.7609 15.7235 28.2768 16.2395 28.2768 16.8755ZM31.0963 15.7117C30.8509 15.0801 30.5227 14.5449 29.9893 14.0111C28.9132 12.9343 27.441 12.525 25.9585 12.4578C24.9344 12.4105 24.6075 12.4 21.9998 12.4C19.3931 12.4 19.0662 12.4105 18.042 12.4578C16.556 12.5251 15.0855 12.937 14.0114 14.0111C12.9332 15.0894 12.5257 16.557 12.4575 18.0422C12.4109 19.0663 12.3999 19.3929 12.3999 22C12.3999 24.6071 12.4109 24.9342 12.4575 25.9587C12.526 27.449 12.9328 28.9112 14.0113 29.989C15.0898 31.0666 16.557 31.4747 18.042 31.5427C19.0662 31.5895 19.3931 31.6 21.9998 31.6C24.6075 31.6 24.9344 31.5894 25.9586 31.5427C27.4471 31.4745 28.9129 31.0661 29.9892 29.989C31.0648 28.9126 31.4752 27.4406 31.5425 25.9587C31.5893 24.9342 31.6003 24.6071 31.6003 21.9999C31.6003 19.3928 31.5893 19.0663 31.5425 18.0421C31.4961 17.0201 31.3338 16.3225 31.0963 15.7117ZM29.8145 25.8793C29.7671 26.922 29.5248 28.0066 28.7661 28.7663C27.9974 29.5359 26.929 29.7668 25.8797 29.8147C24.8671 29.8606 24.5639 29.8706 21.9998 29.8706C19.4367 29.8706 19.1335 29.8605 18.1208 29.8147C17.0689 29.7667 16.0022 29.5319 15.2341 28.7664C14.4683 28.003 14.2326 26.9214 14.1857 25.8793C14.1398 24.8672 14.1297 24.5636 14.1297 21.9999C14.1297 19.4368 14.1398 19.1332 14.1857 18.1206C14.2324 17.0826 14.4794 15.9901 15.234 15.2342C15.999 14.4679 17.0769 14.2334 18.1209 14.1857C19.1335 14.1395 19.4367 14.1298 21.9998 14.1298C24.5635 14.1298 24.8671 14.1395 25.8798 14.1857C26.9311 14.2337 27.9996 14.4674 28.766 15.2341C29.5328 16.0011 29.7669 17.075 29.8145 18.1206C29.8608 19.1332 29.8709 19.4368 29.8709 22C29.8709 24.5636 29.8608 24.8673 29.8145 25.8793Z" fill="url(#paint0_linear_1002_5838)"/>
<defs>
<linearGradient id="paint0_linear_1002_5838" x1="14.0114" y1="29.989" x2="29.9892" y2="14.0111" gradientUnits="userSpaceOnUse">
<stop stop-color="#FDD91D"/>
<stop offset="0.05" stop-color="#FDD91D"/>
<stop offset="0.497" stop-color="#EC1C24"/>
<stop offset="0.95" stop-color="#A43A94"/>
<stop offset="1" stop-color="#A43A94"/>
</linearGradient>
</defs>
</svg>
