<svg width="17" height="17" viewBox="0 0 17 17" fill="none" xmlns="http://www.w3.org/2000/svg">
<path d="M8.59956 4.39165C6.33098 4.39165 4.49157 6.2314 4.49157 8.49995C4.49157 10.769 6.33098 12.6079 8.59956 12.6079C10.8686 12.6079 12.7083 10.769 12.7083 8.49995C12.7083 6.2314 10.8686 4.39165 8.59956 4.39165ZM8.59956 11.1668C7.12703 11.1668 5.93276 9.97286 5.93276 8.49995C5.93276 7.02708 7.127 5.83318 8.59956 5.83318C10.0724 5.83318 11.2667 7.02708 11.2667 8.49995C11.2667 9.97283 10.0724 11.1668 8.59956 11.1668ZM13.8303 4.22955C13.8303 4.75931 13.4004 5.18923 12.8703 5.18923C12.3402 5.18923 11.9103 4.75931 11.9103 4.22955C11.9103 3.69957 12.3402 3.26953 12.8703 3.26953C13.4004 3.26953 13.8303 3.69957 13.8303 4.22955ZM16.18 3.25968C15.9754 2.73336 15.7019 2.28741 15.2574 1.84259C14.3607 0.945228 13.1339 0.604096 11.8985 0.548157C11.045 0.508719 10.7726 0.5 8.59956 0.5C6.4273 0.5 6.15485 0.508719 5.3014 0.548157C4.06303 0.604221 2.8376 0.947478 1.94254 1.84256C1.04399 2.74111 0.704455 3.96417 0.647642 5.20179C0.608766 6.05524 0.599609 6.32738 0.599609 8.49995C0.599609 10.6726 0.608766 10.9451 0.647642 11.7989C0.704705 13.0408 1.04365 14.2593 1.94248 15.1574C2.84119 16.0555 4.06387 16.3955 5.3014 16.4522C6.15485 16.4912 6.4273 16.5 8.59956 16.5C10.7726 16.5 11.0451 16.4912 11.8985 16.4522C13.1389 16.3954 14.3604 16.055 15.2574 15.1574C16.1537 14.2605 16.4957 13.0338 16.5518 11.7989C16.5908 10.9451 16.6 10.6725 16.6 8.49992C16.6 6.32731 16.5908 6.05521 16.5518 5.20176C16.5131 4.35002 16.3779 3.7687 16.18 3.25968ZM15.1117 11.7327C15.0722 12.6017 14.8704 13.5055 14.2381 14.1385C13.5975 14.7799 12.7072 14.9723 11.8328 15.0122C10.989 15.0504 10.7363 15.0588 8.59956 15.0588C6.46364 15.0588 6.21095 15.0504 5.36706 15.0122C4.49047 14.9722 3.60149 14.7766 2.96144 14.1386C2.32324 13.5025 2.12683 12.6011 2.08774 11.7327C2.04952 10.8893 2.04114 10.6363 2.04114 8.49992C2.04114 6.364 2.04955 6.111 2.08774 5.2671C2.1267 4.40218 2.33249 3.49172 2.96132 2.86183C3.59889 2.22319 4.49713 2.02778 5.36712 1.98809C6.21095 1.94956 6.46364 1.9415 8.59956 1.9415C10.736 1.9415 10.989 1.94956 11.8328 1.98809C12.7089 2.02806 13.5994 2.22282 14.238 2.86171C14.877 3.50091 15.0721 4.39577 15.1117 5.26717C15.1504 6.111 15.1588 6.364 15.1588 8.49995C15.1588 10.6363 15.1504 10.8893 15.1117 11.7327Z" fill="url(#paint0_linear_1396_13339)"/>
<defs>
<linearGradient id="paint0_linear_1396_13339" x1="1.94251" y1="15.1575" x2="15.2574" y2="1.84259" gradientUnits="userSpaceOnUse">
<stop stop-color="#FDD91D"/>
<stop offset="0.05" stop-color="#FDD91D"/>
<stop offset="0.497" stop-color="#EC1C24"/>
<stop offset="0.95" stop-color="#A43A94"/>
<stop offset="1" stop-color="#A43A94"/>
</linearGradient>
</defs>
</svg>
