<?xml version="1.0" encoding="UTF-8"?>
<svg id="Layer_1" xmlns="http://www.w3.org/2000/svg" version="1.1" viewBox="0 0 532.2 169.3">
  <!-- Generator: Adobe Illustrator 29.4.0, SVG Export Plug-In . SVG Version: 2.1.0 Build 152)  -->
  <defs>
    <style>
      .st0 {
        fill: #fff;
      }

      .st1 {
        fill: #43bee5;
      }

      .st2 {
        fill: #f40058;
      }

      .st3 {
        fill: #efa500;
      }
    </style>
  </defs>
  <polygon class="st2" points="62.6 169.3 62.6 64.2 112.2 33.3 112.2 62.6 85.7 79 85.2 154.4 62.6 169.3"/>
  <polygon class="st3" points="28.2 85.3 28.2 155.8 52.3 137.4 52.3 70 28.2 85.3"/>
  <path class="st1" d="M27.4,74.5L99.2,28.7V0L0,63.1v28.9l27.2-17.3c0-.2.1-.2.2-.2Z"/>
  <g>
    <path class="st0" d="M173.5,129.1c-5.8,0-10.3-1.4-13.4-4.3-3.1-2.9-4.7-7.5-4.7-14v-27.7h-8.2v-13.1h8.3v-11.9l15.3-1.6v13.5h12.5v13.1h-12.5v26.9c0,3.6,1.6,5.5,4.8,5.5h6.4v13.6h-8.5Z"/>
    <path class="st0" d="M189.8,129.1v-59.1h14.9v11.2c1-4.2,3-7.5,6-9.7s7.1-3.2,12.3-2.9v14.5h-2.2c-4.4,0-8.1,1.4-11.1,4.2s-4.5,6.7-4.5,11.6v30.2h-15.4Z"/>
    <path class="st0" d="M251.4,130.5c-4.2,0-8.1-1-11.5-3s-6.1-4.8-8.1-8.5-3-8-3-12.9v-36.1h15.4v32.4c0,5.1,1,8.8,3.1,11.1,2,2.3,5,3.5,8.7,3.5,3.3,0,6.1-1.2,8.6-3.5s3.7-6.1,3.7-11.1v-32.4h15.3v59.1h-14.9v-8.9c-1.4,3.4-3.5,6-6.3,7.7-2.7,1.7-6.4,2.6-11,2.6Z"/>
    <path class="st0" d="M322.4,130.6c-6.1,0-11.4-1.4-16-4.2-4.6-2.8-8.2-6.5-10.7-11.2s-3.8-9.8-3.8-15.5,1.3-10.9,4-15.6c2.7-4.7,6.3-8.5,10.9-11.3s9.8-4.2,15.7-4.2,11.1,1.4,15.6,4.2,8,6.6,10.6,11.3c2.5,4.7,3.8,9.9,3.8,15.6,0,.8,0,1.7-.1,2.6-.1.9-.2,1.9-.3,2.8h-44.2c.8,3.5,2.5,6.3,5.1,8.5,2.5,2.2,5.7,3.3,9.6,3.3,3.3,0,6.2-.8,8.7-2.3s4.4-3.4,5.7-5.7l11.9,9c-2.3,3.7-5.9,6.7-10.6,9.1-4.8,2.4-10.1,3.6-15.9,3.6ZM322.1,81.7c-3.6,0-6.7,1.1-9.3,3.3s-4.3,5.1-5.1,8.6h29.2c-.8-3.3-2.6-6.1-5.2-8.4-2.6-2.3-5.8-3.5-9.6-3.5Z"/>
    <path class="st0" d="M360.4,129.1v-59.1h14.9v11.2c1-4.2,3-7.5,6-9.7s7.1-3.2,12.3-2.9v14.5h-2.2c-4.4,0-8.1,1.4-11.1,4.2s-4.5,6.7-4.5,11.6v30.2h-15.4Z"/>
    <path class="st0" d="M425.5,130.6c-6.1,0-11.4-1.4-16-4.2s-8.2-6.5-10.7-11.2-3.8-9.8-3.8-15.5,1.3-10.9,4-15.6c2.7-4.7,6.3-8.5,10.9-11.3,4.6-2.8,9.8-4.2,15.7-4.2s11.1,1.4,15.6,4.2,8,6.6,10.6,11.3c2.5,4.7,3.8,9.9,3.8,15.6,0,.8,0,1.7-.1,2.6-.1.9-.2,1.9-.3,2.8h-44.2c.8,3.5,2.5,6.3,5.1,8.5,2.5,2.2,5.7,3.3,9.6,3.3,3.3,0,6.2-.8,8.7-2.3s4.4-3.4,5.7-5.7l11.9,9c-2.3,3.7-5.9,6.7-10.6,9.1-4.8,2.4-10,3.6-15.9,3.6ZM425.3,81.7c-3.6,0-6.7,1.1-9.3,3.3s-4.3,5.1-5.1,8.6h29.2c-.8-3.3-2.6-6.1-5.2-8.4-2.6-2.3-5.8-3.5-9.6-3.5Z"/>
    <path class="st0" d="M465.6,129.1v-46h-8.3v-13.1h8.3v-4c0-6,1.8-10.8,5.3-14.4,3.6-3.6,8.3-5.5,14.3-5.5h6.4v13.1h-4c-4.5,0-6.7,2.3-6.7,7v3.7h12v13.2h-12v46h-15.3Z"/>
    <path class="st0" d="M504.9,129.1v-46h-8.3v-13.1h8.3v-4c0-6,1.8-10.8,5.3-14.4,3.6-3.6,8.3-5.5,14.3-5.5h6.4v13.1h-4c-4.5,0-6.7,2.3-6.7,7v3.7h12v13.2h-12v46h-15.3Z"/>
  </g>
</svg>