<?xml version="1.0" encoding="utf-8"?>
<!-- Generator: Adobe Illustrator 26.0.1, SVG Export Plug-In . SVG Version: 6.00 Build 0)  -->
<svg version="1.1" id="Layer_1" xmlns="http://www.w3.org/2000/svg" xmlns:xlink="http://www.w3.org/1999/xlink" x="0px" y="0px"
	 viewBox="0 0 952.9 421.7" style="enable-background:new 0 0 952.9 421.7;" xml:space="preserve">
<style type="text/css">
	.st0{fill:#FFFFFF;}
	.st1{fill:#F40058;}
	.st2{fill:#EFA500;}
	.st3{fill:#43BEE5;}
	.st4{fill:#0B0C0F;}
</style>
<rect x="-9" class="st4" width="961.9" height="421.1"/>
<g>
	<polygon class="st1" points="267.4,295.2 267.4,190.1 317,159.2 317,188.5 290.5,204.9 290,280.3 	"/>
	<polygon class="st2" points="233,211.2 233,281.7 257.1,263.3 257.1,195.9 	"/>
	<path class="st3" d="M232.2,200.4l71.8-45.8v-28.7L204.8,189v28.9l27.2-17.3C232,200.4,232.1,200.4,232.2,200.4z"/>
	<g>
		<g>
			<path class="st0" d="M378.3,255c-5.8,0-10.3-1.4-13.4-4.3c-3.1-2.9-4.7-7.5-4.7-14V209H352v-13.1h8.3V184l15.3-1.6v13.5h12.5V209
				h-12.5v26.9c0,3.6,1.6,5.5,4.8,5.5h6.4V255H378.3z"/>
			<path class="st0" d="M394.6,255v-59.1h14.9v11.2c1-4.2,3-7.5,6-9.7c3-2.2,7.1-3.2,12.3-2.9V209h-2.2c-4.4,0-8.1,1.4-11.1,4.2
				c-3,2.8-4.5,6.7-4.5,11.6V255H394.6z"/>
			<path class="st0" d="M456.2,256.4c-4.2,0-8.1-1-11.5-3c-3.4-2-6.1-4.8-8.1-8.5c-2-3.7-3-8-3-12.9v-36.1H449v32.4
				c0,5.1,1,8.8,3.1,11.1c2,2.3,5,3.5,8.7,3.5c3.3,0,6.1-1.2,8.6-3.5c2.5-2.3,3.7-6.1,3.7-11.1v-32.4h15.3V255h-14.9v-8.9
				c-1.4,3.4-3.5,6-6.3,7.7C464.5,255.5,460.8,256.4,456.2,256.4z"/>
			<path class="st0" d="M527.2,256.5c-6.1,0-11.4-1.4-16-4.2c-4.6-2.8-8.2-6.5-10.7-11.2c-2.5-4.7-3.8-9.8-3.8-15.5
				c0-5.7,1.3-10.9,4-15.6c2.7-4.7,6.3-8.5,10.9-11.3c4.6-2.8,9.8-4.2,15.7-4.2s11.1,1.4,15.6,4.2c4.5,2.8,8,6.6,10.6,11.3
				c2.5,4.7,3.8,9.9,3.8,15.6c0,0.8,0,1.7-0.1,2.6c-0.1,0.9-0.2,1.9-0.3,2.8h-44.2c0.8,3.5,2.5,6.3,5.1,8.5c2.5,2.2,5.7,3.3,9.6,3.3
				c3.3,0,6.2-0.8,8.7-2.3c2.5-1.5,4.4-3.4,5.7-5.7l11.9,9c-2.3,3.7-5.9,6.7-10.6,9.1C538.3,255.3,533,256.5,527.2,256.5z
				 M526.9,207.6c-3.6,0-6.7,1.1-9.3,3.3c-2.6,2.2-4.3,5.1-5.1,8.6h29.2c-0.8-3.3-2.6-6.1-5.2-8.4
				C533.9,208.8,530.7,207.6,526.9,207.6z"/>
			<path class="st0" d="M565.2,255v-59.1h14.9v11.2c1-4.2,3-7.5,6-9.7c3-2.2,7.1-3.2,12.3-2.9V209h-2.2c-4.4,0-8.1,1.4-11.1,4.2
				c-3,2.8-4.5,6.7-4.5,11.6V255H565.2z"/>
			<path class="st0" d="M630.3,256.5c-6.1,0-11.4-1.4-16-4.2c-4.6-2.8-8.2-6.5-10.7-11.2c-2.5-4.7-3.8-9.8-3.8-15.5
				c0-5.7,1.3-10.9,4-15.6c2.7-4.7,6.3-8.5,10.9-11.3c4.6-2.8,9.8-4.2,15.7-4.2s11.1,1.4,15.6,4.2c4.5,2.8,8,6.6,10.6,11.3
				c2.5,4.7,3.8,9.9,3.8,15.6c0,0.8,0,1.7-0.1,2.6c-0.1,0.9-0.2,1.9-0.3,2.8h-44.2c0.8,3.5,2.5,6.3,5.1,8.5c2.5,2.2,5.7,3.3,9.6,3.3
				c3.3,0,6.2-0.8,8.7-2.3c2.5-1.5,4.4-3.4,5.7-5.7l11.9,9c-2.3,3.7-5.9,6.7-10.6,9.1C641.4,255.3,636.2,256.5,630.3,256.5z
				 M630.1,207.6c-3.6,0-6.7,1.1-9.3,3.3c-2.6,2.2-4.3,5.1-5.1,8.6h29.2c-0.8-3.3-2.6-6.1-5.2-8.4
				C637.1,208.8,633.9,207.6,630.1,207.6z"/>
			<path class="st0" d="M670.4,255v-46h-8.3v-13.1h8.3v-4c0-6,1.8-10.8,5.3-14.4c3.6-3.6,8.3-5.5,14.3-5.5h6.4v13.1h-4
				c-4.5,0-6.7,2.3-6.7,7v3.7h12V209h-12v46H670.4z"/>
			<path class="st0" d="M709.7,255v-46h-8.3v-13.1h8.3v-4c0-6,1.8-10.8,5.3-14.4c3.6-3.6,8.3-5.5,14.3-5.5h6.4v13.1h-4
				c-4.5,0-6.7,2.3-6.7,7v3.7h12V209h-12v46H709.7z"/>
		</g>
	</g>
</g>
</svg>
