<svg width="600" height="400" viewBox="0 0 600 400" fill="none" xmlns="http://www.w3.org/2000/svg">
<g clip-path="url(#clip0_2_13809)">
<path d="M66.7485 22C66.7485 16.4772 71.2257 12 76.7485 12H523.251C528.774 12 533.251 16.4772 533.251 22V378C533.251 383.523 528.774 388 523.251 388H76.7485C71.2257 388 66.7485 383.523 66.7485 378V22Z" fill="url(#paint0_linear_2_13809)"/>
<g clip-path="url(#clip1_2_13809)">
<path d="M80 12C80 5.37258 85.3726 0 92 0H308C314.627 0 320 5.37258 320 12V196C320 202.627 314.627 208 308 208H92C85.3726 208 80 202.627 80 196V12Z" fill="white" fill-opacity="0.88"/>
<rect width="240" height="52.9434" transform="translate(80)" fill="white"/>
<g clip-path="url(#clip2_2_13809)">
<path d="M155.425 44.9436V22.004L166.285 15.2803V21.6658L160.485 25.2502L160.378 41.6974L155.425 44.9436Z" fill="#F40058"/>
<path d="M147.892 26.6093V41.9853L153.166 37.9711V23.2671L147.892 26.6093Z" fill="#EFA500"/>
<path d="M147.716 24.2486L163.443 14.259V8L141.726 21.7681V28.0643L147.675 24.2835C147.69 24.2683 147.703 24.2574 147.719 24.2486H147.716Z" fill="#43BEE5"/>
<path d="M179.715 36.1712C178.438 36.1712 177.46 35.8571 176.779 35.2288C176.098 34.6005 175.758 33.5839 175.758 32.1789V26.1315H173.943V23.2801H175.758V20.6774L179.117 20.3306V23.2801H181.854V26.1315H179.117V32.0065C179.117 32.8007 179.465 33.1955 180.161 33.1955H181.554V36.1691H179.713L179.715 36.1712Z" fill="#333333"/>
<path d="M183.272 36.1709V23.2819H186.53V25.7362C186.745 24.8112 187.185 24.1044 187.848 23.6179C188.512 23.1314 189.407 22.9198 190.535 22.9852V26.1333H190.062C189.101 26.1333 188.286 26.4387 187.625 27.0496C186.962 27.6604 186.631 28.5047 186.631 29.5781V36.1709H183.272Z" fill="#333333"/>
<path d="M196.755 36.4679C195.827 36.4679 194.988 36.2519 194.242 35.8243C193.495 35.3945 192.906 34.7793 192.475 33.9787C192.044 33.178 191.829 32.2399 191.829 31.1644V23.2822H195.188V30.3463C195.188 31.4545 195.411 32.2639 195.86 32.7744C196.309 33.2871 196.946 33.5423 197.776 33.5423C198.489 33.5423 199.116 33.2871 199.654 32.7744C200.193 32.2617 200.462 31.4524 200.462 30.3463V23.2822H203.821V36.1712H200.563V34.2383C200.247 34.9822 199.788 35.5385 199.181 35.9116C198.575 36.2846 197.767 36.4701 196.755 36.4701V36.4679Z" fill="#333333"/>
<path d="M212.302 36.494C210.976 36.494 209.807 36.1885 208.795 35.5777C207.783 34.9668 207 34.1531 206.444 33.1365C205.887 32.1198 205.609 30.9919 205.609 29.7528C205.609 28.5136 205.898 27.377 206.481 26.3451C207.061 25.3132 207.854 24.4907 208.856 23.8777C209.859 23.2669 211.009 22.9614 212.302 22.9614C213.596 22.9614 214.737 23.2669 215.722 23.8777C216.71 24.4886 217.48 25.311 218.037 26.3451C218.593 27.377 218.871 28.5136 218.871 29.7528C218.871 29.9339 218.862 30.1237 218.847 30.3222C218.829 30.5207 218.805 30.728 218.772 30.9418H209.095C209.277 31.701 209.647 32.3227 210.203 32.8005C210.759 33.2804 211.46 33.5182 212.305 33.5182C213.034 33.5182 213.669 33.3524 214.207 33.023C214.746 32.6936 215.164 32.2791 215.464 31.7839L218.076 33.7429C217.561 34.5523 216.791 35.2134 215.762 35.726C214.733 36.2387 213.581 36.494 212.305 36.494H212.302ZM212.252 25.8346C211.455 25.8346 210.776 26.0746 210.212 26.5524C209.647 27.0323 209.274 27.6606 209.093 28.4373H215.486C215.304 27.7261 214.925 27.1152 214.354 26.6025C213.783 26.0899 213.082 25.8346 212.252 25.8346Z" fill="#333333"/>
<path d="M220.635 36.1709V23.2819H223.893V25.7362C224.108 24.8112 224.548 24.1044 225.211 23.6179C225.875 23.1314 226.77 22.9198 227.898 22.9852V26.1333H227.425C226.464 26.1333 225.649 26.4387 224.988 27.0496C224.324 27.6604 223.994 28.5047 223.994 29.5781V36.1709H220.635Z" fill="#333333"/>
<path d="M234.89 36.494C233.564 36.494 232.394 36.1885 231.383 35.5777C230.371 34.9668 229.588 34.1531 229.031 33.1365C228.475 32.1198 228.197 30.9919 228.197 29.7528C228.197 28.5136 228.486 27.377 229.069 26.3451C229.649 25.3132 230.441 24.4907 231.444 23.8777C232.447 23.2669 233.596 22.9614 234.89 22.9614C236.184 22.9614 237.325 23.2669 238.31 23.8777C239.298 24.4886 240.068 25.311 240.624 26.3451C241.181 27.377 241.459 28.5136 241.459 29.7528C241.459 29.9339 241.45 30.1237 241.435 30.3222C241.417 30.5207 241.393 30.728 241.36 30.9418H231.683C231.865 31.701 232.235 32.3227 232.791 32.8005C233.347 33.2804 234.047 33.5182 234.893 33.5182C235.622 33.5182 236.257 33.3524 236.795 33.023C237.334 32.6936 237.752 32.2791 238.052 31.7839L240.664 33.7429C240.149 34.5523 239.379 35.2134 238.35 35.726C237.321 36.2387 236.169 36.494 234.893 36.494H234.89ZM234.84 25.8346C234.043 25.8346 233.364 26.0746 232.799 26.5524C232.235 27.0323 231.862 27.6606 231.681 28.4373H238.074C237.892 27.7261 237.513 27.1152 236.942 26.6025C236.37 26.0899 235.67 25.8346 234.84 25.8346Z" fill="#333333"/>
<path d="M243.67 36.1712V26.1314H241.855V23.28H243.67V22.4118C243.67 21.1071 244.06 20.0578 244.839 19.2637C245.619 18.4696 246.663 18.0747 247.974 18.0747H249.367V20.9261H248.496C247.517 20.9261 247.029 21.4388 247.029 22.4619V23.28H249.665V26.1314H247.029V36.1712H243.67Z" fill="#333333"/>
<path d="M252.277 36.1712V26.1314H250.462V23.28H252.277V22.4118C252.277 21.1071 252.667 20.0578 253.446 19.2637C254.226 18.4696 255.27 18.0747 256.581 18.0747H257.974V20.9261H257.102C256.124 20.9261 255.636 21.4388 255.636 22.4619V23.28H258.272V26.1314H255.636V36.1712H252.277Z" fill="#333333"/>
</g>
<rect width="240" height="155.057" transform="translate(80 52.9434)" fill="url(#paint1_linear_2_13809)"/>
</g>
<g filter="url(#filter0_d_2_13809)">
<path d="M10 74C10 67.3726 15.3726 62 22 62H180C186.627 62 192 67.3726 192 74V142C192 148.627 186.627 154 180 154H22C15.3726 154 10 148.627 10 142V74Z" fill="white" shape-rendering="crispEdges"/>
<g clip-path="url(#clip3_2_13809)">
<path d="M28.4921 100.208C30.0281 98.928 31.2521 97.864 32.1641 97.016C33.0761 96.152 33.8361 95.256 34.4441 94.328C35.0521 93.4 35.3561 92.488 35.3561 91.592C35.3561 90.776 35.1641 90.136 34.7801 89.672C34.3961 89.208 33.8041 88.976 33.0041 88.976C32.2041 88.976 31.5881 89.248 31.1561 89.792C30.7241 90.32 30.5001 91.048 30.4841 91.976H27.2201C27.2841 90.056 27.8521 88.6 28.9241 87.608C30.0121 86.616 31.3881 86.12 33.0521 86.12C34.8761 86.12 36.2761 86.608 37.2521 87.584C38.2281 88.544 38.7161 89.816 38.7161 91.4C38.7161 92.648 38.3801 93.84 37.7081 94.976C37.0361 96.112 36.2681 97.104 35.4041 97.952C34.5401 98.784 33.4121 99.792 32.0201 100.976H39.1001V103.76H27.2441V101.264L28.4921 100.208ZM45.2733 100.472L42.4653 107.216H40.3053L41.8653 100.472H45.2733ZM56.3831 90.872C56.2231 90.2 55.9431 89.696 55.5431 89.36C55.1591 89.024 54.5991 88.856 53.8631 88.856C52.7591 88.856 51.9431 89.304 51.4151 90.2C50.9031 91.08 50.6391 92.52 50.6231 94.52C51.0071 93.88 51.5671 93.384 52.3031 93.032C53.0391 92.664 53.8391 92.48 54.7031 92.48C55.7431 92.48 56.6631 92.704 57.4631 93.152C58.2631 93.6 58.8871 94.256 59.3351 95.12C59.7831 95.968 60.0071 96.992 60.0071 98.192C60.0071 99.328 59.7751 100.344 59.3111 101.24C58.8631 102.12 58.1991 102.808 57.3191 103.304C56.4391 103.8 55.3911 104.048 54.1751 104.048C52.5111 104.048 51.1991 103.68 50.2391 102.944C49.2951 102.208 48.6311 101.184 48.2471 99.872C47.8791 98.544 47.6951 96.912 47.6951 94.976C47.6951 92.048 48.1991 89.84 49.2071 88.352C50.2151 86.848 51.8071 86.096 53.9831 86.096C55.6631 86.096 56.9671 86.552 57.8951 87.464C58.8231 88.376 59.3591 89.512 59.5031 90.872H56.3831ZM53.9351 95.24C53.0871 95.24 52.3751 95.488 51.7991 95.984C51.2231 96.48 50.9351 97.2 50.9351 98.144C50.9351 99.088 51.1991 99.832 51.7271 100.376C52.2711 100.92 53.0311 101.192 54.0071 101.192C54.8711 101.192 55.5511 100.928 56.0471 100.4C56.5591 99.872 56.8151 99.16 56.8151 98.264C56.8151 97.336 56.5671 96.6 56.0711 96.056C55.5911 95.512 54.8791 95.24 53.9351 95.24ZM66.5506 99.08C66.6786 99.784 66.9666 100.328 67.4146 100.712C67.8786 101.08 68.4946 101.264 69.2626 101.264C70.2546 101.264 70.9746 100.856 71.4226 100.04C71.8706 99.208 72.0946 97.816 72.0946 95.864C71.7266 96.376 71.2066 96.776 70.5346 97.064C69.8786 97.352 69.1666 97.496 68.3986 97.496C67.3746 97.496 66.4466 97.288 65.6146 96.872C64.7986 96.44 64.1506 95.808 63.6706 94.976C63.1906 94.128 62.9506 93.104 62.9506 91.904C62.9506 90.128 63.4786 88.72 64.5346 87.68C65.5906 86.624 67.0306 86.096 68.8546 86.096C71.1266 86.096 72.7266 86.824 73.6546 88.28C74.5986 89.736 75.0706 91.928 75.0706 94.856C75.0706 96.936 74.8866 98.64 74.5186 99.968C74.1666 101.296 73.5506 102.304 72.6706 102.992C71.8066 103.68 70.6226 104.024 69.1186 104.024C67.9346 104.024 66.9266 103.8 66.0946 103.352C65.2626 102.888 64.6226 102.288 64.1746 101.552C63.7426 100.8 63.4946 99.976 63.4306 99.08H66.5506ZM69.0946 94.76C69.9266 94.76 70.5826 94.504 71.0626 93.992C71.5426 93.48 71.7826 92.792 71.7826 91.928C71.7826 90.984 71.5266 90.256 71.0146 89.744C70.5186 89.216 69.8386 88.952 68.9746 88.952C68.1106 88.952 67.4226 89.224 66.9106 89.768C66.4146 90.296 66.1666 91 66.1666 91.88C66.1666 92.728 66.4066 93.424 66.8866 93.968C67.3826 94.496 68.1186 94.76 69.0946 94.76ZM80.6141 94.736C79.0141 93.904 78.2141 92.616 78.2141 90.872C78.2141 90.008 78.4301 89.224 78.8621 88.52C79.3101 87.8 79.9741 87.232 80.8541 86.816C81.7501 86.384 82.8381 86.168 84.1181 86.168C85.3981 86.168 86.4781 86.384 87.3581 86.816C88.2541 87.232 88.9181 87.8 89.3501 88.52C89.7981 89.224 90.0221 90.008 90.0221 90.872C90.0221 91.752 89.8061 92.528 89.3741 93.2C88.9421 93.856 88.3661 94.368 87.6461 94.736C88.5261 95.12 89.2141 95.68 89.7101 96.416C90.2061 97.152 90.4541 98.024 90.4541 99.032C90.4541 100.12 90.1741 101.072 89.6141 101.888C89.0701 102.688 88.3181 103.304 87.3581 103.736C86.3981 104.168 85.3181 104.384 84.1181 104.384C82.9181 104.384 81.8381 104.168 80.8781 103.736C79.9341 103.304 79.1821 102.688 78.6221 101.888C78.0781 101.072 77.8061 100.12 77.8061 99.032C77.8061 98.024 78.0541 97.152 78.5501 96.416C79.0461 95.664 79.7341 95.104 80.6141 94.736ZM86.7581 91.352C86.7581 90.568 86.5181 89.96 86.0381 89.528C85.5741 89.096 84.9341 88.88 84.1181 88.88C83.3181 88.88 82.6781 89.096 82.1981 89.528C81.7341 89.96 81.5021 90.576 81.5021 91.376C81.5021 92.096 81.7421 92.672 82.2221 93.104C82.7181 93.536 83.3501 93.752 84.1181 93.752C84.8861 93.752 85.5181 93.536 86.0141 93.104C86.5101 92.656 86.7581 92.072 86.7581 91.352ZM84.1181 96.2C83.2061 96.2 82.4621 96.432 81.8861 96.896C81.3261 97.36 81.0461 98.024 81.0461 98.888C81.0461 99.688 81.3181 100.344 81.8621 100.856C82.4221 101.352 83.1741 101.6 84.1181 101.6C85.0621 101.6 85.8061 101.344 86.3501 100.832C86.8941 100.32 87.1661 99.672 87.1661 98.888C87.1661 98.04 86.8861 97.384 86.3261 96.92C85.7661 96.44 85.0301 96.2 84.1181 96.2Z" fill="#171725"/>
<path d="M98.746 99.656C99.898 98.696 100.816 97.898 101.5 97.262C102.184 96.614 102.754 95.942 103.21 95.246C103.666 94.55 103.894 93.866 103.894 93.194C103.894 92.582 103.75 92.102 103.462 91.754C103.174 91.406 102.73 91.232 102.13 91.232C101.53 91.232 101.068 91.436 100.744 91.844C100.42 92.24 100.252 92.786 100.24 93.482H97.792C97.84 92.042 98.266 90.95 99.07 90.206C99.886 89.462 100.918 89.09 102.166 89.09C103.534 89.09 104.584 89.456 105.316 90.188C106.048 90.908 106.414 91.862 106.414 93.05C106.414 93.986 106.162 94.88 105.658 95.732C105.154 96.584 104.578 97.328 103.93 97.964C103.282 98.588 102.436 99.344 101.392 100.232H106.702V102.32H97.81V100.448L98.746 99.656ZM109.781 102.626C109.325 102.626 108.947 102.488 108.647 102.212C108.359 101.924 108.215 101.57 108.215 101.15C108.215 100.73 108.359 100.382 108.647 100.106C108.947 99.818 109.325 99.674 109.781 99.674C110.225 99.674 110.591 99.818 110.879 100.106C111.167 100.382 111.311 100.73 111.311 101.15C111.311 101.57 111.167 101.924 110.879 102.212C110.591 102.488 110.225 102.626 109.781 102.626ZM116.057 98.81C116.153 99.338 116.369 99.746 116.705 100.034C117.053 100.31 117.515 100.448 118.091 100.448C118.835 100.448 119.375 100.142 119.711 99.53C120.047 98.906 120.215 97.862 120.215 96.398C119.939 96.782 119.549 97.082 119.045 97.298C118.553 97.514 118.019 97.622 117.443 97.622C116.675 97.622 115.979 97.466 115.355 97.154C114.743 96.83 114.257 96.356 113.897 95.732C113.537 95.096 113.357 94.328 113.357 93.428C113.357 92.096 113.753 91.04 114.545 90.26C115.337 89.468 116.417 89.072 117.785 89.072C119.489 89.072 120.689 89.618 121.385 90.71C122.093 91.802 122.447 93.446 122.447 95.642C122.447 97.202 122.309 98.48 122.033 99.476C121.769 100.472 121.307 101.228 120.647 101.744C119.999 102.26 119.111 102.518 117.983 102.518C117.095 102.518 116.339 102.35 115.715 102.014C115.091 101.666 114.611 101.216 114.275 100.664C113.951 100.1 113.765 99.482 113.717 98.81H116.057ZM117.965 95.57C118.589 95.57 119.081 95.378 119.441 94.994C119.801 94.61 119.981 94.094 119.981 93.446C119.981 92.738 119.789 92.192 119.405 91.808C119.033 91.412 118.523 91.214 117.875 91.214C117.227 91.214 116.711 91.418 116.327 91.826C115.955 92.222 115.769 92.75 115.769 93.41C115.769 94.046 115.949 94.568 116.309 94.976C116.681 95.372 117.233 95.57 117.965 95.57ZM124.208 92.6C124.208 91.688 124.472 90.974 125 90.458C125.54 89.942 126.23 89.684 127.07 89.684C127.91 89.684 128.594 89.942 129.122 90.458C129.662 90.974 129.932 91.688 129.932 92.6C129.932 93.524 129.662 94.244 129.122 94.76C128.594 95.276 127.91 95.534 127.07 95.534C126.23 95.534 125.54 95.276 125 94.76C124.472 94.244 124.208 93.524 124.208 92.6ZM135.764 89.9L128.69 102.5H126.242L133.298 89.9H135.764ZM127.052 91.196C126.392 91.196 126.062 91.664 126.062 92.6C126.062 93.548 126.392 94.022 127.052 94.022C127.376 94.022 127.628 93.908 127.808 93.68C127.988 93.44 128.078 93.08 128.078 92.6C128.078 91.664 127.736 91.196 127.052 91.196ZM132.11 99.782C132.11 98.858 132.374 98.144 132.902 97.64C133.442 97.124 134.132 96.866 134.972 96.866C135.812 96.866 136.49 97.124 137.006 97.64C137.534 98.144 137.798 98.858 137.798 99.782C137.798 100.706 137.534 101.426 137.006 101.942C136.49 102.458 135.812 102.716 134.972 102.716C134.12 102.716 133.43 102.458 132.902 101.942C132.374 101.426 132.11 100.706 132.11 99.782ZM134.954 98.378C134.27 98.378 133.928 98.846 133.928 99.782C133.928 100.73 134.27 101.204 134.954 101.204C135.626 101.204 135.962 100.73 135.962 99.782C135.962 98.846 135.626 98.378 134.954 98.378Z" fill="#9F5DE9"/>
<path d="M150.295 92.2929C150.467 92.1207 150.696 92.0173 150.939 92.002C151.182 91.9867 151.422 92.0606 151.615 92.2099L151.709 92.2929L157.709 98.2929L157.792 98.3869L157.846 98.4639L157.9 98.5599L157.917 98.5959L157.944 98.6629L157.976 98.7709L157.986 98.8239L157.996 98.8839L158 98.9409L158.002 98.9999L158 99.0589L157.995 99.1169L157.986 99.1769L157.976 99.2289L157.944 99.3369L157.917 99.4039L157.847 99.5359L157.782 99.6259L157.709 99.7069L157.615 99.7899L157.538 99.8439L157.442 99.8979L157.406 99.9149L157.339 99.9419L157.231 99.9739L157.178 99.9839L157.118 99.9939L157.061 99.9979L157.002 99.9999H145.002C144.15 99.9999 143.705 99.0139 144.219 98.3769L144.295 98.2929L150.295 92.2929Z" fill="#9F5DE9"/>
<path d="M34.384 120.88V122.368H31.424V132H29.6V122.368H26.624V120.88H34.384ZM38.0553 124.464C38.3219 124.016 38.6739 123.669 39.1113 123.424C39.5593 123.168 40.0873 123.04 40.6953 123.04V124.928H40.2313C39.5166 124.928 38.9726 125.109 38.5993 125.472C38.2366 125.835 38.0553 126.464 38.0553 127.36V132H36.2313V123.184H38.0553V124.464ZM41.7639 127.552C41.7639 126.667 41.9452 125.883 42.3079 125.2C42.6812 124.517 43.1825 123.989 43.8119 123.616C44.4519 123.232 45.1559 123.04 45.9239 123.04C46.6172 123.04 47.2199 123.179 47.7319 123.456C48.2545 123.723 48.6705 124.059 48.9799 124.464V123.184H50.8199V132H48.9799V130.688C48.6705 131.104 48.2492 131.451 47.7159 131.728C47.1825 132.005 46.5745 132.144 45.8919 132.144C45.1345 132.144 44.4412 131.952 43.8119 131.568C43.1825 131.173 42.6812 130.629 42.3079 129.936C41.9452 129.232 41.7639 128.437 41.7639 127.552ZM48.9799 127.584C48.9799 126.976 48.8519 126.448 48.5959 126C48.3505 125.552 48.0252 125.211 47.6199 124.976C47.2145 124.741 46.7772 124.624 46.3079 124.624C45.8385 124.624 45.4012 124.741 44.9959 124.976C44.5905 125.2 44.2599 125.536 44.0039 125.984C43.7585 126.421 43.6359 126.944 43.6359 127.552C43.6359 128.16 43.7585 128.693 44.0039 129.152C44.2599 129.611 44.5905 129.963 44.9959 130.208C45.4119 130.443 45.8492 130.56 46.3079 130.56C46.7772 130.56 47.2145 130.443 47.6199 130.208C48.0252 129.973 48.3505 129.632 48.5959 129.184C48.8519 128.725 48.9799 128.192 48.9799 127.584ZM56.9116 124.672H55.2796V132H53.4396V124.672H52.3996V123.184H53.4396V122.56C53.4396 121.547 53.7063 120.811 54.2396 120.352C54.7836 119.883 55.6316 119.648 56.7836 119.648V121.168C56.229 121.168 55.8396 121.275 55.6156 121.488C55.3916 121.691 55.2796 122.048 55.2796 122.56V123.184H56.9116V124.672ZM62.2241 124.672H60.5921V132H58.7521V124.672H57.7121V123.184H58.7521V122.56C58.7521 121.547 59.0188 120.811 59.5521 120.352C60.0961 119.883 60.9441 119.648 62.0961 119.648V121.168C61.5415 121.168 61.1521 121.275 60.9281 121.488C60.7041 121.691 60.5921 122.048 60.5921 122.56V123.184H62.2241V124.672ZM64.7686 122.016C64.438 122.016 64.1606 121.904 63.9366 121.68C63.7126 121.456 63.6006 121.179 63.6006 120.848C63.6006 120.517 63.7126 120.24 63.9366 120.016C64.1606 119.792 64.438 119.68 64.7686 119.68C65.0886 119.68 65.3606 119.792 65.5846 120.016C65.8086 120.24 65.9206 120.517 65.9206 120.848C65.9206 121.179 65.8086 121.456 65.5846 121.68C65.3606 121.904 65.0886 122.016 64.7686 122.016ZM65.6646 123.184V132H63.8406V123.184H65.6646ZM67.4514 127.584C67.4514 126.677 67.6327 125.883 67.9954 125.2C68.3687 124.507 68.8807 123.973 69.5314 123.6C70.182 123.227 70.9287 123.04 71.7714 123.04C72.838 123.04 73.718 123.296 74.4114 123.808C75.1154 124.309 75.59 125.029 75.8354 125.968H73.8674C73.7074 125.531 73.4514 125.189 73.0994 124.944C72.7474 124.699 72.3047 124.576 71.7714 124.576C71.0247 124.576 70.4274 124.843 69.9794 125.376C69.542 125.899 69.3234 126.635 69.3234 127.584C69.3234 128.533 69.542 129.275 69.9794 129.808C70.4274 130.341 71.0247 130.608 71.7714 130.608C72.8274 130.608 73.526 130.144 73.8674 129.216H75.8354C75.5794 130.112 75.0994 130.827 74.3954 131.36C73.6914 131.883 72.8167 132.144 71.7714 132.144C70.9287 132.144 70.182 131.957 69.5314 131.584C68.8807 131.2 68.3687 130.667 67.9954 129.984C67.6327 129.291 67.4514 128.491 67.4514 127.584ZM83.9374 124.672V129.552C83.9374 129.883 84.012 130.123 84.1614 130.272C84.3214 130.411 84.588 130.48 84.9614 130.48H86.0814V132H84.6414C83.82 132 83.1907 131.808 82.7534 131.424C82.316 131.04 82.0974 130.416 82.0974 129.552V124.672H81.0574V123.184H82.0974V120.992H83.9374V123.184H86.0814V124.672H83.9374ZM92.3225 123.04C92.9945 123.04 93.5918 123.184 94.1145 123.472C94.6478 123.76 95.0638 124.187 95.3625 124.752C95.6718 125.317 95.8265 126 95.8265 126.8V132H94.0185V127.072C94.0185 126.283 93.8212 125.68 93.4265 125.264C93.0318 124.837 92.4932 124.624 91.8105 124.624C91.1278 124.624 90.5838 124.837 90.1785 125.264C89.7838 125.68 89.5865 126.283 89.5865 127.072V132H87.7625V120.16H89.5865V124.208C89.8958 123.835 90.2852 123.547 90.7545 123.344C91.2345 123.141 91.7572 123.04 92.3225 123.04ZM99.0811 122.016C98.7505 122.016 98.4731 121.904 98.2491 121.68C98.0251 121.456 97.9131 121.179 97.9131 120.848C97.9131 120.517 98.0251 120.24 98.2491 120.016C98.4731 119.792 98.7505 119.68 99.0811 119.68C99.4011 119.68 99.6731 119.792 99.8971 120.016C100.121 120.24 100.233 120.517 100.233 120.848C100.233 121.179 100.121 121.456 99.8971 121.68C99.6731 121.904 99.4011 122.016 99.0811 122.016ZM99.9771 123.184V132H98.1531V123.184H99.9771ZM105.572 132.144C104.879 132.144 104.255 132.021 103.7 131.776C103.156 131.52 102.724 131.179 102.404 130.752C102.084 130.315 101.913 129.829 101.892 129.296H103.78C103.812 129.669 103.988 129.984 104.308 130.24C104.639 130.485 105.049 130.608 105.54 130.608C106.052 130.608 106.447 130.512 106.724 130.32C107.012 130.117 107.156 129.861 107.156 129.552C107.156 129.221 106.996 128.976 106.676 128.816C106.367 128.656 105.871 128.48 105.188 128.288C104.527 128.107 103.988 127.931 103.572 127.76C103.156 127.589 102.793 127.328 102.484 126.976C102.185 126.624 102.036 126.16 102.036 125.584C102.036 125.115 102.175 124.688 102.452 124.304C102.729 123.909 103.124 123.6 103.636 123.376C104.159 123.152 104.756 123.04 105.428 123.04C106.431 123.04 107.236 123.296 107.844 123.808C108.463 124.309 108.793 124.997 108.836 125.872H107.012C106.98 125.477 106.82 125.163 106.532 124.928C106.244 124.693 105.855 124.576 105.364 124.576C104.884 124.576 104.516 124.667 104.26 124.848C104.004 125.029 103.876 125.269 103.876 125.568C103.876 125.803 103.961 126 104.132 126.16C104.303 126.32 104.511 126.448 104.756 126.544C105.001 126.629 105.364 126.741 105.844 126.88C106.484 127.051 107.007 127.227 107.412 127.408C107.828 127.579 108.185 127.835 108.484 128.176C108.783 128.517 108.937 128.971 108.948 129.536C108.948 130.037 108.809 130.485 108.532 130.88C108.255 131.275 107.86 131.584 107.348 131.808C106.847 132.032 106.255 132.144 105.572 132.144ZM125.747 123.04C126.44 123.04 127.059 123.184 127.603 123.472C128.158 123.76 128.59 124.187 128.899 124.752C129.219 125.317 129.379 126 129.379 126.8V132H127.571V127.072C127.571 126.283 127.374 125.68 126.979 125.264C126.584 124.837 126.046 124.624 125.363 124.624C124.68 124.624 124.136 124.837 123.731 125.264C123.336 125.68 123.139 126.283 123.139 127.072V132H121.331V127.072C121.331 126.283 121.134 125.68 120.739 125.264C120.344 124.837 119.806 124.624 119.123 124.624C118.44 124.624 117.896 124.837 117.491 125.264C117.096 125.68 116.899 126.283 116.899 127.072V132H115.075V123.184H116.899V124.192C117.198 123.829 117.576 123.547 118.035 123.344C118.494 123.141 118.984 123.04 119.507 123.04C120.211 123.04 120.84 123.189 121.395 123.488C121.95 123.787 122.376 124.219 122.675 124.784C122.942 124.251 123.358 123.829 123.923 123.52C124.488 123.2 125.096 123.04 125.747 123.04ZM135.524 132.144C134.692 132.144 133.94 131.957 133.268 131.584C132.596 131.2 132.068 130.667 131.684 129.984C131.3 129.291 131.108 128.491 131.108 127.584C131.108 126.688 131.305 125.893 131.7 125.2C132.095 124.507 132.633 123.973 133.316 123.6C133.999 123.227 134.761 123.04 135.604 123.04C136.447 123.04 137.209 123.227 137.892 123.6C138.575 123.973 139.113 124.507 139.508 125.2C139.903 125.893 140.1 126.688 140.1 127.584C140.1 128.48 139.897 129.275 139.492 129.968C139.087 130.661 138.532 131.2 137.828 131.584C137.135 131.957 136.367 132.144 135.524 132.144ZM135.524 130.56C135.993 130.56 136.431 130.448 136.836 130.224C137.252 130 137.588 129.664 137.844 129.216C138.1 128.768 138.228 128.224 138.228 127.584C138.228 126.944 138.105 126.405 137.86 125.968C137.615 125.52 137.289 125.184 136.884 124.96C136.479 124.736 136.041 124.624 135.572 124.624C135.103 124.624 134.665 124.736 134.26 124.96C133.865 125.184 133.551 125.52 133.316 125.968C133.081 126.405 132.964 126.944 132.964 127.584C132.964 128.533 133.204 129.269 133.684 129.792C134.175 130.304 134.788 130.56 135.524 130.56ZM146.351 123.04C147.044 123.04 147.663 123.184 148.207 123.472C148.762 123.76 149.194 124.187 149.503 124.752C149.812 125.317 149.967 126 149.967 126.8V132H148.159V127.072C148.159 126.283 147.962 125.68 147.567 125.264C147.172 124.837 146.634 124.624 145.951 124.624C145.268 124.624 144.724 124.837 144.319 125.264C143.924 125.68 143.727 126.283 143.727 127.072V132H141.903V123.184H143.727V124.192C144.026 123.829 144.404 123.547 144.863 123.344C145.332 123.141 145.828 123.04 146.351 123.04ZM154.422 124.672V129.552C154.422 129.883 154.496 130.123 154.646 130.272C154.806 130.411 155.072 130.48 155.446 130.48H156.566V132H155.126C154.304 132 153.675 131.808 153.238 131.424C152.8 131.04 152.582 130.416 152.582 129.552V124.672H151.542V123.184H152.582V120.992H154.422V123.184H156.566V124.672H154.422ZM162.807 123.04C163.479 123.04 164.076 123.184 164.599 123.472C165.132 123.76 165.548 124.187 165.847 124.752C166.156 125.317 166.311 126 166.311 126.8V132H164.503V127.072C164.503 126.283 164.306 125.68 163.911 125.264C163.516 124.837 162.978 124.624 162.295 124.624C161.612 124.624 161.068 124.837 160.663 125.264C160.268 125.68 160.071 126.283 160.071 127.072V132H158.247V120.16H160.071V124.208C160.38 123.835 160.77 123.547 161.239 123.344C161.719 123.141 162.242 123.04 162.807 123.04Z" fill="#5C5C5C"/>
</g>
</g>
<g filter="url(#filter1_d_2_13809)">
<path d="M110 184C110 177.373 115.373 172 122 172H280C286.627 172 292 177.373 292 184V252C292 258.627 286.627 264 280 264H122C115.373 264 110 258.627 110 252V184Z" fill="white" shape-rendering="crispEdges"/>
<g clip-path="url(#clip4_2_13809)">
<path d="M139.165 199.408H131.389V203.512C131.725 203.096 132.205 202.76 132.829 202.504C133.453 202.232 134.117 202.096 134.821 202.096C136.101 202.096 137.149 202.376 137.965 202.936C138.781 203.496 139.373 204.216 139.741 205.096C140.109 205.96 140.293 206.888 140.293 207.88C140.293 209.72 139.765 211.2 138.709 212.32C137.669 213.44 136.181 214 134.245 214C132.421 214 130.965 213.544 129.877 212.632C128.789 211.72 128.173 210.528 128.029 209.056H131.293C131.437 209.696 131.757 210.208 132.253 210.592C132.765 210.976 133.413 211.168 134.197 211.168C135.141 211.168 135.853 210.872 136.333 210.28C136.813 209.688 137.053 208.904 137.053 207.928C137.053 206.936 136.805 206.184 136.309 205.672C135.829 205.144 135.117 204.88 134.173 204.88C133.501 204.88 132.941 205.048 132.493 205.384C132.045 205.72 131.725 206.168 131.533 206.728H128.317V196.456H139.165V199.408ZM146.906 210.472L144.098 217.216H141.938L143.498 210.472H146.906ZM151.872 204.736C150.272 203.904 149.472 202.616 149.472 200.872C149.472 200.008 149.688 199.224 150.12 198.52C150.568 197.8 151.232 197.232 152.112 196.816C153.008 196.384 154.096 196.168 155.376 196.168C156.656 196.168 157.736 196.384 158.616 196.816C159.512 197.232 160.176 197.8 160.608 198.52C161.056 199.224 161.28 200.008 161.28 200.872C161.28 201.752 161.064 202.528 160.632 203.2C160.2 203.856 159.624 204.368 158.904 204.736C159.784 205.12 160.472 205.68 160.968 206.416C161.464 207.152 161.712 208.024 161.712 209.032C161.712 210.12 161.432 211.072 160.872 211.888C160.328 212.688 159.576 213.304 158.616 213.736C157.656 214.168 156.576 214.384 155.376 214.384C154.176 214.384 153.096 214.168 152.136 213.736C151.192 213.304 150.44 212.688 149.88 211.888C149.336 211.072 149.064 210.12 149.064 209.032C149.064 208.024 149.312 207.152 149.808 206.416C150.304 205.664 150.992 205.104 151.872 204.736ZM158.016 201.352C158.016 200.568 157.776 199.96 157.296 199.528C156.832 199.096 156.192 198.88 155.376 198.88C154.576 198.88 153.936 199.096 153.456 199.528C152.992 199.96 152.76 200.576 152.76 201.376C152.76 202.096 153 202.672 153.48 203.104C153.976 203.536 154.608 203.752 155.376 203.752C156.144 203.752 156.776 203.536 157.272 203.104C157.768 202.656 158.016 202.072 158.016 201.352ZM155.376 206.2C154.464 206.2 153.72 206.432 153.144 206.896C152.584 207.36 152.304 208.024 152.304 208.888C152.304 209.688 152.576 210.344 153.12 210.856C153.68 211.352 154.432 211.6 155.376 211.6C156.32 211.6 157.064 211.344 157.608 210.832C158.152 210.32 158.424 209.672 158.424 208.888C158.424 208.04 158.144 207.384 157.584 206.92C157.024 206.44 156.288 206.2 155.376 206.2ZM173.438 200.872C173.278 200.2 172.998 199.696 172.598 199.36C172.214 199.024 171.654 198.856 170.918 198.856C169.814 198.856 168.998 199.304 168.47 200.2C167.958 201.08 167.694 202.52 167.678 204.52C168.062 203.88 168.622 203.384 169.358 203.032C170.094 202.664 170.894 202.48 171.758 202.48C172.798 202.48 173.718 202.704 174.518 203.152C175.318 203.6 175.942 204.256 176.39 205.12C176.838 205.968 177.062 206.992 177.062 208.192C177.062 209.328 176.83 210.344 176.366 211.24C175.918 212.12 175.254 212.808 174.374 213.304C173.494 213.8 172.446 214.048 171.23 214.048C169.566 214.048 168.254 213.68 167.294 212.944C166.35 212.208 165.686 211.184 165.302 209.872C164.934 208.544 164.75 206.912 164.75 204.976C164.75 202.048 165.254 199.84 166.262 198.352C167.27 196.848 168.862 196.096 171.038 196.096C172.718 196.096 174.022 196.552 174.95 197.464C175.878 198.376 176.414 199.512 176.558 200.872H173.438ZM170.99 205.24C170.142 205.24 169.43 205.488 168.854 205.984C168.278 206.48 167.99 207.2 167.99 208.144C167.99 209.088 168.254 209.832 168.782 210.376C169.326 210.92 170.086 211.192 171.062 211.192C171.926 211.192 172.606 210.928 173.102 210.4C173.614 209.872 173.87 209.16 173.87 208.264C173.87 207.336 173.622 206.6 173.126 206.056C172.646 205.512 171.934 205.24 170.99 205.24ZM182.645 204.736C181.045 203.904 180.245 202.616 180.245 200.872C180.245 200.008 180.461 199.224 180.893 198.52C181.341 197.8 182.005 197.232 182.885 196.816C183.781 196.384 184.869 196.168 186.149 196.168C187.429 196.168 188.509 196.384 189.389 196.816C190.285 197.232 190.949 197.8 191.381 198.52C191.829 199.224 192.053 200.008 192.053 200.872C192.053 201.752 191.837 202.528 191.405 203.2C190.973 203.856 190.397 204.368 189.677 204.736C190.557 205.12 191.245 205.68 191.741 206.416C192.237 207.152 192.485 208.024 192.485 209.032C192.485 210.12 192.205 211.072 191.645 211.888C191.101 212.688 190.349 213.304 189.389 213.736C188.429 214.168 187.349 214.384 186.149 214.384C184.949 214.384 183.869 214.168 182.909 213.736C181.965 213.304 181.213 212.688 180.653 211.888C180.109 211.072 179.837 210.12 179.837 209.032C179.837 208.024 180.085 207.152 180.581 206.416C181.077 205.664 181.765 205.104 182.645 204.736ZM188.789 201.352C188.789 200.568 188.549 199.96 188.069 199.528C187.605 199.096 186.965 198.88 186.149 198.88C185.349 198.88 184.709 199.096 184.229 199.528C183.765 199.96 183.533 200.576 183.533 201.376C183.533 202.096 183.773 202.672 184.253 203.104C184.749 203.536 185.381 203.752 186.149 203.752C186.917 203.752 187.549 203.536 188.045 203.104C188.541 202.656 188.789 202.072 188.789 201.352ZM186.149 206.2C185.237 206.2 184.493 206.432 183.917 206.896C183.357 207.36 183.077 208.024 183.077 208.888C183.077 209.688 183.349 210.344 183.893 210.856C184.453 211.352 185.205 211.6 186.149 211.6C187.093 211.6 187.837 211.344 188.381 210.832C188.925 210.32 189.197 209.672 189.197 208.888C189.197 208.04 188.917 207.384 188.357 206.92C187.797 206.44 187.061 206.2 186.149 206.2Z" fill="#171725"/>
<path d="M200.746 209.656C201.898 208.696 202.816 207.898 203.5 207.262C204.184 206.614 204.754 205.942 205.21 205.246C205.666 204.55 205.894 203.866 205.894 203.194C205.894 202.582 205.75 202.102 205.462 201.754C205.174 201.406 204.73 201.232 204.13 201.232C203.53 201.232 203.068 201.436 202.744 201.844C202.42 202.24 202.252 202.786 202.24 203.482H199.792C199.84 202.042 200.266 200.95 201.07 200.206C201.886 199.462 202.918 199.09 204.166 199.09C205.534 199.09 206.584 199.456 207.316 200.188C208.048 200.908 208.414 201.862 208.414 203.05C208.414 203.986 208.162 204.88 207.658 205.732C207.154 206.584 206.578 207.328 205.93 207.964C205.282 208.588 204.436 209.344 203.392 210.232H208.702V212.32H199.81V210.448L200.746 209.656ZM211.781 212.626C211.325 212.626 210.947 212.488 210.647 212.212C210.359 211.924 210.215 211.57 210.215 211.15C210.215 210.73 210.359 210.382 210.647 210.106C210.947 209.818 211.325 209.674 211.781 209.674C212.225 209.674 212.591 209.818 212.879 210.106C213.167 210.382 213.311 210.73 213.311 211.15C213.311 211.57 213.167 211.924 212.879 212.212C212.591 212.488 212.225 212.626 211.781 212.626ZM215.933 209.656C217.085 208.696 218.003 207.898 218.687 207.262C219.371 206.614 219.941 205.942 220.397 205.246C220.853 204.55 221.081 203.866 221.081 203.194C221.081 202.582 220.937 202.102 220.649 201.754C220.361 201.406 219.917 201.232 219.317 201.232C218.717 201.232 218.255 201.436 217.931 201.844C217.607 202.24 217.439 202.786 217.427 203.482H214.979C215.027 202.042 215.453 200.95 216.257 200.206C217.073 199.462 218.105 199.09 219.353 199.09C220.721 199.09 221.771 199.456 222.503 200.188C223.235 200.908 223.601 201.862 223.601 203.05C223.601 203.986 223.349 204.88 222.845 205.732C222.341 206.584 221.765 207.328 221.117 207.964C220.469 208.588 219.623 209.344 218.579 210.232H223.889V212.32H214.997V210.448L215.933 209.656ZM225.276 202.6C225.276 201.688 225.54 200.974 226.068 200.458C226.608 199.942 227.298 199.684 228.138 199.684C228.978 199.684 229.662 199.942 230.19 200.458C230.73 200.974 231 201.688 231 202.6C231 203.524 230.73 204.244 230.19 204.76C229.662 205.276 228.978 205.534 228.138 205.534C227.298 205.534 226.608 205.276 226.068 204.76C225.54 204.244 225.276 203.524 225.276 202.6ZM236.832 199.9L229.758 212.5H227.31L234.366 199.9H236.832ZM228.12 201.196C227.46 201.196 227.13 201.664 227.13 202.6C227.13 203.548 227.46 204.022 228.12 204.022C228.444 204.022 228.696 203.908 228.876 203.68C229.056 203.44 229.146 203.08 229.146 202.6C229.146 201.664 228.804 201.196 228.12 201.196ZM233.178 209.782C233.178 208.858 233.442 208.144 233.97 207.64C234.51 207.124 235.2 206.866 236.04 206.866C236.88 206.866 237.558 207.124 238.074 207.64C238.602 208.144 238.866 208.858 238.866 209.782C238.866 210.706 238.602 211.426 238.074 211.942C237.558 212.458 236.88 212.716 236.04 212.716C235.188 212.716 234.498 212.458 233.97 211.942C233.442 211.426 233.178 210.706 233.178 209.782ZM236.022 208.378C235.338 208.378 234.996 208.846 234.996 209.782C234.996 210.73 235.338 211.204 236.022 211.204C236.694 211.204 237.03 210.73 237.03 209.782C237.03 208.846 236.694 208.378 236.022 208.378Z" fill="#9F5DE9"/>
<path d="M251.295 202.293C251.467 202.121 251.696 202.017 251.939 202.002C252.182 201.987 252.422 202.061 252.615 202.21L252.709 202.293L258.709 208.293L258.792 208.387L258.846 208.464L258.9 208.56L258.917 208.596L258.944 208.663L258.976 208.771L258.986 208.824L258.996 208.884L259 208.941L259.002 209L259 209.059L258.995 209.117L258.986 209.177L258.976 209.229L258.944 209.337L258.917 209.404L258.847 209.536L258.782 209.626L258.709 209.707L258.615 209.79L258.538 209.844L258.442 209.898L258.406 209.915L258.339 209.942L258.231 209.974L258.178 209.984L258.118 209.994L258.061 209.998L258.002 210H246.002C245.15 210 244.705 209.014 245.219 208.377L245.295 208.293L251.295 202.293Z" fill="#9F5DE9"/>
<path d="M136.784 230.88L132.608 242H130.496L126.304 230.88H128.256L131.552 240.128L134.864 230.88H136.784ZM139.237 232.016C138.907 232.016 138.629 231.904 138.405 231.68C138.181 231.456 138.069 231.179 138.069 230.848C138.069 230.517 138.181 230.24 138.405 230.016C138.629 229.792 138.907 229.68 139.237 229.68C139.557 229.68 139.829 229.792 140.053 230.016C140.277 230.24 140.389 230.517 140.389 230.848C140.389 231.179 140.277 231.456 140.053 231.68C139.829 231.904 139.557 232.016 139.237 232.016ZM140.133 233.184V242H138.309V233.184H140.133ZM145.728 242.144C145.035 242.144 144.411 242.021 143.856 241.776C143.312 241.52 142.88 241.179 142.56 240.752C142.24 240.315 142.069 239.829 142.048 239.296H143.936C143.968 239.669 144.144 239.984 144.464 240.24C144.795 240.485 145.205 240.608 145.696 240.608C146.208 240.608 146.603 240.512 146.88 240.32C147.168 240.117 147.312 239.861 147.312 239.552C147.312 239.221 147.152 238.976 146.832 238.816C146.523 238.656 146.027 238.48 145.344 238.288C144.683 238.107 144.144 237.931 143.728 237.76C143.312 237.589 142.949 237.328 142.64 236.976C142.341 236.624 142.192 236.16 142.192 235.584C142.192 235.115 142.331 234.688 142.608 234.304C142.885 233.909 143.28 233.6 143.792 233.376C144.315 233.152 144.912 233.04 145.584 233.04C146.587 233.04 147.392 233.296 148 233.808C148.619 234.309 148.949 234.997 148.992 235.872H147.168C147.136 235.477 146.976 235.163 146.688 234.928C146.4 234.693 146.011 234.576 145.52 234.576C145.04 234.576 144.672 234.667 144.416 234.848C144.16 235.029 144.032 235.269 144.032 235.568C144.032 235.803 144.117 236 144.288 236.16C144.459 236.32 144.667 236.448 144.912 236.544C145.157 236.629 145.52 236.741 146 236.88C146.64 237.051 147.163 237.227 147.568 237.408C147.984 237.579 148.341 237.835 148.64 238.176C148.939 238.517 149.093 238.971 149.104 239.536C149.104 240.037 148.965 240.485 148.688 240.88C148.411 241.275 148.016 241.584 147.504 241.808C147.003 242.032 146.411 242.144 145.728 242.144ZM152.003 232.016C151.672 232.016 151.395 231.904 151.171 231.68C150.947 231.456 150.835 231.179 150.835 230.848C150.835 230.517 150.947 230.24 151.171 230.016C151.395 229.792 151.672 229.68 152.003 229.68C152.323 229.68 152.595 229.792 152.819 230.016C153.043 230.24 153.155 230.517 153.155 230.848C153.155 231.179 153.043 231.456 152.819 231.68C152.595 231.904 152.323 232.016 152.003 232.016ZM152.899 233.184V242H151.075V233.184H152.899ZM157.422 234.672V239.552C157.422 239.883 157.496 240.123 157.646 240.272C157.806 240.411 158.072 240.48 158.446 240.48H159.566V242H158.126C157.304 242 156.675 241.808 156.238 241.424C155.8 241.04 155.582 240.416 155.582 239.552V234.672H154.542V233.184H155.582V230.992H157.422V233.184H159.566V234.672H157.422ZM165.071 242.144C164.239 242.144 163.487 241.957 162.815 241.584C162.143 241.2 161.615 240.667 161.231 239.984C160.847 239.291 160.655 238.491 160.655 237.584C160.655 236.688 160.852 235.893 161.247 235.2C161.642 234.507 162.18 233.973 162.863 233.6C163.546 233.227 164.308 233.04 165.151 233.04C165.994 233.04 166.756 233.227 167.439 233.6C168.122 233.973 168.66 234.507 169.055 235.2C169.45 235.893 169.647 236.688 169.647 237.584C169.647 238.48 169.444 239.275 169.039 239.968C168.634 240.661 168.079 241.2 167.375 241.584C166.682 241.957 165.914 242.144 165.071 242.144ZM165.071 240.56C165.54 240.56 165.978 240.448 166.383 240.224C166.799 240 167.135 239.664 167.391 239.216C167.647 238.768 167.775 238.224 167.775 237.584C167.775 236.944 167.652 236.405 167.407 235.968C167.162 235.52 166.836 235.184 166.431 234.96C166.026 234.736 165.588 234.624 165.119 234.624C164.65 234.624 164.212 234.736 163.807 234.96C163.412 235.184 163.098 235.52 162.863 235.968C162.628 236.405 162.511 236.944 162.511 237.584C162.511 238.533 162.751 239.269 163.231 239.792C163.722 240.304 164.335 240.56 165.071 240.56ZM173.274 234.464C173.541 234.016 173.893 233.669 174.33 233.424C174.778 233.168 175.306 233.04 175.914 233.04V234.928H175.45C174.735 234.928 174.191 235.109 173.818 235.472C173.455 235.835 173.274 236.464 173.274 237.36V242H171.45V233.184H173.274V234.464ZM180.791 242.144C180.097 242.144 179.473 242.021 178.919 241.776C178.375 241.52 177.943 241.179 177.623 240.752C177.303 240.315 177.132 239.829 177.111 239.296H178.999C179.031 239.669 179.207 239.984 179.527 240.24C179.857 240.485 180.268 240.608 180.759 240.608C181.271 240.608 181.665 240.512 181.943 240.32C182.231 240.117 182.375 239.861 182.375 239.552C182.375 239.221 182.215 238.976 181.895 238.816C181.585 238.656 181.089 238.48 180.407 238.288C179.745 238.107 179.207 237.931 178.791 237.76C178.375 237.589 178.012 237.328 177.703 236.976C177.404 236.624 177.255 236.16 177.255 235.584C177.255 235.115 177.393 234.688 177.671 234.304C177.948 233.909 178.343 233.6 178.855 233.376C179.377 233.152 179.975 233.04 180.647 233.04C181.649 233.04 182.455 233.296 183.063 233.808C183.681 234.309 184.012 234.997 184.055 235.872H182.231C182.199 235.477 182.039 235.163 181.751 234.928C181.463 234.693 181.073 234.576 180.583 234.576C180.103 234.576 179.735 234.667 179.479 234.848C179.223 235.029 179.095 235.269 179.095 235.568C179.095 235.803 179.18 236 179.351 236.16C179.521 236.32 179.729 236.448 179.975 236.544C180.22 236.629 180.583 236.741 181.063 236.88C181.703 237.051 182.225 237.227 182.631 237.408C183.047 237.579 183.404 237.835 183.703 238.176C184.001 238.517 184.156 238.971 184.167 239.536C184.167 240.037 184.028 240.485 183.751 240.88C183.473 241.275 183.079 241.584 182.567 241.808C182.065 242.032 181.473 242.144 180.791 242.144Z" fill="#5C5C5C"/>
</g>
</g>
<g filter="url(#filter2_d_2_13809)">
<path d="M220 74C220 67.3726 225.373 62 232 62H390C396.627 62 402 67.3726 402 74V142C402 148.627 396.627 154 390 154H232C225.373 154 220 148.627 220 142V74Z" fill="white" shape-rendering="crispEdges"/>
<g clip-path="url(#clip5_2_13809)">
<path d="M238.43 100.208C239.966 98.928 241.19 97.864 242.102 97.016C243.014 96.152 243.774 95.256 244.382 94.328C244.99 93.4 245.294 92.488 245.294 91.592C245.294 90.776 245.102 90.136 244.718 89.672C244.334 89.208 243.742 88.976 242.942 88.976C242.142 88.976 241.526 89.248 241.094 89.792C240.662 90.32 240.438 91.048 240.422 91.976H237.158C237.222 90.056 237.79 88.6 238.862 87.608C239.95 86.616 241.326 86.12 242.99 86.12C244.814 86.12 246.214 86.608 247.19 87.584C248.166 88.544 248.654 89.816 248.654 91.4C248.654 92.648 248.318 93.84 247.646 94.976C246.974 96.112 246.206 97.104 245.342 97.952C244.478 98.784 243.35 99.792 241.958 100.976H249.038V103.76H237.182V101.264L238.43 100.208ZM255.211 100.472L252.403 107.216H250.243L251.803 100.472H255.211ZM256.841 89.6V86.504H262.625V104H259.169V89.6H256.841ZM267 100.208C268.536 98.928 269.76 97.864 270.672 97.016C271.584 96.152 272.344 95.256 272.952 94.328C273.56 93.4 273.864 92.488 273.864 91.592C273.864 90.776 273.672 90.136 273.288 89.672C272.904 89.208 272.312 88.976 271.512 88.976C270.712 88.976 270.096 89.248 269.664 89.792C269.232 90.32 269.008 91.048 268.992 91.976H265.728C265.792 90.056 266.36 88.6 267.432 87.608C268.52 86.616 269.896 86.12 271.56 86.12C273.384 86.12 274.784 86.608 275.76 87.584C276.736 88.544 277.224 89.816 277.224 91.4C277.224 92.648 276.888 93.84 276.216 94.976C275.544 96.112 274.776 97.104 273.912 97.952C273.048 98.784 271.92 99.792 270.528 100.976H277.608V103.76H265.752V101.264L267 100.208ZM291.485 89.408H283.709V93.512C284.045 93.096 284.525 92.76 285.149 92.504C285.773 92.232 286.437 92.096 287.141 92.096C288.421 92.096 289.469 92.376 290.285 92.936C291.101 93.496 291.693 94.216 292.061 95.096C292.429 95.96 292.613 96.888 292.613 97.88C292.613 99.72 292.085 101.2 291.029 102.32C289.989 103.44 288.501 104 286.565 104C284.741 104 283.285 103.544 282.197 102.632C281.109 101.72 280.493 100.528 280.349 99.056H283.613C283.757 99.696 284.077 100.208 284.573 100.592C285.085 100.976 285.733 101.168 286.517 101.168C287.461 101.168 288.173 100.872 288.653 100.28C289.133 99.688 289.373 98.904 289.373 97.928C289.373 96.936 289.125 96.184 288.629 95.672C288.149 95.144 287.437 94.88 286.493 94.88C285.821 94.88 285.261 95.048 284.813 95.384C284.365 95.72 284.045 96.168 283.853 96.728H280.637V86.456H291.485V89.408Z" fill="#171725"/>
<path d="M299.99 92.834C300.05 91.634 300.47 90.71 301.25 90.062C302.042 89.402 303.08 89.072 304.364 89.072C305.24 89.072 305.99 89.228 306.614 89.54C307.238 89.84 307.706 90.254 308.018 90.782C308.342 91.298 308.504 91.886 308.504 92.546C308.504 93.302 308.306 93.944 307.91 94.472C307.526 94.988 307.064 95.336 306.524 95.516V95.588C307.22 95.804 307.76 96.188 308.144 96.74C308.54 97.292 308.738 98 308.738 98.864C308.738 99.584 308.57 100.226 308.234 100.79C307.91 101.354 307.424 101.798 306.776 102.122C306.14 102.434 305.372 102.59 304.472 102.59C303.116 102.59 302.012 102.248 301.16 101.564C300.308 100.88 299.858 99.872 299.81 98.54H302.258C302.282 99.128 302.48 99.602 302.852 99.962C303.236 100.31 303.758 100.484 304.418 100.484C305.03 100.484 305.498 100.316 305.822 99.98C306.158 99.632 306.326 99.188 306.326 98.648C306.326 97.928 306.098 97.412 305.642 97.1C305.186 96.788 304.478 96.632 303.518 96.632H302.996V94.562H303.518C305.222 94.562 306.074 93.992 306.074 92.852C306.074 92.336 305.918 91.934 305.606 91.646C305.306 91.358 304.868 91.214 304.292 91.214C303.728 91.214 303.29 91.37 302.978 91.682C302.678 91.982 302.504 92.366 302.456 92.834H299.99ZM312.221 102.626C311.765 102.626 311.387 102.488 311.087 102.212C310.799 101.924 310.655 101.57 310.655 101.15C310.655 100.73 310.799 100.382 311.087 100.106C311.387 99.818 311.765 99.674 312.221 99.674C312.665 99.674 313.031 99.818 313.319 100.106C313.607 100.382 313.751 100.73 313.751 101.15C313.751 101.57 313.607 101.924 313.319 102.212C313.031 102.488 312.665 102.626 312.221 102.626ZM315.58 95.768C315.58 93.692 315.952 92.066 316.696 90.89C317.452 89.714 318.7 89.126 320.44 89.126C322.18 89.126 323.422 89.714 324.166 90.89C324.922 92.066 325.3 93.692 325.3 95.768C325.3 97.856 324.922 99.494 324.166 100.682C323.422 101.87 322.18 102.464 320.44 102.464C318.7 102.464 317.452 101.87 316.696 100.682C315.952 99.494 315.58 97.856 315.58 95.768ZM322.816 95.768C322.816 94.88 322.756 94.136 322.636 93.536C322.528 92.924 322.3 92.426 321.952 92.042C321.616 91.658 321.112 91.466 320.44 91.466C319.768 91.466 319.258 91.658 318.91 92.042C318.574 92.426 318.346 92.924 318.226 93.536C318.118 94.136 318.064 94.88 318.064 95.768C318.064 96.68 318.118 97.448 318.226 98.072C318.334 98.684 318.562 99.182 318.91 99.566C319.258 99.938 319.768 100.124 320.44 100.124C321.112 100.124 321.622 99.938 321.97 99.566C322.318 99.182 322.546 98.684 322.654 98.072C322.762 97.448 322.816 96.68 322.816 95.768ZM327.304 95.768C327.304 93.692 327.676 92.066 328.42 90.89C329.176 89.714 330.424 89.126 332.164 89.126C333.904 89.126 335.146 89.714 335.89 90.89C336.646 92.066 337.024 93.692 337.024 95.768C337.024 97.856 336.646 99.494 335.89 100.682C335.146 101.87 333.904 102.464 332.164 102.464C330.424 102.464 329.176 101.87 328.42 100.682C327.676 99.494 327.304 97.856 327.304 95.768ZM334.54 95.768C334.54 94.88 334.48 94.136 334.36 93.536C334.252 92.924 334.024 92.426 333.676 92.042C333.34 91.658 332.836 91.466 332.164 91.466C331.492 91.466 330.982 91.658 330.634 92.042C330.298 92.426 330.07 92.924 329.95 93.536C329.842 94.136 329.788 94.88 329.788 95.768C329.788 96.68 329.842 97.448 329.95 98.072C330.058 98.684 330.286 99.182 330.634 99.566C330.982 99.938 331.492 100.124 332.164 100.124C332.836 100.124 333.346 99.938 333.694 99.566C334.042 99.182 334.27 98.684 334.378 98.072C334.486 97.448 334.54 96.68 334.54 95.768ZM338.741 92.6C338.741 91.688 339.005 90.974 339.533 90.458C340.073 89.942 340.763 89.684 341.603 89.684C342.443 89.684 343.127 89.942 343.655 90.458C344.195 90.974 344.465 91.688 344.465 92.6C344.465 93.524 344.195 94.244 343.655 94.76C343.127 95.276 342.443 95.534 341.603 95.534C340.763 95.534 340.073 95.276 339.533 94.76C339.005 94.244 338.741 93.524 338.741 92.6ZM350.297 89.9L343.223 102.5H340.775L347.831 89.9H350.297ZM341.585 91.196C340.925 91.196 340.595 91.664 340.595 92.6C340.595 93.548 340.925 94.022 341.585 94.022C341.909 94.022 342.161 93.908 342.341 93.68C342.521 93.44 342.611 93.08 342.611 92.6C342.611 91.664 342.269 91.196 341.585 91.196ZM346.643 99.782C346.643 98.858 346.907 98.144 347.435 97.64C347.975 97.124 348.665 96.866 349.505 96.866C350.345 96.866 351.023 97.124 351.539 97.64C352.067 98.144 352.331 98.858 352.331 99.782C352.331 100.706 352.067 101.426 351.539 101.942C351.023 102.458 350.345 102.716 349.505 102.716C348.653 102.716 347.963 102.458 347.435 101.942C346.907 101.426 346.643 100.706 346.643 99.782ZM349.487 98.378C348.803 98.378 348.461 98.846 348.461 99.782C348.461 100.73 348.803 101.204 349.487 101.204C350.159 101.204 350.495 100.73 350.495 99.782C350.495 98.846 350.159 98.378 349.487 98.378Z" fill="#9F5DE9"/>
<path d="M364.295 92.2929C364.467 92.1207 364.696 92.0173 364.939 92.002C365.182 91.9867 365.422 92.0606 365.615 92.2099L365.709 92.2929L371.709 98.2929L371.792 98.3869L371.846 98.4639L371.9 98.5599L371.917 98.5959L371.944 98.6629L371.976 98.7709L371.986 98.8239L371.996 98.8839L372 98.9409L372.002 98.9999L372 99.0589L371.995 99.1169L371.986 99.1769L371.976 99.2289L371.944 99.3369L371.917 99.4039L371.847 99.5359L371.782 99.6259L371.709 99.7069L371.615 99.7899L371.538 99.8439L371.442 99.8979L371.406 99.9149L371.339 99.9419L371.231 99.9739L371.178 99.9839L371.118 99.9939L371.061 99.9979L371.002 99.9999H359.002C358.15 99.9999 357.705 99.0139 358.219 98.3769L358.295 98.2929L364.295 92.2929Z" fill="#9F5DE9"/>
<path d="M240.864 132.112C240.117 132.112 239.445 131.984 238.848 131.728C238.251 131.461 237.781 131.088 237.44 130.608C237.099 130.128 236.928 129.568 236.928 128.928H238.88C238.923 129.408 239.109 129.803 239.44 130.112C239.781 130.421 240.256 130.576 240.864 130.576C241.493 130.576 241.984 130.427 242.336 130.128C242.688 129.819 242.864 129.424 242.864 128.944C242.864 128.571 242.752 128.267 242.528 128.032C242.315 127.797 242.043 127.616 241.712 127.488C241.392 127.36 240.944 127.221 240.368 127.072C239.643 126.88 239.051 126.688 238.592 126.496C238.144 126.293 237.76 125.984 237.44 125.568C237.12 125.152 236.96 124.597 236.96 123.904C236.96 123.264 237.12 122.704 237.44 122.224C237.76 121.744 238.208 121.376 238.784 121.12C239.36 120.864 240.027 120.736 240.784 120.736C241.861 120.736 242.741 121.008 243.424 121.552C244.117 122.085 244.501 122.821 244.576 123.76H242.56C242.528 123.355 242.336 123.008 241.984 122.72C241.632 122.432 241.168 122.288 240.592 122.288C240.069 122.288 239.643 122.421 239.312 122.688C238.981 122.955 238.816 123.339 238.816 123.84C238.816 124.181 238.917 124.464 239.12 124.688C239.333 124.901 239.6 125.072 239.92 125.2C240.24 125.328 240.677 125.467 241.232 125.616C241.968 125.819 242.565 126.021 243.024 126.224C243.493 126.427 243.888 126.741 244.208 127.168C244.539 127.584 244.704 128.144 244.704 128.848C244.704 129.413 244.549 129.947 244.24 130.448C243.941 130.949 243.499 131.355 242.912 131.664C242.336 131.963 241.653 132.112 240.864 132.112ZM246.248 127.552C246.248 126.667 246.43 125.883 246.792 125.2C247.166 124.517 247.667 123.989 248.296 123.616C248.936 123.232 249.64 123.04 250.408 123.04C251.102 123.04 251.704 123.179 252.216 123.456C252.739 123.723 253.155 124.059 253.464 124.464V123.184H255.304V132H253.464V130.688C253.155 131.104 252.734 131.451 252.2 131.728C251.667 132.005 251.059 132.144 250.376 132.144C249.619 132.144 248.926 131.952 248.296 131.568C247.667 131.173 247.166 130.629 246.792 129.936C246.43 129.232 246.248 128.437 246.248 127.552ZM253.464 127.584C253.464 126.976 253.336 126.448 253.08 126C252.835 125.552 252.51 125.211 252.104 124.976C251.699 124.741 251.262 124.624 250.792 124.624C250.323 124.624 249.886 124.741 249.48 124.976C249.075 125.2 248.744 125.536 248.488 125.984C248.243 126.421 248.12 126.944 248.12 127.552C248.12 128.16 248.243 128.693 248.488 129.152C248.744 129.611 249.075 129.963 249.48 130.208C249.896 130.443 250.334 130.56 250.792 130.56C251.262 130.56 251.699 130.443 252.104 130.208C252.51 129.973 252.835 129.632 253.08 129.184C253.336 128.725 253.464 128.192 253.464 127.584ZM259.524 120.16V132H257.7V120.16H259.524ZM269.999 127.376C269.999 127.707 269.977 128.005 269.935 128.272H263.199C263.252 128.976 263.513 129.541 263.983 129.968C264.452 130.395 265.028 130.608 265.711 130.608C266.692 130.608 267.385 130.197 267.791 129.376H269.759C269.492 130.187 269.007 130.853 268.303 131.376C267.609 131.888 266.745 132.144 265.711 132.144C264.868 132.144 264.111 131.957 263.439 131.584C262.777 131.2 262.255 130.667 261.871 129.984C261.497 129.291 261.311 128.491 261.311 127.584C261.311 126.677 261.492 125.883 261.855 125.2C262.228 124.507 262.745 123.973 263.407 123.6C264.079 123.227 264.847 123.04 265.711 123.04C266.543 123.04 267.284 123.221 267.935 123.584C268.585 123.947 269.092 124.459 269.455 125.12C269.817 125.771 269.999 126.523 269.999 127.376ZM268.095 126.8C268.084 126.128 267.844 125.589 267.375 125.184C266.905 124.779 266.324 124.576 265.631 124.576C265.001 124.576 264.463 124.779 264.015 125.184C263.567 125.579 263.3 126.117 263.215 126.8H268.095ZM274.994 132.144C274.3 132.144 273.676 132.021 273.122 131.776C272.578 131.52 272.146 131.179 271.826 130.752C271.506 130.315 271.335 129.829 271.314 129.296H273.202C273.234 129.669 273.41 129.984 273.73 130.24C274.06 130.485 274.471 130.608 274.962 130.608C275.474 130.608 275.868 130.512 276.146 130.32C276.434 130.117 276.578 129.861 276.578 129.552C276.578 129.221 276.418 128.976 276.098 128.816C275.788 128.656 275.292 128.48 274.61 128.288C273.948 128.107 273.41 127.931 272.994 127.76C272.578 127.589 272.215 127.328 271.906 126.976C271.607 126.624 271.458 126.16 271.458 125.584C271.458 125.115 271.596 124.688 271.874 124.304C272.151 123.909 272.546 123.6 273.058 123.376C273.58 123.152 274.178 123.04 274.85 123.04C275.852 123.04 276.658 123.296 277.266 123.808C277.884 124.309 278.215 124.997 278.258 125.872H276.434C276.402 125.477 276.242 125.163 275.954 124.928C275.666 124.693 275.276 124.576 274.786 124.576C274.306 124.576 273.938 124.667 273.682 124.848C273.426 125.029 273.298 125.269 273.298 125.568C273.298 125.803 273.383 126 273.554 126.16C273.724 126.32 273.932 126.448 274.178 126.544C274.423 126.629 274.786 126.741 275.266 126.88C275.906 127.051 276.428 127.227 276.834 127.408C277.25 127.579 277.607 127.835 277.906 128.176C278.204 128.517 278.359 128.971 278.37 129.536C278.37 130.037 278.231 130.485 277.954 130.88C277.676 131.275 277.282 131.584 276.77 131.808C276.268 132.032 275.676 132.144 274.994 132.144ZM286.625 124.672V129.552C286.625 129.883 286.7 130.123 286.849 130.272C287.009 130.411 287.276 130.48 287.649 130.48H288.769V132H287.329C286.508 132 285.878 131.808 285.441 131.424C285.004 131.04 284.785 130.416 284.785 129.552V124.672H283.745V123.184H284.785V120.992H286.625V123.184H288.769V124.672H286.625ZM295.01 123.04C295.682 123.04 296.279 123.184 296.802 123.472C297.335 123.76 297.751 124.187 298.05 124.752C298.359 125.317 298.514 126 298.514 126.8V132H296.706V127.072C296.706 126.283 296.509 125.68 296.114 125.264C295.719 124.837 295.181 124.624 294.498 124.624C293.815 124.624 293.271 124.837 292.866 125.264C292.471 125.68 292.274 126.283 292.274 127.072V132H290.45V120.16H292.274V124.208C292.583 123.835 292.973 123.547 293.442 123.344C293.922 123.141 294.445 123.04 295.01 123.04ZM301.769 122.016C301.438 122.016 301.161 121.904 300.937 121.68C300.713 121.456 300.601 121.179 300.601 120.848C300.601 120.517 300.713 120.24 300.937 120.016C301.161 119.792 301.438 119.68 301.769 119.68C302.089 119.68 302.361 119.792 302.585 120.016C302.809 120.24 302.921 120.517 302.921 120.848C302.921 121.179 302.809 121.456 302.585 121.68C302.361 121.904 302.089 122.016 301.769 122.016ZM302.665 123.184V132H300.841V123.184H302.665ZM308.259 132.144C307.566 132.144 306.942 132.021 306.387 131.776C305.843 131.52 305.411 131.179 305.091 130.752C304.771 130.315 304.601 129.829 304.579 129.296H306.467C306.499 129.669 306.675 129.984 306.995 130.24C307.326 130.485 307.737 130.608 308.227 130.608C308.739 130.608 309.134 130.512 309.411 130.32C309.699 130.117 309.843 129.861 309.843 129.552C309.843 129.221 309.683 128.976 309.363 128.816C309.054 128.656 308.558 128.48 307.875 128.288C307.214 128.107 306.675 127.931 306.259 127.76C305.843 127.589 305.481 127.328 305.171 126.976C304.873 126.624 304.723 126.16 304.723 125.584C304.723 125.115 304.862 124.688 305.139 124.304C305.417 123.909 305.811 123.6 306.323 123.376C306.846 123.152 307.443 123.04 308.115 123.04C309.118 123.04 309.923 123.296 310.531 123.808C311.15 124.309 311.481 124.997 311.523 125.872H309.699C309.667 125.477 309.507 125.163 309.219 124.928C308.931 124.693 308.542 124.576 308.051 124.576C307.571 124.576 307.203 124.667 306.947 124.848C306.691 125.029 306.563 125.269 306.563 125.568C306.563 125.803 306.649 126 306.819 126.16C306.99 126.32 307.198 126.448 307.443 126.544C307.689 126.629 308.051 126.741 308.531 126.88C309.171 127.051 309.694 127.227 310.099 127.408C310.515 127.579 310.873 127.835 311.171 128.176C311.47 128.517 311.625 128.971 311.635 129.536C311.635 130.037 311.497 130.485 311.219 130.88C310.942 131.275 310.547 131.584 310.035 131.808C309.534 132.032 308.942 132.144 308.259 132.144ZM328.435 123.04C329.128 123.04 329.747 123.184 330.291 123.472C330.845 123.76 331.277 124.187 331.587 124.752C331.907 125.317 332.067 126 332.067 126.8V132H330.259V127.072C330.259 126.283 330.061 125.68 329.667 125.264C329.272 124.837 328.733 124.624 328.051 124.624C327.368 124.624 326.824 124.837 326.419 125.264C326.024 125.68 325.827 126.283 325.827 127.072V132H324.019V127.072C324.019 126.283 323.821 125.68 323.427 125.264C323.032 124.837 322.493 124.624 321.811 124.624C321.128 124.624 320.584 124.837 320.179 125.264C319.784 125.68 319.587 126.283 319.587 127.072V132H317.763V123.184H319.587V124.192C319.885 123.829 320.264 123.547 320.723 123.344C321.181 123.141 321.672 123.04 322.195 123.04C322.899 123.04 323.528 123.189 324.083 123.488C324.637 123.787 325.064 124.219 325.363 124.784C325.629 124.251 326.045 123.829 326.611 123.52C327.176 123.2 327.784 123.04 328.435 123.04ZM338.212 132.144C337.38 132.144 336.628 131.957 335.956 131.584C335.284 131.2 334.756 130.667 334.372 129.984C333.988 129.291 333.796 128.491 333.796 127.584C333.796 126.688 333.993 125.893 334.388 125.2C334.782 124.507 335.321 123.973 336.004 123.6C336.686 123.227 337.449 123.04 338.292 123.04C339.134 123.04 339.897 123.227 340.58 123.6C341.262 123.973 341.801 124.507 342.196 125.2C342.59 125.893 342.788 126.688 342.788 127.584C342.788 128.48 342.585 129.275 342.18 129.968C341.774 130.661 341.22 131.2 340.516 131.584C339.822 131.957 339.054 132.144 338.212 132.144ZM338.212 130.56C338.681 130.56 339.118 130.448 339.524 130.224C339.94 130 340.276 129.664 340.532 129.216C340.788 128.768 340.916 128.224 340.916 127.584C340.916 126.944 340.793 126.405 340.548 125.968C340.302 125.52 339.977 125.184 339.572 124.96C339.166 124.736 338.729 124.624 338.26 124.624C337.79 124.624 337.353 124.736 336.948 124.96C336.553 125.184 336.238 125.52 336.004 125.968C335.769 126.405 335.652 126.944 335.652 127.584C335.652 128.533 335.892 129.269 336.372 129.792C336.862 130.304 337.476 130.56 338.212 130.56ZM349.039 123.04C349.732 123.04 350.351 123.184 350.895 123.472C351.449 123.76 351.881 124.187 352.191 124.752C352.5 125.317 352.655 126 352.655 126.8V132H350.847V127.072C350.847 126.283 350.649 125.68 350.255 125.264C349.86 124.837 349.321 124.624 348.639 124.624C347.956 124.624 347.412 124.837 347.007 125.264C346.612 125.68 346.415 126.283 346.415 127.072V132H344.591V123.184H346.415V124.192C346.713 123.829 347.092 123.547 347.551 123.344C348.02 123.141 348.516 123.04 349.039 123.04ZM357.109 124.672V129.552C357.109 129.883 357.184 130.123 357.333 130.272C357.493 130.411 357.76 130.48 358.133 130.48H359.253V132H357.813C356.992 132 356.363 131.808 355.925 131.424C355.488 131.04 355.269 130.416 355.269 129.552V124.672H354.229V123.184H355.269V120.992H357.109V123.184H359.253V124.672H357.109ZM365.494 123.04C366.166 123.04 366.764 123.184 367.286 123.472C367.82 123.76 368.236 124.187 368.534 124.752C368.844 125.317 368.998 126 368.998 126.8V132H367.19V127.072C367.19 126.283 366.993 125.68 366.598 125.264C366.204 124.837 365.665 124.624 364.982 124.624C364.3 124.624 363.756 124.837 363.35 125.264C362.956 125.68 362.758 126.283 362.758 127.072V132H360.934V120.16H362.758V124.208C363.068 123.835 363.457 123.547 363.926 123.344C364.406 123.141 364.929 123.04 365.494 123.04Z" fill="#5C5C5C"/>
</g>
</g>
<g filter="url(#filter3_d_2_13809)">
<path d="M401.805 211.446C401.805 204.819 407.177 199.446 413.805 199.446H571.805C578.432 199.446 583.805 204.819 583.805 211.446V241.446C583.805 248.074 578.432 253.446 571.805 253.446H413.805C407.177 253.446 401.805 248.074 401.805 241.446V211.446Z" fill="#332344" shape-rendering="crispEdges"/>
<path d="M413.805 237.779H437.805" stroke="white" stroke-width="2" stroke-linecap="round" stroke-linejoin="round"/>
<path d="M415.138 237.779V217.779C415.138 217.072 415.419 216.394 415.919 215.894C416.419 215.394 417.098 215.113 417.805 215.113H433.805C434.512 215.113 435.19 215.394 435.69 215.894C436.191 216.394 436.472 217.072 436.472 217.779V237.779" stroke="white" stroke-width="2" stroke-linecap="round" stroke-linejoin="round"/>
<path d="M421.805 237.779V227.113C421.805 226.052 422.226 225.035 422.976 224.284C423.726 223.534 424.744 223.113 425.805 223.113C426.866 223.113 427.883 223.534 428.633 224.284C429.383 225.035 429.805 226.052 429.805 227.113V237.779" stroke="white" stroke-width="2" stroke-linecap="round" stroke-linejoin="round"/>
<path d="M458.725 233.446H456.445L449.585 223.066V233.446H447.305V219.526H449.585L456.445 229.886V219.526H458.725V233.446ZM466.499 233.626C465.459 233.626 464.519 233.393 463.679 232.926C462.839 232.446 462.179 231.78 461.699 230.926C461.219 230.06 460.979 229.06 460.979 227.926C460.979 226.806 461.225 225.813 461.719 224.946C462.212 224.08 462.885 223.413 463.739 222.946C464.592 222.48 465.545 222.246 466.599 222.246C467.652 222.246 468.605 222.48 469.459 222.946C470.312 223.413 470.985 224.08 471.479 224.946C471.972 225.813 472.219 226.806 472.219 227.926C472.219 229.046 471.965 230.04 471.459 230.906C470.952 231.773 470.259 232.446 469.379 232.926C468.512 233.393 467.552 233.626 466.499 233.626ZM466.499 231.646C467.085 231.646 467.632 231.506 468.139 231.226C468.659 230.946 469.079 230.526 469.399 229.966C469.719 229.406 469.879 228.726 469.879 227.926C469.879 227.126 469.725 226.453 469.419 225.906C469.112 225.346 468.705 224.926 468.199 224.646C467.692 224.366 467.145 224.226 466.559 224.226C465.972 224.226 465.425 224.366 464.919 224.646C464.425 224.926 464.032 225.346 463.739 225.906C463.445 226.453 463.299 227.126 463.299 227.926C463.299 229.113 463.599 230.033 464.199 230.686C464.812 231.326 465.579 231.646 466.499 231.646ZM488.048 230.606H482.228L481.228 233.446H478.848L483.828 219.526H486.468L491.448 233.446H489.048L488.048 230.606ZM487.408 228.746L485.148 222.286L482.868 228.746H487.408ZM498.053 222.246C498.907 222.246 499.66 222.42 500.313 222.766C500.98 223.1 501.5 223.52 501.873 224.026V222.426H504.173V233.626C504.173 234.64 503.96 235.54 503.533 236.326C503.107 237.126 502.487 237.753 501.673 238.206C500.873 238.66 499.913 238.886 498.793 238.886C497.3 238.886 496.06 238.533 495.073 237.826C494.087 237.133 493.527 236.186 493.393 234.986H495.653C495.827 235.56 496.193 236.02 496.753 236.366C497.327 236.726 498.007 236.906 498.793 236.906C499.713 236.906 500.453 236.626 501.013 236.066C501.587 235.506 501.873 234.693 501.873 233.626V231.786C501.487 232.306 500.96 232.746 500.293 233.106C499.64 233.453 498.893 233.626 498.053 233.626C497.093 233.626 496.213 233.386 495.413 232.906C494.627 232.413 494 231.733 493.533 230.866C493.08 229.986 492.853 228.993 492.853 227.886C492.853 226.78 493.08 225.8 493.533 224.946C494 224.093 494.627 223.433 495.413 222.966C496.213 222.486 497.093 222.246 498.053 222.246ZM501.873 227.926C501.873 227.166 501.713 226.506 501.393 225.946C501.087 225.386 500.68 224.96 500.173 224.666C499.667 224.373 499.12 224.226 498.533 224.226C497.947 224.226 497.4 224.373 496.893 224.666C496.387 224.946 495.973 225.366 495.653 225.926C495.347 226.473 495.193 227.126 495.193 227.886C495.193 228.646 495.347 229.313 495.653 229.886C495.973 230.46 496.387 230.9 496.893 231.206C497.413 231.5 497.96 231.646 498.533 231.646C499.12 231.646 499.667 231.5 500.173 231.206C500.68 230.913 501.087 230.486 501.393 229.926C501.713 229.353 501.873 228.686 501.873 227.926ZM517.268 227.666C517.268 228.08 517.241 228.453 517.188 228.786H508.768C508.835 229.666 509.161 230.373 509.748 230.906C510.335 231.44 511.055 231.706 511.908 231.706C513.135 231.706 514.001 231.193 514.508 230.166H516.968C516.635 231.18 516.028 232.013 515.148 232.666C514.281 233.306 513.201 233.626 511.908 233.626C510.855 233.626 509.908 233.393 509.068 232.926C508.241 232.446 507.588 231.78 507.108 230.926C506.641 230.06 506.408 229.06 506.408 227.926C506.408 226.793 506.635 225.8 507.088 224.946C507.555 224.08 508.201 223.413 509.028 222.946C509.868 222.48 510.828 222.246 511.908 222.246C512.948 222.246 513.875 222.473 514.688 222.926C515.501 223.38 516.135 224.02 516.588 224.846C517.041 225.66 517.268 226.6 517.268 227.666ZM514.888 226.946C514.875 226.106 514.575 225.433 513.988 224.926C513.401 224.42 512.675 224.166 511.808 224.166C511.021 224.166 510.348 224.42 509.788 224.926C509.228 225.42 508.895 226.093 508.788 226.946H514.888ZM525.072 222.246C525.938 222.246 526.712 222.426 527.392 222.786C528.085 223.146 528.625 223.68 529.012 224.386C529.398 225.093 529.592 225.946 529.592 226.946V233.446H527.332V227.286C527.332 226.3 527.085 225.546 526.592 225.026C526.098 224.493 525.425 224.226 524.572 224.226C523.718 224.226 523.038 224.493 522.532 225.026C522.038 225.546 521.792 226.3 521.792 227.286V233.446H519.512V222.426H521.792V223.686C522.165 223.233 522.638 222.88 523.212 222.626C523.798 222.373 524.418 222.246 525.072 222.246ZM531.74 227.926C531.74 226.793 531.967 225.8 532.42 224.946C532.887 224.08 533.527 223.413 534.34 222.946C535.153 222.48 536.087 222.246 537.14 222.246C538.473 222.246 539.573 222.566 540.44 223.206C541.32 223.833 541.913 224.733 542.22 225.906H539.76C539.56 225.36 539.24 224.933 538.8 224.626C538.36 224.32 537.807 224.166 537.14 224.166C536.207 224.166 535.46 224.5 534.9 225.166C534.353 225.82 534.08 226.74 534.08 227.926C534.08 229.113 534.353 230.04 534.9 230.706C535.46 231.373 536.207 231.706 537.14 231.706C538.46 231.706 539.333 231.126 539.76 229.966H542.22C541.9 231.086 541.3 231.98 540.42 232.646C539.54 233.3 538.447 233.626 537.14 233.626C536.087 233.626 535.153 233.393 534.34 232.926C533.527 232.446 532.887 231.78 532.42 230.926C531.967 230.06 531.74 229.06 531.74 227.926ZM545.652 220.966C545.239 220.966 544.892 220.826 544.612 220.546C544.332 220.266 544.192 219.92 544.192 219.506C544.192 219.093 544.332 218.746 544.612 218.466C544.892 218.186 545.239 218.046 545.652 218.046C546.052 218.046 546.392 218.186 546.672 218.466C546.952 218.746 547.092 219.093 547.092 219.506C547.092 219.92 546.952 220.266 546.672 220.546C546.392 220.826 546.052 220.966 545.652 220.966ZM546.772 222.426V233.446H544.492V222.426H546.772ZM559.866 227.666C559.866 228.08 559.839 228.453 559.786 228.786H551.366C551.432 229.666 551.759 230.373 552.346 230.906C552.932 231.44 553.652 231.706 554.506 231.706C555.732 231.706 556.599 231.193 557.106 230.166H559.566C559.232 231.18 558.626 232.013 557.746 232.666C556.879 233.306 555.799 233.626 554.506 233.626C553.452 233.626 552.506 233.393 551.666 232.926C550.839 232.446 550.186 231.78 549.706 230.926C549.239 230.06 549.006 229.06 549.006 227.926C549.006 226.793 549.232 225.8 549.686 224.946C550.152 224.08 550.799 223.413 551.626 222.946C552.466 222.48 553.426 222.246 554.506 222.246C555.546 222.246 556.472 222.473 557.286 222.926C558.099 223.38 558.732 224.02 559.186 224.846C559.639 225.66 559.866 226.6 559.866 227.666ZM557.486 226.946C557.472 226.106 557.172 225.433 556.586 224.926C555.999 224.42 555.272 224.166 554.406 224.166C553.619 224.166 552.946 224.42 552.386 224.926C551.826 225.42 551.492 226.093 551.386 226.946H557.486ZM566.109 233.626C565.243 233.626 564.463 233.473 563.769 233.166C563.089 232.846 562.549 232.42 562.149 231.886C561.749 231.34 561.536 230.733 561.509 230.066H563.869C563.909 230.533 564.129 230.926 564.529 231.246C564.943 231.553 565.456 231.706 566.069 231.706C566.709 231.706 567.203 231.586 567.549 231.346C567.909 231.093 568.089 230.773 568.089 230.386C568.089 229.973 567.889 229.666 567.489 229.466C567.103 229.266 566.483 229.046 565.629 228.806C564.803 228.58 564.129 228.36 563.609 228.146C563.089 227.933 562.636 227.606 562.249 227.166C561.876 226.726 561.689 226.146 561.689 225.426C561.689 224.84 561.863 224.306 562.209 223.826C562.556 223.333 563.049 222.946 563.689 222.666C564.343 222.386 565.089 222.246 565.929 222.246C567.183 222.246 568.189 222.566 568.949 223.206C569.723 223.833 570.136 224.693 570.189 225.786H567.909C567.869 225.293 567.669 224.9 567.309 224.606C566.949 224.313 566.463 224.166 565.849 224.166C565.249 224.166 564.789 224.28 564.469 224.506C564.149 224.733 563.989 225.033 563.989 225.406C563.989 225.7 564.096 225.946 564.309 226.146C564.523 226.346 564.783 226.506 565.089 226.626C565.396 226.733 565.849 226.873 566.449 227.046C567.249 227.26 567.903 227.48 568.409 227.706C568.929 227.92 569.376 228.24 569.749 228.666C570.123 229.093 570.316 229.66 570.329 230.366C570.329 230.993 570.156 231.553 569.809 232.046C569.463 232.54 568.969 232.926 568.329 233.206C567.703 233.486 566.963 233.626 566.109 233.626Z" fill="white"/>
</g>
<g filter="url(#filter4_d_2_13809)">
<path d="M388.805 281.446C388.805 274.819 394.177 269.446 400.805 269.446H571.805C578.432 269.446 583.805 274.819 583.805 281.446V311.446C583.805 318.074 578.432 323.446 571.805 323.446H400.805C394.177 323.446 388.805 318.074 388.805 311.446V281.446Z" fill="#332344" shape-rendering="crispEdges"/>
<path d="M403.471 289.78C403.471 291.194 404.033 292.551 405.033 293.551C406.033 294.551 407.39 295.113 408.805 295.113C410.219 295.113 411.576 294.551 412.576 293.551C413.576 292.551 414.138 291.194 414.138 289.78C414.138 288.365 413.576 287.009 412.576 286.008C411.576 285.008 410.219 284.446 408.805 284.446C407.39 284.446 406.033 285.008 405.033 286.008C404.033 287.009 403.471 288.365 403.471 289.78Z" stroke="white" stroke-width="2" stroke-linecap="round" stroke-linejoin="round"/>
<path d="M400.805 308.446V305.78C400.805 304.365 401.367 303.009 402.367 302.008C403.367 301.008 404.724 300.446 406.138 300.446H411.471C412.886 300.446 414.242 301.008 415.243 302.008C416.243 303.009 416.805 304.365 416.805 305.78V308.446" stroke="white" stroke-width="2" stroke-linecap="round" stroke-linejoin="round"/>
<path d="M437.725 303.446H435.445L428.585 293.066V303.446H426.305V289.526H428.585L435.445 299.886V289.526H437.725V303.446ZM445.499 303.626C444.459 303.626 443.519 303.393 442.679 302.926C441.839 302.446 441.179 301.78 440.699 300.926C440.219 300.06 439.979 299.06 439.979 297.926C439.979 296.806 440.225 295.813 440.719 294.946C441.212 294.08 441.885 293.413 442.739 292.946C443.592 292.48 444.545 292.246 445.599 292.246C446.652 292.246 447.605 292.48 448.459 292.946C449.312 293.413 449.985 294.08 450.479 294.946C450.972 295.813 451.219 296.806 451.219 297.926C451.219 299.046 450.965 300.04 450.459 300.906C449.952 301.773 449.259 302.446 448.379 302.926C447.512 303.393 446.552 303.626 445.499 303.626ZM445.499 301.646C446.085 301.646 446.632 301.506 447.139 301.226C447.659 300.946 448.079 300.526 448.399 299.966C448.719 299.406 448.879 298.726 448.879 297.926C448.879 297.126 448.725 296.453 448.419 295.906C448.112 295.346 447.705 294.926 447.199 294.646C446.692 294.366 446.145 294.226 445.559 294.226C444.972 294.226 444.425 294.366 443.919 294.646C443.425 294.926 443.032 295.346 442.739 295.906C442.445 296.453 442.299 297.126 442.299 297.926C442.299 299.113 442.599 300.033 443.199 300.686C443.812 301.326 444.579 301.646 445.499 301.646ZM473.308 289.546V303.446H471.028V293.926L466.788 303.446H465.208L460.948 293.926V303.446H458.668V289.546H461.128L466.008 300.446L470.868 289.546H473.308ZM477.465 290.966C477.051 290.966 476.705 290.826 476.425 290.546C476.145 290.266 476.005 289.92 476.005 289.506C476.005 289.093 476.145 288.746 476.425 288.466C476.705 288.186 477.051 288.046 477.465 288.046C477.865 288.046 478.205 288.186 478.485 288.466C478.765 288.746 478.905 289.093 478.905 289.506C478.905 289.92 478.765 290.266 478.485 290.546C478.205 290.826 477.865 290.966 477.465 290.966ZM478.585 292.426V303.446H476.305V292.426H478.585ZM480.818 297.886C480.818 296.78 481.045 295.8 481.498 294.946C481.965 294.093 482.591 293.433 483.378 292.966C484.178 292.486 485.065 292.246 486.038 292.246C486.758 292.246 487.465 292.406 488.158 292.726C488.865 293.033 489.425 293.446 489.838 293.966V288.646H492.138V303.446H489.838V301.786C489.465 302.32 488.945 302.76 488.278 303.106C487.625 303.453 486.871 303.626 486.018 303.626C485.058 303.626 484.178 303.386 483.378 302.906C482.591 302.413 481.965 301.733 481.498 300.866C481.045 299.986 480.818 298.993 480.818 297.886ZM489.838 297.926C489.838 297.166 489.678 296.506 489.358 295.946C489.051 295.386 488.645 294.96 488.138 294.666C487.631 294.373 487.085 294.226 486.498 294.226C485.911 294.226 485.365 294.373 484.858 294.666C484.351 294.946 483.938 295.366 483.618 295.926C483.311 296.473 483.158 297.126 483.158 297.886C483.158 298.646 483.311 299.313 483.618 299.886C483.938 300.46 484.351 300.9 484.858 301.206C485.378 301.5 485.925 301.646 486.498 301.646C487.085 301.646 487.631 301.5 488.138 301.206C488.645 300.913 489.051 300.486 489.358 299.926C489.678 299.353 489.838 298.686 489.838 297.926ZM494.373 297.886C494.373 296.78 494.599 295.8 495.053 294.946C495.519 294.093 496.146 293.433 496.933 292.966C497.733 292.486 498.619 292.246 499.593 292.246C500.313 292.246 501.019 292.406 501.713 292.726C502.419 293.033 502.979 293.446 503.393 293.966V288.646H505.693V303.446H503.393V301.786C503.019 302.32 502.499 302.76 501.833 303.106C501.179 303.453 500.426 303.626 499.573 303.626C498.613 303.626 497.733 303.386 496.933 302.906C496.146 302.413 495.519 301.733 495.053 300.866C494.599 299.986 494.373 298.993 494.373 297.886ZM503.393 297.926C503.393 297.166 503.233 296.506 502.913 295.946C502.606 295.386 502.199 294.96 501.693 294.666C501.186 294.373 500.639 294.226 500.053 294.226C499.466 294.226 498.919 294.373 498.413 294.666C497.906 294.946 497.493 295.366 497.173 295.926C496.866 296.473 496.713 297.126 496.713 297.886C496.713 298.646 496.866 299.313 497.173 299.886C497.493 300.46 497.906 300.9 498.413 301.206C498.933 301.5 499.479 301.646 500.053 301.646C500.639 301.646 501.186 301.5 501.693 301.206C502.199 300.913 502.606 300.486 502.913 299.926C503.233 299.353 503.393 298.686 503.393 297.926ZM510.968 288.646V303.446H508.688V288.646H510.968ZM524.061 297.666C524.061 298.08 524.034 298.453 523.981 298.786H515.561C515.628 299.666 515.954 300.373 516.541 300.906C517.128 301.44 517.848 301.706 518.701 301.706C519.928 301.706 520.794 301.193 521.301 300.166H523.761C523.428 301.18 522.821 302.013 521.941 302.666C521.074 303.306 519.994 303.626 518.701 303.626C517.648 303.626 516.701 303.393 515.861 302.926C515.034 302.446 514.381 301.78 513.901 300.926C513.434 300.06 513.201 299.06 513.201 297.926C513.201 296.793 513.428 295.8 513.881 294.946C514.348 294.08 514.994 293.413 515.821 292.946C516.661 292.48 517.621 292.246 518.701 292.246C519.741 292.246 520.668 292.473 521.481 292.926C522.294 293.38 522.928 294.02 523.381 294.846C523.834 295.66 524.061 296.6 524.061 297.666ZM521.681 296.946C521.668 296.106 521.368 295.433 520.781 294.926C520.194 294.42 519.468 294.166 518.601 294.166C517.814 294.166 517.141 294.42 516.581 294.926C516.021 295.42 515.688 296.093 515.581 296.946H521.681ZM539.645 292.246C540.511 292.246 541.285 292.426 541.965 292.786C542.658 293.146 543.198 293.68 543.585 294.386C543.985 295.093 544.185 295.946 544.185 296.946V303.446H541.925V297.286C541.925 296.3 541.678 295.546 541.185 295.026C540.691 294.493 540.018 294.226 539.165 294.226C538.311 294.226 537.631 294.493 537.125 295.026C536.631 295.546 536.385 296.3 536.385 297.286V303.446H534.125V297.286C534.125 296.3 533.878 295.546 533.385 295.026C532.891 294.493 532.218 294.226 531.365 294.226C530.511 294.226 529.831 294.493 529.325 295.026C528.831 295.546 528.585 296.3 528.585 297.286V303.446H526.305V292.426H528.585V293.686C528.958 293.233 529.431 292.88 530.005 292.626C530.578 292.373 531.191 292.246 531.845 292.246C532.725 292.246 533.511 292.433 534.205 292.806C534.898 293.18 535.431 293.72 535.805 294.426C536.138 293.76 536.658 293.233 537.365 292.846C538.071 292.446 538.831 292.246 539.645 292.246ZM557.186 297.666C557.186 298.08 557.159 298.453 557.106 298.786H548.686C548.753 299.666 549.079 300.373 549.666 300.906C550.253 301.44 550.973 301.706 551.826 301.706C553.053 301.706 553.919 301.193 554.426 300.166H556.886C556.553 301.18 555.946 302.013 555.066 302.666C554.199 303.306 553.119 303.626 551.826 303.626C550.773 303.626 549.826 303.393 548.986 302.926C548.159 302.446 547.506 301.78 547.026 300.926C546.559 300.06 546.326 299.06 546.326 297.926C546.326 296.793 546.553 295.8 547.006 294.946C547.473 294.08 548.119 293.413 548.946 292.946C549.786 292.48 550.746 292.246 551.826 292.246C552.866 292.246 553.793 292.473 554.606 292.926C555.419 293.38 556.053 294.02 556.506 294.846C556.959 295.66 557.186 296.6 557.186 297.666ZM554.806 296.946C554.793 296.106 554.493 295.433 553.906 294.926C553.319 294.42 552.593 294.166 551.726 294.166C550.939 294.166 550.266 294.42 549.706 294.926C549.146 295.42 548.813 296.093 548.706 296.946H554.806ZM564.99 292.246C565.856 292.246 566.63 292.426 567.31 292.786C568.003 293.146 568.543 293.68 568.93 294.386C569.316 295.093 569.51 295.946 569.51 296.946V303.446H567.25V297.286C567.25 296.3 567.003 295.546 566.51 295.026C566.016 294.493 565.343 294.226 564.49 294.226C563.636 294.226 562.956 294.493 562.45 295.026C561.956 295.546 561.71 296.3 561.71 297.286V303.446H559.43V292.426H561.71V293.686C562.083 293.233 562.556 292.88 563.13 292.626C563.716 292.373 564.336 292.246 564.99 292.246Z" fill="white"/>
</g>
<g filter="url(#filter5_d_2_13809)">
<path d="M430.233 347.446C430.233 340.819 435.605 335.446 442.233 335.446H571.804C578.432 335.446 583.804 340.819 583.804 347.446V377.446C583.804 384.074 578.432 389.446 571.804 389.446H442.233C435.606 389.446 430.233 384.074 430.233 377.446V347.446Z" fill="#332344" shape-rendering="crispEdges"/>
<path d="M442.233 352.161C442.233 351.706 442.414 351.27 442.735 350.948C443.057 350.627 443.493 350.446 443.947 350.446H447.376C447.83 350.446 448.266 350.627 448.588 350.948C448.909 351.27 449.09 351.706 449.09 352.161V372.732C449.09 373.187 448.909 373.623 448.588 373.944C448.266 374.266 447.83 374.446 447.376 374.446H443.947C443.493 374.446 443.057 374.266 442.735 373.944C442.414 373.623 442.233 373.187 442.233 372.732V352.161Z" stroke="white" stroke-width="2" stroke-linecap="round" stroke-linejoin="round"/>
<path d="M455.947 352.161C455.947 351.706 456.128 351.27 456.449 350.948C456.771 350.627 457.207 350.446 457.662 350.446H461.09C461.545 350.446 461.981 350.627 462.302 350.948C462.624 351.27 462.804 351.706 462.804 352.161V372.732C462.804 373.187 462.624 373.623 462.302 373.944C461.981 374.266 461.545 374.446 461.09 374.446H457.662C457.207 374.446 456.771 374.266 456.449 373.944C456.128 373.623 455.947 373.187 455.947 372.732V352.161Z" stroke="white" stroke-width="2" stroke-linecap="round" stroke-linejoin="round"/>
<path d="M483.724 369.446H481.444L474.584 359.066V369.446H472.304V355.526H474.584L481.444 365.886V355.526H483.724V369.446ZM491.498 369.626C490.458 369.626 489.518 369.393 488.678 368.926C487.838 368.446 487.178 367.78 486.698 366.926C486.218 366.06 485.978 365.06 485.978 363.926C485.978 362.806 486.225 361.813 486.718 360.946C487.212 360.08 487.885 359.413 488.738 358.946C489.592 358.48 490.545 358.246 491.598 358.246C492.652 358.246 493.605 358.48 494.458 358.946C495.312 359.413 495.985 360.08 496.478 360.946C496.972 361.813 497.218 362.806 497.218 363.926C497.218 365.046 496.965 366.04 496.458 366.906C495.952 367.773 495.258 368.446 494.378 368.926C493.512 369.393 492.552 369.626 491.498 369.626ZM491.498 367.646C492.085 367.646 492.632 367.506 493.138 367.226C493.658 366.946 494.078 366.526 494.398 365.966C494.718 365.406 494.878 364.726 494.878 363.926C494.878 363.126 494.725 362.453 494.418 361.906C494.112 361.346 493.705 360.926 493.198 360.646C492.692 360.366 492.145 360.226 491.558 360.226C490.972 360.226 490.425 360.366 489.918 360.646C489.425 360.926 489.032 361.346 488.738 361.906C488.445 362.453 488.298 363.126 488.298 363.926C488.298 365.113 488.598 366.033 489.198 366.686C489.812 367.326 490.578 367.646 491.498 367.646ZM509.207 355.546C510.687 355.546 511.981 355.833 513.087 356.406C514.207 356.966 515.067 357.78 515.667 358.846C516.281 359.9 516.587 361.133 516.587 362.546C516.587 363.96 516.281 365.186 515.667 366.226C515.067 367.266 514.207 368.066 513.087 368.626C511.981 369.173 510.687 369.446 509.207 369.446H504.667V355.546H509.207ZM509.207 367.586C510.834 367.586 512.081 367.146 512.947 366.266C513.814 365.386 514.247 364.146 514.247 362.546C514.247 360.933 513.814 359.673 512.947 358.766C512.081 357.86 510.834 357.406 509.207 357.406H506.947V367.586H509.207ZM528.947 363.666C528.947 364.08 528.921 364.453 528.867 364.786H520.447C520.514 365.666 520.841 366.373 521.427 366.906C522.014 367.44 522.734 367.706 523.587 367.706C524.814 367.706 525.681 367.193 526.187 366.166H528.647C528.314 367.18 527.707 368.013 526.827 368.666C525.961 369.306 524.881 369.626 523.587 369.626C522.534 369.626 521.587 369.393 520.747 368.926C519.921 368.446 519.267 367.78 518.787 366.926C518.321 366.06 518.087 365.06 518.087 363.926C518.087 362.793 518.314 361.8 518.767 360.946C519.234 360.08 519.881 359.413 520.707 358.946C521.547 358.48 522.507 358.246 523.587 358.246C524.627 358.246 525.554 358.473 526.367 358.926C527.181 359.38 527.814 360.02 528.267 360.846C528.721 361.66 528.947 362.6 528.947 363.666ZM526.567 362.946C526.554 362.106 526.254 361.433 525.667 360.926C525.081 360.42 524.354 360.166 523.487 360.166C522.701 360.166 522.027 360.42 521.467 360.926C520.907 361.42 520.574 362.093 520.467 362.946H526.567ZM533.471 354.646V369.446H531.191V354.646H533.471ZM535.704 363.886C535.704 362.78 535.931 361.8 536.384 360.946C536.851 360.093 537.478 359.433 538.264 358.966C539.064 358.486 539.944 358.246 540.904 358.246C541.771 358.246 542.524 358.42 543.164 358.766C543.818 359.1 544.338 359.52 544.724 360.026V358.426H547.024V369.446H544.724V367.806C544.338 368.326 543.811 368.76 543.144 369.106C542.478 369.453 541.718 369.626 540.864 369.626C539.918 369.626 539.051 369.386 538.264 368.906C537.478 368.413 536.851 367.733 536.384 366.866C535.931 365.986 535.704 364.993 535.704 363.886ZM544.724 363.926C544.724 363.166 544.564 362.506 544.244 361.946C543.938 361.386 543.531 360.96 543.024 360.666C542.518 360.373 541.971 360.226 541.384 360.226C540.798 360.226 540.251 360.373 539.744 360.666C539.238 360.946 538.824 361.366 538.504 361.926C538.198 362.473 538.044 363.126 538.044 363.886C538.044 364.646 538.198 365.313 538.504 365.886C538.824 366.46 539.238 366.9 539.744 367.206C540.264 367.5 540.811 367.646 541.384 367.646C541.971 367.646 542.518 367.5 543.024 367.206C543.531 366.913 543.938 366.486 544.244 365.926C544.564 365.353 544.724 364.686 544.724 363.926ZM559.939 358.426L553.179 374.626H550.819L553.059 369.266L548.719 358.426H551.259L554.359 366.826L557.579 358.426H559.939ZM565.66 369.626C564.793 369.626 564.013 369.473 563.32 369.166C562.64 368.846 562.1 368.42 561.7 367.886C561.3 367.34 561.086 366.733 561.06 366.066H563.42C563.46 366.533 563.68 366.926 564.08 367.246C564.493 367.553 565.006 367.706 565.62 367.706C566.26 367.706 566.753 367.586 567.1 367.346C567.46 367.093 567.64 366.773 567.64 366.386C567.64 365.973 567.44 365.666 567.04 365.466C566.653 365.266 566.033 365.046 565.18 364.806C564.353 364.58 563.68 364.36 563.16 364.146C562.64 363.933 562.186 363.606 561.8 363.166C561.426 362.726 561.24 362.146 561.24 361.426C561.24 360.84 561.413 360.306 561.76 359.826C562.106 359.333 562.6 358.946 563.24 358.666C563.893 358.386 564.64 358.246 565.48 358.246C566.733 358.246 567.74 358.566 568.5 359.206C569.273 359.833 569.686 360.693 569.74 361.786H567.46C567.42 361.293 567.22 360.9 566.86 360.606C566.5 360.313 566.013 360.166 565.4 360.166C564.8 360.166 564.34 360.28 564.02 360.506C563.7 360.733 563.54 361.033 563.54 361.406C563.54 361.7 563.646 361.946 563.86 362.146C564.073 362.346 564.333 362.506 564.64 362.626C564.946 362.733 565.4 362.873 566 363.046C566.8 363.26 567.453 363.48 567.96 363.706C568.48 363.92 568.926 364.24 569.3 364.666C569.673 365.093 569.866 365.66 569.88 366.366C569.88 366.993 569.706 367.553 569.36 368.046C569.013 368.54 568.52 368.926 567.88 369.206C567.253 369.486 566.513 369.626 565.66 369.626Z" fill="white"/>
</g>
</g>
<defs>
<filter id="filter0_d_2_13809" x="-12" y="40" width="226" height="136" filterUnits="userSpaceOnUse" color-interpolation-filters="sRGB">
<feFlood flood-opacity="0" result="BackgroundImageFix"/>
<feColorMatrix in="SourceAlpha" type="matrix" values="0 0 0 0 0 0 0 0 0 0 0 0 0 0 0 0 0 0 127 0" result="hardAlpha"/>
<feOffset/>
<feGaussianBlur stdDeviation="11"/>
<feComposite in2="hardAlpha" operator="out"/>
<feColorMatrix type="matrix" values="0 0 0 0 0 0 0 0 0 0 0 0 0 0 0 0 0 0 0.3 0"/>
<feBlend mode="normal" in2="BackgroundImageFix" result="effect1_dropShadow_2_13809"/>
<feBlend mode="normal" in="SourceGraphic" in2="effect1_dropShadow_2_13809" result="shape"/>
</filter>
<filter id="filter1_d_2_13809" x="88" y="150" width="226" height="136" filterUnits="userSpaceOnUse" color-interpolation-filters="sRGB">
<feFlood flood-opacity="0" result="BackgroundImageFix"/>
<feColorMatrix in="SourceAlpha" type="matrix" values="0 0 0 0 0 0 0 0 0 0 0 0 0 0 0 0 0 0 127 0" result="hardAlpha"/>
<feOffset/>
<feGaussianBlur stdDeviation="11"/>
<feComposite in2="hardAlpha" operator="out"/>
<feColorMatrix type="matrix" values="0 0 0 0 0 0 0 0 0 0 0 0 0 0 0 0 0 0 0.3 0"/>
<feBlend mode="normal" in2="BackgroundImageFix" result="effect1_dropShadow_2_13809"/>
<feBlend mode="normal" in="SourceGraphic" in2="effect1_dropShadow_2_13809" result="shape"/>
</filter>
<filter id="filter2_d_2_13809" x="198" y="40" width="226" height="136" filterUnits="userSpaceOnUse" color-interpolation-filters="sRGB">
<feFlood flood-opacity="0" result="BackgroundImageFix"/>
<feColorMatrix in="SourceAlpha" type="matrix" values="0 0 0 0 0 0 0 0 0 0 0 0 0 0 0 0 0 0 127 0" result="hardAlpha"/>
<feOffset/>
<feGaussianBlur stdDeviation="11"/>
<feComposite in2="hardAlpha" operator="out"/>
<feColorMatrix type="matrix" values="0 0 0 0 0 0 0 0 0 0 0 0 0 0 0 0 0 0 0.3 0"/>
<feBlend mode="normal" in2="BackgroundImageFix" result="effect1_dropShadow_2_13809"/>
<feBlend mode="normal" in="SourceGraphic" in2="effect1_dropShadow_2_13809" result="shape"/>
</filter>
<filter id="filter3_d_2_13809" x="379.805" y="177.446" width="226" height="98" filterUnits="userSpaceOnUse" color-interpolation-filters="sRGB">
<feFlood flood-opacity="0" result="BackgroundImageFix"/>
<feColorMatrix in="SourceAlpha" type="matrix" values="0 0 0 0 0 0 0 0 0 0 0 0 0 0 0 0 0 0 127 0" result="hardAlpha"/>
<feOffset/>
<feGaussianBlur stdDeviation="11"/>
<feComposite in2="hardAlpha" operator="out"/>
<feColorMatrix type="matrix" values="0 0 0 0 0 0 0 0 0 0 0 0 0 0 0 0 0 0 0.3 0"/>
<feBlend mode="normal" in2="BackgroundImageFix" result="effect1_dropShadow_2_13809"/>
<feBlend mode="normal" in="SourceGraphic" in2="effect1_dropShadow_2_13809" result="shape"/>
</filter>
<filter id="filter4_d_2_13809" x="366.805" y="247.446" width="239" height="98" filterUnits="userSpaceOnUse" color-interpolation-filters="sRGB">
<feFlood flood-opacity="0" result="BackgroundImageFix"/>
<feColorMatrix in="SourceAlpha" type="matrix" values="0 0 0 0 0 0 0 0 0 0 0 0 0 0 0 0 0 0 127 0" result="hardAlpha"/>
<feOffset/>
<feGaussianBlur stdDeviation="11"/>
<feComposite in2="hardAlpha" operator="out"/>
<feColorMatrix type="matrix" values="0 0 0 0 0 0 0 0 0 0 0 0 0 0 0 0 0 0 0.3 0"/>
<feBlend mode="normal" in2="BackgroundImageFix" result="effect1_dropShadow_2_13809"/>
<feBlend mode="normal" in="SourceGraphic" in2="effect1_dropShadow_2_13809" result="shape"/>
</filter>
<filter id="filter5_d_2_13809" x="408.233" y="313.446" width="197.571" height="98" filterUnits="userSpaceOnUse" color-interpolation-filters="sRGB">
<feFlood flood-opacity="0" result="BackgroundImageFix"/>
<feColorMatrix in="SourceAlpha" type="matrix" values="0 0 0 0 0 0 0 0 0 0 0 0 0 0 0 0 0 0 127 0" result="hardAlpha"/>
<feOffset/>
<feGaussianBlur stdDeviation="11"/>
<feComposite in2="hardAlpha" operator="out"/>
<feColorMatrix type="matrix" values="0 0 0 0 0 0 0 0 0 0 0 0 0 0 0 0 0 0 0.3 0"/>
<feBlend mode="normal" in2="BackgroundImageFix" result="effect1_dropShadow_2_13809"/>
<feBlend mode="normal" in="SourceGraphic" in2="effect1_dropShadow_2_13809" result="shape"/>
</filter>
<linearGradient id="paint0_linear_2_13809" x1="533" y1="378.5" x2="145.5" y2="12" gradientUnits="userSpaceOnUse">
<stop stop-opacity="0.35"/>
<stop offset="1" stop-opacity="0"/>
</linearGradient>
<linearGradient id="paint1_linear_2_13809" x1="120" y1="0" x2="120" y2="155.057" gradientUnits="userSpaceOnUse">
<stop stop-color="#E9F4FF"/>
<stop offset="1" stop-color="#FFE7FC"/>
</linearGradient>
<clipPath id="clip0_2_13809">
<rect width="600" height="400" rx="10" fill="white"/>
</clipPath>
<clipPath id="clip1_2_13809">
<path d="M80 12C80 5.37258 85.3726 0 92 0H308C314.627 0 320 5.37258 320 12V196C320 202.627 314.627 208 308 208H92C85.3726 208 80 202.627 80 196V12Z" fill="white"/>
</clipPath>
<clipPath id="clip2_2_13809">
<rect width="116.548" height="36.9434" fill="white" transform="translate(141.726 8)"/>
</clipPath>
<clipPath id="clip3_2_13809">
<rect x="26" y="78" width="150" height="60" rx="12" fill="white"/>
</clipPath>
<clipPath id="clip4_2_13809">
<rect x="126" y="188" width="150" height="60" rx="12" fill="white"/>
</clipPath>
<clipPath id="clip5_2_13809">
<rect x="236" y="78" width="150" height="60" rx="12" fill="white"/>
</clipPath>
</defs>
</svg>
