<svg width="21" height="21" viewBox="0 0 21 21" fill="none" xmlns="http://www.w3.org/2000/svg">
<path d="M10.4998 6.39165C8.23121 6.39165 6.39179 8.2314 6.39179 10.5C6.39179 12.769 8.23121 14.6079 10.4998 14.6079C12.7688 14.6079 14.6085 12.769 14.6085 10.5C14.6085 8.2314 12.7688 6.39165 10.4998 6.39165ZM10.4998 13.1668C9.02725 13.1668 7.83298 11.9729 7.83298 10.5C7.83298 9.02708 9.02722 7.83318 10.4998 7.83318C11.9727 7.83318 13.1669 9.02708 13.1669 10.5C13.1669 11.9728 11.9727 13.1668 10.4998 13.1668ZM15.7306 6.22955C15.7306 6.75931 15.3006 7.18923 14.7705 7.18923C14.2405 7.18923 13.8105 6.75931 13.8105 6.22955C13.8105 5.69957 14.2404 5.26953 14.7705 5.26953C15.3006 5.26953 15.7306 5.69957 15.7306 6.22955ZM18.0802 5.25968C17.8757 4.73336 17.6021 4.28741 17.1576 3.84259C16.2609 2.94523 15.0341 2.6041 13.7987 2.54816C12.9452 2.50872 12.6728 2.5 10.4998 2.5C8.32752 2.5 8.05508 2.50872 7.20162 2.54816C5.96325 2.60422 4.73782 2.94748 3.84277 3.84256C2.94422 4.74111 2.60468 5.96417 2.54786 7.20179C2.50899 8.05524 2.49983 8.32738 2.49983 10.5C2.49983 12.6726 2.50899 12.9451 2.54786 13.7989C2.60493 15.0408 2.94387 16.2593 3.8427 17.1574C4.74141 18.0555 5.96409 18.3955 7.20162 18.4522C8.05508 18.4912 8.32752 18.5 10.4998 18.5C12.6728 18.5 12.9453 18.4912 13.7987 18.4522C15.0391 18.3954 16.2607 18.055 17.1576 17.1574C18.0539 16.2605 18.3959 15.0338 18.452 13.7989C18.491 12.9451 18.5002 12.6725 18.5002 10.4999C18.5002 8.32731 18.491 8.05521 18.452 7.20176C18.4134 6.35002 18.2781 5.7687 18.0802 5.25968ZM17.012 13.7327C16.9725 14.6017 16.7706 15.5055 16.1383 16.1385C15.4978 16.7799 14.6074 16.9723 13.733 17.0122C12.8892 17.0504 12.6365 17.0588 10.4998 17.0588C8.36386 17.0588 8.11117 17.0504 7.26728 17.0122C6.3907 16.9722 5.50171 16.7766 4.86166 16.1386C4.22346 15.5025 4.02705 14.6011 3.98796 13.7327C3.94974 12.8893 3.94136 12.6363 3.94136 10.4999C3.94136 8.364 3.94977 8.111 3.98796 7.2671C4.02693 6.40218 4.23271 5.49172 4.86154 4.86183C5.49912 4.22319 6.39735 4.02778 7.26734 3.98809C8.11117 3.94956 8.36386 3.9415 10.4998 3.9415C12.6362 3.9415 12.8892 3.94956 13.733 3.98809C14.6091 4.02806 15.4996 4.22282 16.1383 4.86171C16.7772 5.50091 16.9723 6.39577 17.012 7.26717C17.0506 8.111 17.059 8.364 17.059 10.5C17.059 12.6363 17.0506 12.8893 17.012 13.7327Z" fill="url(#paint0_linear_1042_10944)"/>
<defs>
<linearGradient id="paint0_linear_1042_10944" x1="3.84274" y1="17.1575" x2="17.1576" y2="3.84259" gradientUnits="userSpaceOnUse">
<stop stop-color="#FDD91D"/>
<stop offset="0.05" stop-color="#FDD91D"/>
<stop offset="0.497" stop-color="#EC1C24"/>
<stop offset="0.95" stop-color="#A43A94"/>
<stop offset="1" stop-color="#A43A94"/>
</linearGradient>
</defs>
</svg>
