<svg width="190" height="180" viewBox="0 0 190 180" fill="none" xmlns="http://www.w3.org/2000/svg">
<path opacity="0.2" d="M148.076 88.5176C148.076 93.2441 142.27 97.1397 141.107 101.497C139.907 106.002 142.944 112.279 140.664 116.221C138.347 120.227 131.377 120.707 128.127 123.957C124.878 127.206 124.398 134.176 120.392 136.493C116.45 138.773 110.173 135.736 105.668 136.936C101.311 138.099 97.415 143.905 92.6885 143.905C87.9621 143.905 84.0665 138.099 79.7093 136.936C75.2045 135.736 68.9272 138.773 64.9854 136.493C60.979 134.176 60.499 127.206 57.2496 123.957C54.0002 120.707 47.0306 120.227 44.7135 116.221C42.4334 112.279 45.4705 106.002 44.2704 101.497C43.1073 97.1397 37.3008 93.2441 37.3008 88.5176C37.3008 83.7912 43.1073 79.8956 44.2704 75.5384C45.4705 71.0336 42.4334 64.7563 44.7135 60.8145C47.0306 56.8081 54.0002 56.3281 57.2496 53.0787C60.499 49.8293 60.979 42.8597 64.9854 40.5426C68.9272 38.2625 75.2045 41.2996 79.7093 40.0995C84.0665 38.9364 87.9621 33.1299 92.6885 33.1299C97.415 33.1299 101.311 38.9364 105.668 40.0995C110.173 41.2996 116.45 38.2625 120.392 40.5426C124.398 42.8597 124.878 49.8293 128.127 53.0787C131.377 56.3281 138.347 56.8081 140.664 60.8145C142.944 64.7563 139.907 71.0336 141.107 75.5384C142.27 79.8956 148.076 83.7912 148.076 88.5176Z" fill="#FF4979"/>
<path d="M139.053 88.5168C139.053 92.4731 134.193 95.7339 133.219 99.3811C132.214 103.152 134.757 108.406 132.848 111.706C130.909 115.059 125.075 115.461 122.355 118.181C119.635 120.901 119.233 126.735 115.879 128.674C112.58 130.583 107.326 128.041 103.555 129.045C99.9075 130.019 96.6467 134.879 92.6904 134.879C88.7341 134.879 85.4733 130.019 81.8261 129.045C78.0553 128.041 72.8009 130.583 69.5014 128.674C66.1479 126.735 65.746 120.901 63.0261 118.181C60.3062 115.461 54.4722 115.059 52.5327 111.706C50.6241 108.406 53.1664 103.152 52.1618 99.3811C51.1882 95.7339 46.3279 92.4731 46.3279 88.5168C46.3279 84.5605 51.1882 81.2997 52.1618 77.6525C53.1664 73.8817 50.6241 68.6273 52.5327 65.3278C54.4722 61.9743 60.3062 61.5725 63.0261 58.8525C65.746 56.1326 66.1479 50.2986 69.5014 48.3591C72.8009 46.4506 78.0553 48.9928 81.8261 47.9882C85.4733 47.0146 88.7341 42.1543 92.6904 42.1543C96.6467 42.1543 99.9075 47.0146 103.555 47.9882C107.326 48.9928 112.58 46.4506 115.879 48.3591C119.233 50.2986 119.635 56.1326 122.355 58.8525C125.075 61.5725 130.909 61.9743 132.848 65.3278C134.757 68.6273 132.214 73.8817 133.219 77.6525C134.193 81.2997 139.053 84.5605 139.053 88.5168Z" fill="#FF4979"/>
<path d="M89.0163 102.382L112.383 79.0152C113.578 77.7789 113.578 75.842 112.383 74.6468C111.188 73.4517 109.21 73.4517 108.015 74.6468L86.8322 95.8293L77.3536 86.3508C76.1585 85.1557 74.1803 85.1557 72.9852 86.3508C71.7901 87.5459 71.7901 89.524 72.9852 90.7192L84.648 102.382C85.2249 102.959 86.0079 103.289 86.8322 103.289C87.6564 103.289 88.4394 102.959 89.0163 102.382Z" fill="white"/>
<circle opacity="0.7" cx="160.904" cy="64.7782" r="5.9344" fill="#FF4979"/>
<ellipse opacity="0.7" cx="56.0643" cy="150.829" rx="3.95627" ry="3.95627" fill="#FF4979"/>
<circle opacity="0.7" cx="35.2946" cy="33.1292" r="5.9344" fill="#FF4979"/>
<ellipse cx="109.474" cy="156.762" rx="1.97813" ry="1.97813" fill="#FF4979"/>
<circle opacity="0.5" cx="154.969" cy="130.056" r="2.9672" fill="#FF4979"/>
<circle opacity="0.5" cx="26.3921" cy="91.4833" r="2.9672" fill="#FF4979"/>
<circle opacity="0.5" cx="114.42" cy="24.227" r="2.9672" fill="#FF4979"/>
</svg>
