<svg width="40" height="40" viewBox="0 0 40 40" fill="none" xmlns="http://www.w3.org/2000/svg">
<rect width="40" height="40" rx="8" fill="#FF3B30" fill-opacity="0.1"/>
<path d="M27.502 14.985C24.727 14.71 21.9353 14.5684 19.152 14.5684C17.502 14.5684 15.852 14.6517 14.202 14.8184L12.502 14.985" stroke="#FF3B30" stroke-width="1.25" stroke-linecap="round" stroke-linejoin="round"/>
<path d="M17.0859 14.143L17.2693 13.0513C17.4026 12.2596 17.5026 11.668 18.9109 11.668H21.0943C22.5026 11.668 22.6109 12.293 22.7359 13.0596L22.9193 14.143" stroke="#FF3B30" stroke-width="1.25" stroke-linecap="round" stroke-linejoin="round"/>
<path d="M25.7096 17.6191L25.168 26.0108C25.0763 27.3191 25.0013 28.3358 22.6763 28.3358H17.3263C15.0013 28.3358 14.9263 27.3191 14.8346 26.0108L14.293 17.6191" stroke="#FF3B30" stroke-width="1.25" stroke-linecap="round" stroke-linejoin="round"/>
<path d="M18.6094 23.752H21.3844" stroke="#FF3B30" stroke-width="1.25" stroke-linecap="round" stroke-linejoin="round"/>
<path d="M17.918 20.418H22.0846" stroke="#FF3B30" stroke-width="1.25" stroke-linecap="round" stroke-linejoin="round"/>
</svg>
